0
SECTION
2
HEADER
0
ENDSEC
0
SECTION
2
TABLES
0
TABLE
2
LTYPE
0
LTYPE
72
65
70
64
2
CONTINUOUS
3
______
73
0
40
0
0
ENDTAB
0
TABLE
2
LAYER
0
ENDTAB
0
ENDSEC
0
SECTION
2
ENTITIES
0
LINE
8
layer0
10
10.9266623
20
2.8917935
11
10.7633184
21
2.7403569
0
LINE
8
layer0
10
10.7633184
20
2.7403569
11
10.6079105
21
2.6079254
0
LINE
8
layer0
10
10.6079105
20
2.6079254
11
10.4602261
21
2.4923533
0
LINE
8
layer0
10
10.4602261
20
2.4923533
11
10.3214762
21
2.3928524
0
LINE
8
layer0
10
10.3214762
20
2.3928524
11
10.1943586
21
2.3095056
0
LINE
8
layer0
10
10.1943586
20
2.3095056
11
10.0771852
21
2.2394898
0
LINE
8
layer0
10
10.0771852
20
2.2394898
11
9.9721427
21
2.1825885
0
LINE
8
layer0
10
9.9721427
20
2.1825885
11
9.881719
21
2.1383979
0
LINE
8
layer0
10
9.881719
20
2.1383979
11
9.7425623
21
2.0805112
0
LINE
8
layer0
10
9.7425623
20
2.0805112
11
9.5614798
21
2.02301
0
LINE
8
layer0
10
9.5614798
20
2.02301
11
9.4650917
21
1.9818241
0
LINE
8
layer0
10
9.4650917
20
1.9818241
11
9.424472
21
1.9597232
0
LINE
8
layer0
10
9.424472
20
1.9597232
11
9.3889295
21
1.9368807
0
LINE
8
layer0
10
9.3889295
20
1.9368807
11
9.3584725
21
1.9135103
0
LINE
8
layer0
10
9.3584725
20
1.9135103
11
9.3331023
21
1.8898043
0
LINE
8
layer0
10
9.3331023
20
1.8898043
11
9.3128371
21
1.8659778
0
LINE
8
layer0
10
9.3128371
20
1.8659778
11
9.2976387
21
1.8422172
0
LINE
8
layer0
10
9.2976387
20
1.8422172
11
9.2875237
21
1.8187475
0
LINE
8
layer0
10
9.2875237
20
1.8187475
11
9.282444
21
1.7957536
0
LINE
8
layer0
10
9.282444
20
1.7957536
11
9.2823897
21
1.7734362
0
LINE
8
layer0
10
9.2823897
20
1.7734362
11
9.2910383
21
1.7261875
0
LINE
8
layer0
10
9.2910383
20
1.7261875
11
9.3444513
21
1.4084494
0
LINE
8
layer0
10
9.3444513
20
1.4084494
11
9.3870663
21
1.0890838
0
LINE
8
layer0
10
9.3870663
20
1.0890838
11
9.3927286
21
1.041385
0
LINE
8
layer0
10
9.3927286
20
1.041385
11
9.3993588
21
1.0200751
0
LINE
8
layer0
10
9.3993588
20
1.0200751
11
9.4109903
21
0.9996
0
LINE
8
layer0
10
9.4109903
20
0.9996
11
9.4275738
21
0.9801545
0
LINE
8
layer0
10
9.4275738
20
0.9801545
11
9.4491005
21
0.9619293
0
LINE
8
layer0
10
9.4491005
20
0.9619293
11
9.4754884
21
0.9451346
0
LINE
8
layer0
10
9.4754884
20
0.9451346
11
9.5067189
21
0.9299598
0
LINE
8
layer0
10
9.5067189
20
0.9299598
11
9.5427113
21
0.916605
0
LINE
8
layer0
10
9.5427113
20
0.916605
11
9.5834077
21
0.9052537
0
LINE
8
layer0
10
9.5834077
20
0.9052537
11
9.6287371
21
0.8961076
0
LINE
8
layer0
10
9.6287371
20
0.8961076
11
9.7329828
21
0.8851623
0
LINE
8
layer0
10
9.7329828
20
0.8851623
11
9.922969
21
0.8835908
0
LINE
8
layer0
10
9.922969
20
0.8835908
11
10.0730058
21
0.8692929
0
LINE
8
layer0
10
10.0730058
20
0.8692929
11
10.1724376
21
0.8537185
0
LINE
8
layer0
10
10.1724376
20
0.8537185
11
10.2895853
21
0.830307
0
LINE
8
layer0
10
10.2895853
20
0.830307
11
10.4221906
21
0.7979392
0
LINE
8
layer0
10
10.4221906
20
0.7979392
11
10.5682276
21
0.7557639
0
LINE
8
layer0
10
10.5682276
20
0.7557639
11
10.7301416
21
0.7015807
0
LINE
8
layer0
10
10.7301416
20
0.7015807
11
10.9053303
21
0.6346739
0
LINE
8
layer0
10
10.9053303
20
0.6346739
11
11.0928687
21
0.5539333
0
LINE
8
layer0
10
11.0928687
20
0.5539333
11
11.2935925
21
0.4573711
0
LINE
8
layer0
10
11.2935925
20
0.4573711
11
11.4946522
21
0.3501761
0
ARC
8
layer0
10
-0.0000151
20
0
40
11.5
50
358.2550683
51
361.7449317
0
LINE
8
layer0
10
11.4946522
20
-0.3501761
11
11.2935925
21
-0.4573711
0
LINE
8
layer0
10
11.2935925
20
-0.4573711
11
11.0928687
21
-0.5539333
0
LINE
8
layer0
10
11.0928687
20
-0.5539333
11
10.9053303
21
-0.6346739
0
LINE
8
layer0
10
10.9053303
20
-0.6346739
11
10.7301416
21
-0.7015807
0
LINE
8
layer0
10
10.7301416
20
-0.7015807
11
10.5682276
21
-0.7557639
0
LINE
8
layer0
10
10.5682276
20
-0.7557639
11
10.4221906
21
-0.7979392
0
LINE
8
layer0
10
10.4221906
20
-0.7979392
11
10.2895853
21
-0.830307
0
LINE
8
layer0
10
10.2895853
20
-0.830307
11
10.1724376
21
-0.8537185
0
LINE
8
layer0
10
10.1724376
20
-0.8537185
11
10.0730058
21
-0.8692929
0
LINE
8
layer0
10
10.0730058
20
-0.8692929
11
9.922969
21
-0.8835908
0
LINE
8
layer0
10
9.922969
20
-0.8835908
11
9.7329828
21
-0.8851623
0
LINE
8
layer0
10
9.7329828
20
-0.8851623
11
9.6287371
21
-0.8961076
0
LINE
8
layer0
10
9.6287371
20
-0.8961076
11
9.5834077
21
-0.9052537
0
LINE
8
layer0
10
9.5834077
20
-0.9052537
11
9.5427113
21
-0.916605
0
LINE
8
layer0
10
9.5427113
20
-0.916605
11
9.5067189
21
-0.9299598
0
LINE
8
layer0
10
9.5067189
20
-0.9299598
11
9.4754884
21
-0.9451346
0
LINE
8
layer0
10
9.4754884
20
-0.9451346
11
9.4491005
21
-0.9619293
0
LINE
8
layer0
10
9.4491005
20
-0.9619293
11
9.4275738
21
-0.9801545
0
LINE
8
layer0
10
9.4275738
20
-0.9801545
11
9.4109903
21
-0.9996
0
LINE
8
layer0
10
9.4109903
20
-0.9996
11
9.3993588
21
-1.0200751
0
LINE
8
layer0
10
9.3993588
20
-1.0200751
11
9.3927286
21
-1.041385
0
LINE
8
layer0
10
9.3927286
20
-1.041385
11
9.3870663
21
-1.0890838
0
LINE
8
layer0
10
9.3870663
20
-1.0890838
11
9.3444513
21
-1.4084494
0
LINE
8
layer0
10
9.3444513
20
-1.4084494
11
9.2910383
21
-1.7261875
0
LINE
8
layer0
10
9.2910383
20
-1.7261875
11
9.2823897
21
-1.7734362
0
LINE
8
layer0
10
9.2823897
20
-1.7734362
11
9.282444
21
-1.7957536
0
LINE
8
layer0
10
9.282444
20
-1.7957536
11
9.2875237
21
-1.8187475
0
LINE
8
layer0
10
9.2875237
20
-1.8187475
11
9.2976387
21
-1.8422172
0
LINE
8
layer0
10
9.2976387
20
-1.8422172
11
9.3128371
21
-1.8659778
0
LINE
8
layer0
10
9.3128371
20
-1.8659778
11
9.3331023
21
-1.8898043
0
LINE
8
layer0
10
9.3331023
20
-1.8898043
11
9.3584725
21
-1.9135103
0
LINE
8
layer0
10
9.3584725
20
-1.9135103
11
9.3889295
21
-1.9368807
0
LINE
8
layer0
10
9.3889295
20
-1.9368807
11
9.424472
21
-1.9597232
0
LINE
8
layer0
10
9.424472
20
-1.9597232
11
9.4650917
21
-1.9818241
0
LINE
8
layer0
10
9.4650917
20
-1.9818241
11
9.5614798
21
-2.02301
0
LINE
8
layer0
10
9.5614798
20
-2.02301
11
9.7425623
21
-2.0805112
0
LINE
8
layer0
10
9.7425623
20
-2.0805112
11
9.881719
21
-2.1383979
0
LINE
8
layer0
10
9.881719
20
-2.1383979
11
9.9721427
21
-2.1825885
0
LINE
8
layer0
10
9.9721427
20
-2.1825885
11
10.0771852
21
-2.2394898
0
LINE
8
layer0
10
10.0771852
20
-2.2394898
11
10.1943586
21
-2.3095056
0
LINE
8
layer0
10
10.1943586
20
-2.3095056
11
10.3214762
21
-2.3928524
0
LINE
8
layer0
10
10.3214762
20
-2.3928524
11
10.4602261
21
-2.4923533
0
LINE
8
layer0
10
10.4602261
20
-2.4923533
11
10.6079105
21
-2.6079254
0
LINE
8
layer0
10
10.6079105
20
-2.6079254
11
10.7633184
21
-2.7403569
0
LINE
8
layer0
10
10.7633184
20
-2.7403569
11
10.9266623
21
-2.8917935
0
LINE
8
layer0
10
10.9266623
20
-2.8917935
11
11.0871933
21
-3.0534894
0
ARC
8
layer0
10
-0.0000145
20
0.0000041
40
11.5
50
341.1122134
51
344.6020766
0
LINE
8
layer0
10
10.8807609
20
-3.722727
11
10.6570374
21
-3.7658962
0
LINE
8
layer0
10
10.6570374
20
-3.7658962
11
10.436769
21
-3.799004
0
LINE
8
layer0
10
10.436769
20
-3.799004
11
10.2337636
21
-3.8208797
0
LINE
8
layer0
10
10.2337636
20
-3.8208797
11
10.046637
21
-3.8331762
0
LINE
8
layer0
10
10.046637
20
-3.8331762
11
9.8759456
21
-3.8372272
0
LINE
8
layer0
10
9.8759456
20
-3.8372272
11
9.7239652
21
-3.8344836
0
LINE
8
layer0
10
9.7239652
20
-3.8344836
11
9.5877107
21
-3.8263273
0
LINE
8
layer0
10
9.5877107
20
-3.8263273
11
9.4688668
21
-3.8141688
0
LINE
8
layer0
10
9.4688668
20
-3.8141688
11
9.3692618
21
-3.7997432
0
LINE
8
layer0
10
9.3692618
20
-3.7997432
11
9.2216764
21
-3.7691818
0
LINE
8
layer0
10
9.2216764
20
-3.7691818
11
9.0396675
21
-3.7146841
0
LINE
8
layer0
10
9.0396675
20
-3.7146841
11
8.936827
21
-3.6944161
0
LINE
8
layer0
10
8.936827
20
-3.6944161
11
8.8908155
21
-3.6897949
0
LINE
8
layer0
10
8.8908155
20
-3.6897949
11
8.8485813
21
-3.6886464
0
LINE
8
layer0
10
8.8485813
20
-3.6886464
11
8.8102516
21
-3.6907989
0
LINE
8
layer0
10
8.8102516
20
-3.6907989
11
8.7759357
21
-3.6960942
0
LINE
8
layer0
10
8.7759357
20
-3.6960942
11
8.7457699
21
-3.7043648
0
LINE
8
layer0
10
8.7457699
20
-3.7043648
11
8.7198275
21
-3.7154351
0
LINE
8
layer0
10
8.7198275
20
-3.7154351
11
8.6982492
21
-3.7291287
0
LINE
8
layer0
10
8.6982492
20
-3.7291287
11
8.6810992
21
-3.7452657
0
LINE
8
layer0
10
8.6810992
20
-3.7452657
11
8.6684825
21
-3.7636745
0
LINE
8
layer0
10
8.6684825
20
-3.7636745
11
8.6490122
21
-3.8075852
0
LINE
8
layer0
10
8.6490122
20
-3.8075852
11
8.5141558
21
-4.1002013
0
LINE
8
layer0
10
8.5141558
20
-4.1002013
11
8.3694609
21
-4.3880795
0
LINE
8
layer0
10
8.3694609
20
-4.3880795
11
8.3472696
21
-4.4306798
0
LINE
8
layer0
10
8.3472696
20
-4.4306798
11
8.3407434
21
-4.4520217
0
LINE
8
layer0
10
8.3407434
20
-4.4520217
11
8.3388199
21
-4.4754913
0
LINE
8
layer0
10
8.3388199
20
-4.4754913
11
8.3415677
21
-4.5008998
0
LINE
8
layer0
10
8.3415677
20
-4.5008998
11
8.3490873
21
-4.5280846
0
LINE
8
layer0
10
8.3490873
20
-4.5280846
11
8.3614292
21
-4.5568258
0
LINE
8
layer0
10
8.3614292
20
-4.5568258
11
8.3786848
21
-4.5869566
0
LINE
8
layer0
10
8.3786848
20
-4.5869566
11
8.4009001
21
-4.6182661
0
LINE
8
layer0
10
8.4009001
20
-4.6182661
11
8.4281306
21
-4.65057
0
LINE
8
layer0
10
8.4281306
20
-4.65057
11
8.4604313
21
-4.6836619
0
LINE
8
layer0
10
8.4604313
20
-4.6836619
11
8.5403975
21
-4.751429
0
LINE
8
layer0
10
8.5403975
20
-4.751429
11
8.6964861
21
-4.8597505
0
LINE
8
layer0
10
8.6964861
20
-4.8597505
11
8.8123981
21
-4.9560827
0
LINE
8
layer0
10
8.8123981
20
-4.9560827
11
8.8857791
21
-5.0249628
0
LINE
8
layer0
10
8.8857791
20
-5.0249628
11
8.9693829
21
-5.110298
0
LINE
8
layer0
10
8.9693829
20
-5.110298
11
9.0607131
21
-5.2117407
0
LINE
8
layer0
10
9.0607131
20
-5.2117407
11
9.1576164
21
-5.3288532
0
LINE
8
layer0
10
9.1576164
20
-5.3288532
11
9.2608736
21
-5.4648308
0
LINE
8
layer0
10
9.2608736
20
-5.4648308
11
9.3679313
21
-5.6187991
0
LINE
8
layer0
10
9.3679313
20
-5.6187991
11
9.4774
21
-5.7911543
0
LINE
8
layer0
10
9.4774
20
-5.7911543
11
9.5888503
21
-5.9840095
0
LINE
8
layer0
10
9.5888503
20
-5.9840095
11
9.6945886
21
-6.1858391
0
ARC
8
layer0
10
-0.0000123
20
0.0000087
40
11.5
50
323.9693523
51
327.4592161
0
LINE
8
layer0
10
9.3000661
20
-6.7644972
11
9.0735577
21
-6.7398049
0
LINE
8
layer0
10
9.0735577
20
-6.7398049
11
8.8533165
21
-6.7065166
0
LINE
8
layer0
10
8.8533165
20
-6.7065166
11
8.6528822
21
-6.6675835
0
LINE
8
layer0
10
8.6528822
20
-6.6675835
11
8.4704446
21
-6.6241772
0
LINE
8
layer0
10
8.4704446
20
-6.6241772
11
8.3061425
21
-6.577736
0
LINE
8
layer0
10
8.3061425
20
-6.577736
11
8.1617228
21
-6.5303173
0
LINE
8
layer0
10
8.1617228
20
-6.5303173
11
8.0339258
21
-6.4823616
0
LINE
8
layer0
10
8.0339258
20
-6.4823616
11
7.9239456
21
-6.4357134
0
LINE
8
layer0
10
7.9239456
20
-6.4357134
11
7.8330178
21
-6.3925697
0
LINE
8
layer0
10
7.8330178
20
-6.3925697
11
7.7009973
21
-6.3198644
0
LINE
8
layer0
10
7.7009973
20
-6.3198644
11
7.5431381
21
-6.2141399
0
LINE
8
layer0
10
7.5431381
20
-6.2141399
11
7.4508406
21
-6.1644596
0
LINE
8
layer0
10
7.4508406
20
-6.1644596
11
7.4082354
21
-6.1464815
0
LINE
8
layer0
10
7.4082354
20
-6.1464815
11
7.3682161
21
-6.1329353
0
LINE
8
layer0
10
7.3682161
20
-6.1329353
11
7.3309547
21
-6.1236943
0
LINE
8
layer0
10
7.3309547
20
-6.1236943
11
7.2966026
21
-6.1186395
0
LINE
8
layer0
10
7.2966026
20
-6.1186395
11
7.2653392
21
-6.1176511
0
LINE
8
layer0
10
7.2653392
20
-6.1176511
11
7.2372863
21
-6.120583
0
LINE
8
layer0
10
7.2372863
20
-6.120583
11
7.2126304
21
-6.1273079
0
LINE
8
layer0
10
7.2126304
20
-6.1273079
11
7.1914859
21
-6.1376729
0
LINE
8
layer0
10
7.1914859
20
-6.1376729
11
7.1740036
21
-6.1515451
0
LINE
8
layer0
10
7.1740036
20
-6.1515451
11
7.1424554
21
-6.187766
0
LINE
8
layer0
10
7.1424554
20
-6.187766
11
6.9273402
21
-6.4276324
0
LINE
8
layer0
10
6.9273402
20
-6.4276324
11
6.7042201
21
-6.6600713
0
LINE
8
layer0
10
6.7042201
20
-6.6600713
11
6.6704581
21
-6.694238
0
LINE
8
layer0
10
6.6704581
20
-6.694238
11
6.6579312
21
-6.7127082
0
LINE
8
layer0
10
6.6579312
20
-6.7127082
11
6.6491753
21
-6.7345681
0
LINE
8
layer0
10
6.6491753
20
-6.7345681
11
6.6443117
21
-6.7596577
0
LINE
8
layer0
10
6.6443117
20
-6.7596577
11
6.6434844
21
-6.7878512
0
LINE
8
layer0
10
6.6434844
20
-6.7878512
11
6.6468064
21
-6.8189533
0
LINE
8
layer0
10
6.6468064
20
-6.8189533
11
6.6544141
21
-6.8528317
0
LINE
8
layer0
10
6.6544141
20
-6.8528317
11
6.6664139
21
-6.8892982
0
LINE
8
layer0
10
6.6664139
20
-6.8892982
11
6.6829128
21
-6.9281934
0
LINE
8
layer0
10
6.6829128
20
-6.9281934
11
6.7040245
21
-6.9693359
0
LINE
8
layer0
10
6.7040245
20
-6.9693359
11
6.7604633
21
-7.0576627
0
LINE
8
layer0
10
6.7604633
20
-7.0576627
11
6.8776891
21
-7.2071797
0
LINE
8
layer0
10
6.8776891
20
-7.2071797
11
6.9600569
21
-7.3333978
0
LINE
8
layer0
10
6.9600569
20
-7.3333978
11
7.0098751
21
-7.4208472
0
LINE
8
layer0
10
7.0098751
20
-7.4208472
11
7.0646116
21
-7.5270338
0
LINE
8
layer0
10
7.0646116
20
-7.5270338
11
7.1219836
21
-7.6508897
0
LINE
8
layer0
10
7.1219836
20
-7.6508897
11
7.1800621
21
-7.791362
0
LINE
8
layer0
10
7.1800621
20
-7.791362
11
7.2386518
21
-7.9517341
0
LINE
8
layer0
10
7.2386518
20
-7.9517341
11
7.2955703
21
-8.1304178
0
LINE
8
layer0
10
7.2955703
20
-8.1304178
11
7.349373
21
-8.3273822
0
LINE
8
layer0
10
7.349373
20
-8.3273822
11
7.3990268
21
-8.5445199
0
LINE
8
layer0
10
7.3990268
20
-8.5445199
11
7.4405771
21
-8.7685497
0
ARC
8
layer0
10
-0.0000099
20
0.0000115
40
11.5
50
306.8264996
51
310.3163631
0
LINE
8
layer0
10
6.8930197
20
-9.2052122
11
6.6838526
21
-9.1148523
0
LINE
8
layer0
10
6.6838526
20
-9.1148523
11
6.483208
21
-9.0181257
0
LINE
8
layer0
10
6.483208
20
-9.0181257
11
6.3031542
21
-8.9218433
0
LINE
8
layer0
10
6.3031542
20
-8.9218433
11
6.141616
21
-8.826591
0
LINE
8
layer0
10
6.141616
20
-8.826591
11
5.9983022
21
-8.7337841
0
LINE
8
layer0
10
5.9983022
20
-8.7337841
11
5.8742755
21
-8.6459037
0
LINE
8
layer0
10
5.8742755
20
-8.6459037
11
5.7662914
21
-8.5624097
0
LINE
8
layer0
10
5.7662914
20
-8.5624097
11
5.6749471
21
-8.4854167
0
LINE
8
layer0
10
5.6749471
20
-8.4854167
11
5.6007758
21
-8.4173883
0
LINE
8
layer0
10
5.6007758
20
-8.4173883
11
5.4960509
21
-8.3089994
0
LINE
8
layer0
10
5.4960509
20
-8.3089994
11
5.3763677
21
-8.161442
0
LINE
8
layer0
10
5.3763677
20
-8.161442
11
5.3028143
21
-8.0867638
0
LINE
8
layer0
10
5.3028143
20
-8.0867638
11
5.2674011
21
-8.0570263
0
LINE
8
layer0
10
5.2674011
20
-8.0570263
11
5.2331525
21
-8.032286
0
LINE
8
layer0
10
5.2331525
20
-8.032286
11
5.2002704
21
-8.0124726
0
LINE
8
layer0
10
5.2002704
20
-8.0124726
11
5.1689344
21
-7.9975169
0
LINE
8
layer0
10
5.1689344
20
-7.9975169
11
5.1393512
21
-7.9873574
0
LINE
8
layer0
10
5.1393512
20
-7.9873574
11
5.1116805
21
-7.9818903
0
LINE
8
layer0
10
5.1116805
20
-7.9818903
11
5.0861377
21
-7.9810489
0
LINE
8
layer0
10
5.0861377
20
-7.9810489
11
5.0628775
21
-7.984721
0
LINE
8
layer0
10
5.0628775
20
-7.984721
11
5.042083
21
-7.9928239
0
LINE
8
layer0
10
5.042083
20
-7.9928239
11
5.0012601
21
-8.0181366
0
LINE
8
layer0
10
5.0012601
20
-8.0181366
11
4.725
21
-8.1839401
0
LINE
8
layer0
10
4.725
20
-8.1839401
11
4.4432799
21
-8.3402866
0
LINE
8
layer0
10
4.4432799
20
-8.3402866
11
4.400947
21
-8.3629839
0
LINE
8
layer0
10
4.400947
20
-8.3629839
11
4.3835325
21
-8.376941
0
LINE
8
layer0
10
4.3835325
20
-8.376941
11
4.3687223
21
-8.3952489
0
LINE
8
layer0
10
4.3687223
20
-8.3952489
11
4.3566795
21
-8.4177903
0
LINE
8
layer0
10
4.3566795
20
-8.4177903
11
4.3475788
21
-8.4444874
0
LINE
8
layer0
10
4.3475788
20
-8.4444874
11
4.3415856
21
-8.4751869
0
LINE
8
layer0
10
4.3415856
20
-8.4751869
11
4.3388696
21
-8.5098026
0
LINE
8
layer0
10
4.3388696
20
-8.5098026
11
4.3395875
21
-8.548186
0
LINE
8
layer0
10
4.3395875
20
-8.548186
11
4.3438889
21
-8.5902163
0
LINE
8
layer0
10
4.3438889
20
-8.5902163
11
4.3519357
21
-8.6357538
0
LINE
8
layer0
10
4.3519357
20
-8.6357538
11
4.3798323
21
-8.736792
0
LINE
8
layer0
10
4.3798323
20
-8.736792
11
4.4477791
21
-8.9142194
0
LINE
8
layer0
10
4.4477791
20
-8.9142194
11
4.4892842
21
-9.0591083
0
LINE
8
layer0
10
4.4892842
20
-9.0591083
11
4.5111129
21
-9.1573567
0
LINE
8
layer0
10
4.5111129
20
-9.1573567
11
4.5321186
21
-9.2749597
0
LINE
8
layer0
10
4.5321186
20
-9.2749597
11
4.5504345
21
-9.4102237
0
LINE
8
layer0
10
4.5504345
20
-9.4102237
11
4.5645278
21
-9.5615741
0
LINE
8
layer0
10
4.5645278
20
-9.5615741
11
4.573244
21
-9.732091
0
LINE
8
layer0
10
4.573244
20
-9.732091
11
4.5749658
21
-9.9196133
0
LINE
8
layer0
10
4.5749658
20
-9.9196133
11
4.568322
21
-10.1236857
0
LINE
8
layer0
10
4.568322
20
-10.1236857
11
4.5517674
21
-10.3458123
0
LINE
8
layer0
10
4.5517674
20
-10.3458123
11
4.5254378
21
-10.5721363
0
ARC
8
layer0
10
-0.0000055
20
0.0000141
40
11.5
50
289.6836397
51
293.1735032
0
LINE
8
layer0
10
3.8734983
20
-10.8280037
11
3.7002579
21
-10.6800052
0
LINE
8
layer0
10
3.7002579
20
-10.6800052
11
3.5370381
21
-10.5284348
0
LINE
8
layer0
10
3.5370381
20
-10.5284348
11
3.3933632
21
-10.3833581
0
LINE
8
layer0
10
3.3933632
20
-10.3833581
11
3.2670779
21
-10.2447234
0
LINE
8
layer0
10
3.2670779
20
-10.2447234
11
3.1574864
21
-10.1137972
0
LINE
8
layer0
10
3.1574864
20
-10.1137972
11
3.0648731
21
-9.9932636
0
LINE
8
layer0
10
3.0648731
20
-9.9932636
11
2.9862967
21
-9.8816501
0
LINE
8
layer0
10
2.9862967
20
-9.8816501
11
2.9217046
21
-9.7811535
0
LINE
8
layer0
10
2.9217046
20
-9.7811535
11
2.8708803
21
-9.694285
0
LINE
8
layer0
10
2.8708803
20
-9.694285
11
2.8027562
21
-9.5598433
0
LINE
8
layer0
10
2.8027562
20
-9.5598433
11
2.7318835
21
-9.3835643
0
LINE
8
layer0
10
2.7318835
20
-9.3835643
11
2.6836097
21
-9.2905235
0
LINE
8
layer0
10
2.6836097
20
-9.2905235
11
2.658535
21
-9.251669
0
LINE
8
layer0
10
2.658535
20
-9.251669
11
2.6331004
21
-9.2179329
0
LINE
8
layer0
10
2.6331004
20
-9.2179329
11
2.6075192
21
-9.1893075
0
LINE
8
layer0
10
2.6075192
20
-9.1893075
11
2.5819836
21
-9.1657798
0
LINE
8
layer0
10
2.5819836
20
-9.1657798
11
2.5567093
21
-9.1473519
0
LINE
8
layer0
10
2.5567093
20
-9.1473519
11
2.5318794
21
-9.1339716
0
LINE
8
layer0
10
2.5318794
20
-9.1339716
11
2.5077194
21
-9.1256387
0
LINE
8
layer0
10
2.5077194
20
-9.1256387
11
2.4844102
21
-9.1222916
0
LINE
8
layer0
10
2.4844102
20
-9.1222916
11
2.4621512
21
-9.1239052
0
LINE
8
layer0
10
2.4621512
20
-9.1239052
11
2.4156809
21
-9.1360605
0
LINE
8
layer0
10
2.4156809
20
-9.1360605
11
2.1028228
21
-9.2130688
0
LINE
8
layer0
10
2.1028228
20
-9.2130688
11
1.7875348
21
-9.2794308
0
LINE
8
layer0
10
1.7875348
20
-9.2794308
11
1.7403925
21
-9.2886419
0
LINE
8
layer0
10
1.7403925
20
-9.2886419
11
1.7196378
21
-9.2968459
0
LINE
8
layer0
10
1.7196378
20
-9.2968459
11
1.7000891
21
-9.3099751
0
LINE
8
layer0
10
1.7000891
20
-9.3099751
11
1.6819372
21
-9.3279653
0
LINE
8
layer0
10
1.6819372
20
-9.3279653
11
1.6653717
21
-9.3507939
0
LINE
8
layer0
10
1.6653717
20
-9.3507939
11
1.650596
21
-9.378363
0
LINE
8
layer0
10
1.650596
20
-9.378363
11
1.6377974
21
-9.4106402
0
LINE
8
layer0
10
1.6377974
20
-9.4106402
11
1.6271697
21
-9.44753
0
LINE
8
layer0
10
1.6271697
20
-9.44753
11
1.6188914
21
-9.4889608
0
LINE
8
layer0
10
1.6188914
20
-9.4889608
11
1.6131583
21
-9.534847
0
LINE
8
layer0
10
1.6131583
20
-9.534847
11
1.610034
21
-9.6396191
0
LINE
8
layer0
10
1.610034
20
-9.6396191
11
1.6226645
21
-9.8291915
0
LINE
8
layer0
10
1.6226645
20
-9.8291915
11
1.6196188
21
-9.9798773
0
LINE
8
layer0
10
1.6196188
20
-9.9798773
11
1.6115185
21
-10.0801949
0
LINE
8
layer0
10
1.6115185
20
-10.0801949
11
1.5969269
21
-10.1987647
0
LINE
8
layer0
10
1.5969269
20
-10.1987647
11
1.5745593
21
-10.333418
0
LINE
8
layer0
10
1.5745593
20
-10.333418
11
1.5434152
21
-10.4821984
0
LINE
8
layer0
10
1.5434152
20
-10.4821984
11
1.5014834
21
-10.6477088
0
LINE
8
layer0
10
1.5014834
20
-10.6477088
11
1.4478556
21
-10.8274075
0
LINE
8
layer0
10
1.4478556
20
-10.8274075
11
1.3813555
21
-11.0204553
0
LINE
8
layer0
10
1.3813555
20
-11.0204553
11
1.3000634
21
-11.2278339
0
LINE
8
layer0
10
1.3000634
20
-11.2278339
11
1.2081934
21
-11.4363421
0
ARC
8
layer0
10
-0.0000013
20
0.0000151
40
11.5
50
272.5407835
51
276.030647
0
LINE
8
layer0
10
0.5097995
20
-11.4886795
11
0.3878791
21
-11.2961927
0
LINE
8
layer0
10
0.3878791
20
-11.2961927
11
0.2765868
21
-11.1032463
0
LINE
8
layer0
10
0.2765868
20
-11.1032463
11
0.1820571
21
-10.922266
0
LINE
8
layer0
10
0.1820571
20
-10.922266
11
0.1022455
21
-10.7525672
0
LINE
8
layer0
10
0.1022455
20
-10.7525672
11
0.0361141
21
-10.595155
0
LINE
8
layer0
10
0.0361141
20
-10.595155
11
-0.0168567
21
-10.4526781
0
LINE
8
layer0
10
-0.0168567
20
-10.4526781
11
-0.0590436
21
-10.3228625
0
LINE
8
layer0
10
-0.0590436
20
-10.3228625
11
-0.0911441
21
-10.2077918
0
LINE
8
layer0
10
-0.0911441
20
-10.2077918
11
-0.1141055
21
-10.1098019
0
LINE
8
layer0
10
-0.1141055
20
-10.1098019
11
-0.1395757
21
-9.9612532
0
LINE
8
layer0
10
-0.1395757
20
-9.9612532
11
-0.1553405
21
-9.7719156
0
LINE
8
layer0
10
-0.1553405
20
-9.7719156
11
-0.1740455
21
-9.6687794
0
LINE
8
layer0
10
-0.1740455
20
-9.6687794
11
-0.1865535
21
-9.6242602
0
LINE
8
layer0
10
-0.1865535
20
-9.6242602
11
-0.2009143
21
-9.5845259
0
LINE
8
layer0
10
-0.2009143
20
-9.5845259
11
-0.2169215
21
-9.5496321
0
LINE
8
layer0
10
-0.2169215
20
-9.5496321
11
-0.2343877
21
-9.519623
0
LINE
8
layer0
10
-0.2343877
20
-9.519623
11
-0.2531074
21
-9.494564
0
LINE
8
layer0
10
-0.2531074
20
-9.494564
11
-0.2728903
21
-9.4744594
0
LINE
8
layer0
10
-0.2728903
20
-9.4744594
11
-0.2935208
21
-9.4593755
0
LINE
8
layer0
10
-0.2935208
20
-9.4593755
11
-0.3148078
21
-9.4493066
0
LINE
8
layer0
10
-0.3148078
20
-9.4493066
11
-0.3365536
21
-9.4442875
0
LINE
8
layer0
10
-0.3365536
20
-9.4442875
11
-0.3845422
21
-9.4422055
0
LINE
8
layer0
10
-0.3845422
20
-9.4422055
11
-0.7061994
21
-9.4235759
0
LINE
8
layer0
10
-0.7061994
20
-9.4235759
11
-1.0270406
21
-9.3940569
0
LINE
8
layer0
10
-1.0270406
20
-9.3940569
11
-1.0748035
21
-9.3889633
0
LINE
8
layer0
10
-1.0748035
20
-9.3889633
11
-1.0970544
21
-9.3906853
0
LINE
8
layer0
10
-1.0970544
20
-9.3906853
11
-1.1196044
21
-9.3974691
0
LINE
8
layer0
10
-1.1196044
20
-9.3974691
11
-1.1422526
21
-9.4093097
0
LINE
8
layer0
10
-1.1422526
20
-9.4093097
11
-1.1648109
21
-9.4262413
0
LINE
8
layer0
10
-1.1648109
20
-9.4262413
11
-1.1870564
21
-9.4482303
0
LINE
8
layer0
10
-1.1870564
20
-9.4482303
11
-1.2088002
21
-9.4753011
0
LINE
8
layer0
10
-1.2088002
20
-9.4753011
11
-1.2298292
21
-9.5074194
0
LINE
8
layer0
10
-1.2298292
20
-9.5074194
11
-1.2499517
21
-9.5445695
0
LINE
8
layer0
10
-1.2499517
20
-9.5445695
11
-1.2689553
21
-9.5867273
0
LINE
8
layer0
10
-1.2689553
20
-9.5867273
11
-1.3028229
21
-9.6859237
0
LINE
8
layer0
10
-1.3028229
20
-9.6859237
11
-1.346631
21
-9.8707969
0
LINE
8
layer0
10
-1.346631
20
-9.8707969
11
-1.3939567
21
-10.0138904
0
LINE
8
layer0
10
-1.3939567
20
-10.0138904
11
-1.4312663
21
-10.1073636
0
LINE
8
layer0
10
-1.4312663
20
-10.1073636
11
-1.4801587
21
-10.2163646
0
LINE
8
layer0
10
-1.4801587
20
-10.2163646
11
-1.5412224
21
-10.3384427
0
LINE
8
layer0
10
-1.5412224
20
-10.3384427
11
-1.6148366
21
-10.4714334
0
LINE
8
layer0
10
-1.6148366
20
-10.4714334
11
-1.7036905
21
-10.617231
0
LINE
8
layer0
10
-1.7036905
20
-10.617231
11
-1.807903
21
-10.7731391
0
LINE
8
layer0
10
-1.807903
20
-10.7731391
11
-1.9283505
21
-10.9380091
0
LINE
8
layer0
10
-1.9283505
20
-10.9380091
11
-2.0671569
21
-11.1122132
0
LINE
8
layer0
10
-2.0671569
20
-11.1122132
11
-2.2164043
21
-11.2843788
0
ARC
8
layer0
10
0.000003
20
0.0000148
40
11.5
50
255.3979273
51
258.8877906
0
LINE
8
layer0
10
-2.8991972
20
-11.1285358
11
-2.9589646
21
-10.9086639
0
LINE
8
layer0
10
-2.9589646
20
-10.9086639
11
-3.0084405
21
-10.6914856
0
LINE
8
layer0
10
-3.0084405
20
-10.6914856
11
-3.0454256
21
-10.4906827
0
LINE
8
layer0
10
-3.0454256
20
-10.4906827
11
-3.0716717
21
-10.3049982
0
LINE
8
layer0
10
-3.0716717
20
-10.3049982
11
-3.0884672
21
-10.1350868
0
LINE
8
layer0
10
-3.0884672
20
-10.1350868
11
-3.0970888
21
-9.9833263
0
LINE
8
layer0
10
-3.0970888
20
-9.9833263
11
-3.0991376
21
-9.8468433
0
LINE
8
layer0
10
-3.0991376
20
-9.8468433
11
-3.0958943
21
-9.7274231
0
LINE
8
layer0
10
-3.0958943
20
-9.7274231
11
-3.0889526
21
-9.6270186
0
LINE
8
layer0
10
-3.0889526
20
-9.6270186
11
-3.0695056
21
-9.477562
0
LINE
8
layer0
10
-3.0695056
20
-9.477562
11
-3.0287619
21
-9.2919894
0
LINE
8
layer0
10
-3.0287619
20
-9.2919894
11
-3.0162359
21
-9.1879219
0
LINE
8
layer0
10
-3.0162359
20
-9.1879219
11
-3.015066
21
-9.1416937
0
LINE
8
layer0
10
-3.015066
20
-9.1416937
11
-3.0170769
21
-9.0994918
0
LINE
8
layer0
10
-3.0170769
20
-9.0994918
11
-3.0220877
21
-9.0614301
0
LINE
8
layer0
10
-3.0220877
20
-9.0614301
11
-3.0299327
21
-9.0276059
0
LINE
8
layer0
10
-3.0299327
20
-9.0276059
11
-3.0404344
21
-8.9981424
0
LINE
8
layer0
10
-3.0404344
20
-8.9981424
11
-3.0534125
21
-8.9730999
0
LINE
8
layer0
10
-3.0534125
20
-8.9730999
11
-3.0686803
21
-8.9526052
0
LINE
8
layer0
10
-3.0686803
20
-8.9526052
11
-3.0860538
21
-8.9367091
0
LINE
8
layer0
10
-3.0860538
20
-8.9367091
11
-3.105354
21
-8.9255034
0
LINE
8
layer0
10
-3.105354
20
-8.9255034
11
-3.1505969
21
-8.909369
0
LINE
8
layer0
10
-3.1505969
20
-8.909369
11
-3.4524727
21
-8.7967569
0
LINE
8
layer0
10
-3.4524727
20
-8.7967569
11
-3.7503589
21
-8.6739797
0
LINE
8
layer0
10
-3.7503589
20
-8.6739797
11
-3.7944985
21
-8.6550341
0
LINE
8
layer0
10
-3.7944985
20
-8.6550341
11
-3.8162684
21
-8.650121
0
LINE
8
layer0
10
-3.8162684
20
-8.650121
11
-3.8398161
21
-8.6499567
0
LINE
8
layer0
10
-3.8398161
20
-8.6499567
11
-3.8649482
21
-8.6545956
0
LINE
8
layer0
10
-3.8649482
20
-8.6545956
11
-3.891495
21
-8.6641257
0
LINE
8
layer0
10
-3.891495
20
-8.6641257
11
-3.9192336
21
-8.678581
0
LINE
8
layer0
10
-3.9192336
20
-8.678581
11
-3.9479906
21
-8.69804
0
LINE
8
layer0
10
-3.9479906
20
-8.69804
11
-3.9775524
21
-8.7225329
0
LINE
8
layer0
10
-3.9775524
20
-8.7225329
11
-4.0077311
21
-8.7521014
0
LINE
8
layer0
10
-4.0077311
20
-8.7521014
11
-4.0383166
21
-8.7867848
0
LINE
8
layer0
10
-4.0383166
20
-8.7867848
11
-4.0999183
21
-8.8715915
0
LINE
8
layer0
10
-4.0999183
20
-8.8715915
11
-4.1962724
21
-9.0353386
0
LINE
8
layer0
10
-4.1962724
20
-9.0353386
11
-4.2836732
21
-9.1581253
0
LINE
8
layer0
10
-4.2836732
20
-9.1581253
11
-4.3468769
21
-9.2364486
0
LINE
8
layer0
10
-4.3468769
20
-9.2364486
11
-4.4257257
21
-9.3261958
0
LINE
8
layer0
10
-4.4257257
20
-9.3261958
11
-4.5200597
21
-9.4248514
0
LINE
8
layer0
10
-4.5200597
20
-9.4248514
11
-4.6296031
21
-9.5302355
0
LINE
8
layer0
10
-4.6296031
20
-9.5302355
11
-4.7574841
21
-9.6433656
0
LINE
8
layer0
10
-4.7574841
20
-9.6433656
11
-4.9030214
21
-9.76163
0
LINE
8
layer0
10
-4.9030214
20
-9.76163
11
-5.0667141
21
-9.8836727
0
LINE
8
layer0
10
-5.0667141
20
-9.8836727
11
-5.2507013
21
-10.0092235
0
LINE
8
layer0
10
-5.2507013
20
-10.0092235
11
-5.4440647
21
-10.1297489
0
ARC
8
layer0
10
0.0000075
20
0.0000131
40
11.5
50
238.2550687
51
241.7449321
0
LINE
8
layer0
10
-6.0505875
20
-9.7795728
11
-6.0428912
21
-9.5518524
0
LINE
8
layer0
10
-6.0428912
20
-9.5518524
11
-6.0261546
21
-9.3297395
0
LINE
8
layer0
10
-6.0261546
20
-9.3297395
11
-6.0023089
21
-9.1269561
0
LINE
8
layer0
10
-6.0023089
20
-9.1269561
11
-5.9726575
21
-8.9417849
0
LINE
8
layer0
10
-5.9726575
20
-8.9417849
11
-5.9386245
21
-8.7744717
0
LINE
8
layer0
10
-5.9386245
20
-8.7744717
11
-5.9021309
21
-8.6269122
0
LINE
8
layer0
10
-5.9021309
20
-8.6269122
11
-5.8638596
21
-8.4958888
0
LINE
8
layer0
10
-5.8638596
20
-8.4958888
11
-5.8255607
21
-8.3827301
0
LINE
8
layer0
10
-5.8255607
20
-8.3827301
11
-5.7893326
21
-8.2888324
0
LINE
8
layer0
10
-5.7893326
20
-8.2888324
11
-5.7266965
21
-8.1517478
0
LINE
8
layer0
10
-5.7266965
20
-8.1517478
11
-5.6330645
21
-7.9864292
0
LINE
8
layer0
10
-5.6330645
20
-7.9864292
11
-5.5904205
21
-7.8906772
0
LINE
8
layer0
10
-5.5904205
20
-7.8906772
11
-5.5756766
21
-7.8468476
0
LINE
8
layer0
10
-5.5756766
20
-7.8468476
11
-5.5651589
21
-7.8059279
0
LINE
8
layer0
10
-5.5651589
20
-7.8059279
11
-5.5587283
21
-7.7680802
0
LINE
8
layer0
10
-5.5587283
20
-7.7680802
11
-5.5562548
21
-7.7334463
0
LINE
8
layer0
10
-5.5562548
20
-7.7334463
11
-5.5576055
21
-7.7021964
0
LINE
8
layer0
10
-5.5576055
20
-7.7021964
11
-5.5626256
21
-7.6744411
0
LINE
8
layer0
10
-5.5626256
20
-7.6744411
11
-5.5711742
21
-7.6503567
0
LINE
8
layer0
10
-5.5711742
20
-7.6503567
11
-5.5830904
21
-7.6300459
0
LINE
8
layer0
10
-5.5830904
20
-7.6300459
11
-5.5982302
21
-7.6136491
0
LINE
8
layer0
10
-5.5982302
20
-7.6136491
11
-5.6367074
21
-7.5848959
0
LINE
8
layer0
10
-5.6367074
20
-7.5848959
11
-5.8919786
21
-7.3883075
0
LINE
8
layer0
10
-5.8919786
20
-7.3883075
11
-6.1404414
21
-7.1831815
0
LINE
8
layer0
10
-6.1404414
20
-7.1831815
11
-6.1770356
21
-7.1520672
0
LINE
8
layer0
10
-6.1770356
20
-7.1520672
11
-6.1963902
21
-7.1409556
0
LINE
8
layer0
10
-6.1963902
20
-7.1409556
11
-6.2188434
21
-7.1338577
0
LINE
8
layer0
10
-6.2188434
20
-7.1338577
11
-6.2442262
21
-7.1308827
0
LINE
8
layer0
10
-6.2442262
20
-7.1308827
11
-6.2724027
21
-7.1321647
0
LINE
8
layer0
10
-6.2724027
20
-7.1321647
11
-6.3031697
21
-7.1378016
0
LINE
8
layer0
10
-6.3031697
20
-7.1378016
11
-6.3363848
21
-7.1479198
0
LINE
8
layer0
10
-6.3363848
20
-7.1479198
11
-6.3718526
21
-7.1626111
0
LINE
8
layer0
10
-6.3718526
20
-7.1626111
11
-6.409406
21
-7.1819706
0
LINE
8
layer0
10
-6.409406
20
-7.1819706
11
-6.4488558
21
-7.2060978
0
LINE
8
layer0
10
-6.4488558
20
-7.2060978
11
-6.5327179
21
-7.2689795
0
LINE
8
layer0
10
-6.5327179
20
-7.2689795
11
-6.6730566
21
-7.3970509
0
LINE
8
layer0
10
-6.6730566
20
-7.3970509
11
-6.7927664
21
-7.4886207
0
LINE
8
layer0
10
-6.7927664
20
-7.4886207
11
-6.8762484
21
-7.5448347
0
LINE
8
layer0
10
-6.8762484
20
-7.5448347
11
-6.9780476
21
-7.6073535
0
LINE
8
layer0
10
-6.9780476
20
-7.6073535
11
-7.0972698
21
-7.6738207
0
LINE
8
layer0
10
-7.0972698
20
-7.6738207
11
-7.2330091
21
-7.7422344
0
LINE
8
layer0
10
-7.2330091
20
-7.7422344
11
-7.3885543
21
-7.8126449
0
LINE
8
layer0
10
-7.3885543
20
-7.8126449
11
-7.5624849
21
-7.8827573
0
LINE
8
layer0
10
-7.5624849
20
-7.8827573
11
-7.7548779
21
-7.9511287
0
LINE
8
layer0
10
-7.7548779
20
-7.9511287
11
-7.9676978
21
-8.0168704
0
LINE
8
layer0
10
-7.9676978
20
-8.0168704
11
-8.1879961
21
-8.0750463
0
ARC
8
layer0
10
0.0000109
20
0.0000104
40
11.5
50
221.112212
51
224.6020755
0
LINE
8
layer0
10
-8.6643566
20
-7.5616518
11
-8.5898804
21
-7.346317
0
LINE
8
layer0
10
-8.5898804
20
-7.346317
11
-8.5084185
21
-7.1390051
0
LINE
8
layer0
10
-8.5084185
20
-7.1390051
11
-8.4258607
21
-6.9522595
0
LINE
8
layer0
10
-8.4258607
20
-6.9522595
11
-8.3429465
21
-6.7840548
0
LINE
8
layer0
10
-8.3429465
20
-6.7840548
11
-8.261109
21
-6.6342062
0
LINE
8
layer0
10
-8.261109
20
-6.6342062
11
-8.1827428
21
-6.5039591
0
LINE
8
layer0
10
-8.1827428
20
-6.5039591
11
-8.1075519
21
-6.3900374
0
LINE
8
layer0
10
-8.1075519
20
-6.3900374
11
-8.0376004
21
-6.2931948
0
LINE
8
layer0
10
-8.0376004
20
-6.2931948
11
-7.9753051
21
-6.2141471
0
LINE
8
layer0
10
-7.9753051
20
-6.2141471
11
-7.8750453
21
-6.1016151
0
LINE
8
layer0
10
-7.8750453
20
-6.1016151
11
-7.7368445
21
-5.9712396
0
LINE
8
layer0
10
-7.7368445
20
-5.9712396
11
-7.6678717
21
-5.8923112
0
LINE
8
layer0
10
-7.6678717
20
-5.8923112
11
-7.6408638
21
-5.8547747
0
LINE
8
layer0
10
-7.6408638
20
-5.8547747
11
-7.6187521
21
-5.818773
0
LINE
8
layer0
10
-7.6187521
20
-5.818773
11
-7.6014514
21
-5.7845022
0
LINE
8
layer0
10
-7.6014514
20
-5.7845022
11
-7.5888793
21
-5.7521362
0
LINE
8
layer0
10
-7.5888793
20
-5.7521362
11
-7.5809589
21
-5.7218765
0
LINE
8
layer0
10
-7.5809589
20
-5.7218765
11
-7.5775749
21
-5.6938746
0
LINE
8
layer0
10
-7.5775749
20
-5.6938746
11
-7.5786448
21
-5.6683404
0
LINE
8
layer0
10
-7.5786448
20
-5.6683404
11
-7.5840448
21
-5.6454196
0
LINE
8
layer0
10
-7.5840448
20
-5.6454196
11
-7.593679
21
-5.6252888
0
LINE
8
layer0
10
-7.593679
20
-5.6252888
11
-7.6219716
21
-5.5864716
0
LINE
8
layer0
10
-7.6219716
20
-5.5864716
11
-7.8079564
21
-5.3233745
0
LINE
8
layer0
10
-7.8079564
20
-5.3233745
11
-7.9849187
21
-5.054126
0
LINE
8
layer0
10
-7.9849187
20
-5.054126
11
-8.0107161
21
-5.0136077
0
LINE
8
layer0
10
-8.0107161
20
-5.0136077
11
-8.0259356
21
-4.9972849
0
LINE
8
layer0
10
-8.0259356
20
-4.9972849
11
-8.0452991
21
-4.9838842
0
LINE
8
layer0
10
-8.0452991
20
-4.9838842
11
-8.0686774
21
-4.9735596
0
LINE
8
layer0
10
-8.0686774
20
-4.9735596
11
-8.0959799
21
-4.9664794
0
LINE
8
layer0
10
-8.0959799
20
-4.9664794
11
-8.1270415
21
-4.9627972
0
LINE
8
layer0
10
-8.1270415
20
-4.9627972
11
-8.1617633
21
-4.9626756
0
LINE
8
layer0
10
-8.1617633
20
-4.9626756
11
-8.1999858
21
-4.9662599
0
LINE
8
layer0
10
-8.1999858
20
-4.9662599
11
-8.2415771
21
-4.9736902
0
LINE
8
layer0
10
-8.2415771
20
-4.9736902
11
-8.2863859
21
-4.9851175
0
LINE
8
layer0
10
-8.2863859
20
-4.9851175
11
-8.3850569
21
-5.0204867
0
LINE
8
layer0
10
-8.3850569
20
-5.0204867
11
-8.5569105
21
-5.1015027
0
LINE
8
layer0
10
-8.5569105
20
-5.1015027
11
-8.6982926
21
-5.1537192
0
LINE
8
layer0
10
-8.6982926
20
-5.1537192
11
-8.794635
21
-5.182829
0
LINE
8
layer0
10
-8.794635
20
-5.182829
11
-8.9103394
21
-5.2125645
0
LINE
8
layer0
10
-8.9103394
20
-5.2125645
11
-9.0438564
21
-5.2409374
0
LINE
8
layer0
10
-9.0438564
20
-5.2409374
11
-9.1937304
21
-5.2663018
0
LINE
8
layer0
10
-9.1937304
20
-5.2663018
11
-9.3631191
21
-5.2877363
0
LINE
8
layer0
10
-9.3631191
20
-5.2877363
11
-9.5499884
21
-5.3034669
0
LINE
8
layer0
10
-9.5499884
20
-5.3034669
11
-9.7539867
21
-5.312092
0
LINE
8
layer0
10
-9.7539867
20
-5.312092
11
-9.9767294
21
-5.3121832
0
LINE
8
layer0
10
-9.9767294
20
-5.3121832
11
-10.2043881
21
-5.3028405
0
ARC
8
layer0
10
0.000014
20
0.0000057
40
11.5
50
203.9693493
51
207.4592129
0
LINE
8
layer0
10
-10.5082595
20
-4.6718449
11
-10.3736211
21
-4.488029
0
LINE
8
layer0
10
-10.3736211
20
-4.488029
11
-10.234672
21
-4.3139387
0
LINE
8
layer0
10
-10.234672
20
-4.3139387
11
-10.1007378
21
-4.159824
0
LINE
8
layer0
10
-10.1007378
20
-4.159824
11
-9.971928
21
-4.0235316
0
LINE
8
layer0
10
-9.971928
20
-4.0235316
11
-9.8495577
21
-3.9044624
0
LINE
8
layer0
10
-9.8495577
20
-3.9044624
11
-9.7362821
21
-3.8031006
0
LINE
8
layer0
10
-9.7362821
20
-3.8031006
11
-9.6308527
21
-3.716403
0
LINE
8
layer0
10
-9.6308527
20
-3.716403
11
-9.5354641
21
-3.6444815
0
LINE
8
layer0
10
-9.5354641
20
-3.6444815
11
-9.4526367
21
-3.5873076
0
LINE
8
layer0
10
-9.4526367
20
-3.5873076
11
-9.3236618
21
-3.5093271
0
LINE
8
layer0
10
-9.3236618
20
-3.5093271
11
-9.153172
21
-3.4254792
0
LINE
8
layer0
10
-9.153172
20
-3.4254792
11
-9.0639989
21
-3.3703874
0
LINE
8
layer0
10
-9.0639989
20
-3.3703874
11
-9.0271268
21
-3.3424793
0
LINE
8
layer0
10
-9.0271268
20
-3.3424793
11
-8.9953858
21
-3.3145947
0
LINE
8
layer0
10
-8.9953858
20
-3.3145947
11
-8.9687522
21
-3.2869459
0
LINE
8
layer0
10
-8.9687522
20
-3.2869459
11
-8.9471986
21
-3.2597234
0
LINE
8
layer0
10
-8.9471986
20
-3.2597234
11
-8.9307109
21
-3.2331427
0
LINE
8
layer0
10
-8.9307109
20
-3.2331427
11
-8.9192236
21
-3.2073823
0
LINE
8
layer0
10
-8.9192236
20
-3.2073823
11
-8.9127195
21
-3.1826672
0
LINE
8
layer0
10
-8.9127195
20
-3.1826672
11
-8.9111236
21
-3.159173
0
LINE
8
layer0
10
-8.9111236
20
-3.159173
11
-8.9143961
21
-3.1370968
0
LINE
8
layer0
10
-8.9143961
20
-3.1370968
11
-8.9299902
21
-3.0916648
0
LINE
8
layer0
10
-8.9299902
20
-3.0916648
11
-9.030163
21
-2.7854364
0
LINE
8
layer0
10
-9.030163
20
-2.7854364
11
-9.119901
21
-2.4759893
0
LINE
8
layer0
10
-9.119901
20
-2.4759893
11
-9.1326092
21
-2.4296671
0
LINE
8
layer0
10
-9.1326092
20
-2.4296671
11
-9.1423414
21
-2.4095835
0
LINE
8
layer0
10
-9.1423414
20
-2.4095835
11
-9.1568947
21
-2.3910707
0
LINE
8
layer0
10
-9.1568947
20
-2.3910707
11
-9.1761911
21
-2.3743139
0
LINE
8
layer0
10
-9.1761911
20
-2.3743139
11
-9.2001938
21
-2.3595007
0
LINE
8
layer0
10
-9.2001938
20
-2.3595007
11
-9.22879
21
-2.3468265
0
LINE
8
layer0
10
-9.22879
20
-2.3468265
11
-9.2619334
21
-2.3364759
0
LINE
8
layer0
10
-9.2619334
20
-2.3364759
11
-9.2995142
21
-2.3286346
0
LINE
8
layer0
10
-9.2995142
20
-2.3286346
11
-9.3414479
21
-2.3234756
0
LINE
8
layer0
10
-9.3414479
20
-2.3234756
11
-9.3876342
21
-2.3211876
0
LINE
8
layer0
10
-9.3876342
20
-2.3211876
11
-9.4923468
21
-2.3259016
0
LINE
8
layer0
10
-9.4923468
20
-2.3259016
11
-9.6804453
21
-2.3526636
0
LINE
8
layer0
10
-9.6804453
20
-2.3526636
11
-9.8309372
21
-2.3608872
0
LINE
8
layer0
10
-9.8309372
20
-2.3608872
11
-9.9315797
21
-2.3603063
0
LINE
8
layer0
10
-9.9315797
20
-2.3603063
11
-10.0509083
21
-2.3546162
0
LINE
8
layer0
10
-10.0509083
20
-2.3546162
11
-10.1868567
21
-2.3423738
0
LINE
8
layer0
10
-10.1868567
20
-2.3423738
11
-10.3375485
21
-2.3224352
0
LINE
8
layer0
10
-10.3375485
20
-2.3224352
11
-10.5057296
21
-2.2929893
0
LINE
8
layer0
10
-10.5057296
20
-2.2929893
11
-10.6889335
21
-2.2529403
0
LINE
8
layer0
10
-10.6889335
20
-2.2529403
11
-10.8864111
21
-2.2010526
0
LINE
8
layer0
10
-10.8864111
20
-2.2010526
11
-11.0992848
21
-2.1354852
0
LINE
8
layer0
10
-11.0992848
20
-2.1354852
11
-11.3140754
21
-2.059454
0
ARC
8
layer0
10
0.0000149
20
0.0000024
40
11.5
50
186.8264977
51
190.3163613
0
LINE
8
layer0
10
-11.4184575
20
-1.3669241
11
-11.23562
21
-1.23096
0
LINE
8
layer0
10
-11.23562
20
-1.23096
11
-11.05153
21
-1.10556
0
LINE
8
layer0
10
-11.05153
20
-1.10556
11
-10.87812
21
-0.99777
0
LINE
8
layer0
10
-10.87812
20
-0.99777
11
-10.71486
21
-0.9055
0
LINE
8
layer0
10
-10.71486
20
-0.9055
11
-10.56283
21
-0.82779
0
LINE
8
layer0
10
-10.56283
20
-0.82779
11
-10.42471
21
-0.76432
0
LINE
8
layer0
10
-10.42471
20
-0.76432
11
-10.29841
21
-0.71255
0
LINE
8
layer0
10
-10.29841
20
-0.71255
11
-10.18606
21
-0.67194
0
LINE
8
layer0
10
-10.18606
20
-0.67194
11
-10.09006
21
-0.64172
0
LINE
8
layer0
10
-10.09006
20
-0.64172
11
-9.94383
21
-0.60522
0
LINE
8
layer0
10
-9.94383
20
-0.60522
11
-9.7562
21
-0.57535
0
LINE
8
layer0
10
-9.7562
20
-0.57535
11
-9.65475
21
-0.54899
0
LINE
8
layer0
10
-9.65475
20
-0.54899
11
-9.61129
21
-0.53319
0
LINE
8
layer0
10
-9.61129
20
-0.53319
11
-9.57274
21
-0.5159
0
LINE
8
layer0
10
-9.57274
20
-0.5159
11
-9.53914
21
-0.49733
0
LINE
8
layer0
10
-9.53914
20
-0.49733
11
-9.51052
21
-0.47767
0
LINE
8
layer0
10
-9.51052
20
-0.47767
11
-9.48693
21
-0.45713
0
LINE
8
layer0
10
-9.48693
20
-0.45713
11
-9.46836
21
-0.4359
0
LINE
8
layer0
10
-9.46836
20
-0.4359
11
-9.45486
21
-0.4142
0
LINE
8
layer0
10
-9.45486
20
-0.4142
11
-9.44641
21
-0.39222
0
LINE
8
layer0
10
-9.44641
20
-0.39222
11
-9.44303
21
-0.37016
0
LINE
8
layer0
10
-9.44303
20
-0.37016
11
-9.44454
21
-0.32215
0
LINE
8
layer0
10
-9.44454
20
-0.32215
11
-9.45
21
0
0
LINE
8
layer0
10
-9.45
20
0
11
-9.44454
21
0.32215
0
LINE
8
layer0
10
-9.44454
20
0.32215
11
-9.44303
21
0.37016
0
LINE
8
layer0
10
-9.44303
20
0.37016
11
-9.44641
21
0.39222
0
LINE
8
layer0
10
-9.44641
20
0.39222
11
-9.45486
21
0.4142
0
LINE
8
layer0
10
-9.45486
20
0.4142
11
-9.46836
21
0.4359
0
LINE
8
layer0
10
-9.46836
20
0.4359
11
-9.48693
21
0.45713
0
LINE
8
layer0
10
-9.48693
20
0.45713
11
-9.51052
21
0.47767
0
LINE
8
layer0
10
-9.51052
20
0.47767
11
-9.53914
21
0.49733
0
LINE
8
layer0
10
-9.53914
20
0.49733
11
-9.57274
21
0.5159
0
LINE
8
layer0
10
-9.57274
20
0.5159
11
-9.61129
21
0.53319
0
LINE
8
layer0
10
-9.61129
20
0.53319
11
-9.65475
21
0.54899
0
LINE
8
layer0
10
-9.65475
20
0.54899
11
-9.7562
21
0.57535
0
LINE
8
layer0
10
-9.7562
20
0.57535
11
-9.94383
21
0.60522
0
LINE
8
layer0
10
-9.94383
20
0.60522
11
-10.09006
21
0.64172
0
LINE
8
layer0
10
-10.09006
20
0.64172
11
-10.18606
21
0.67194
0
LINE
8
layer0
10
-10.18606
20
0.67194
11
-10.29841
21
0.71255
0
LINE
8
layer0
10
-10.29841
20
0.71255
11
-10.42471
21
0.76432
0
LINE
8
layer0
10
-10.42471
20
0.76432
11
-10.56283
21
0.82779
0
LINE
8
layer0
10
-10.56283
20
0.82779
11
-10.71486
21
0.9055
0
LINE
8
layer0
10
-10.71486
20
0.9055
11
-10.87812
21
0.99777
0
LINE
8
layer0
10
-10.87812
20
0.99777
11
-11.05153
21
1.10556
0
LINE
8
layer0
10
-11.05153
20
1.10556
11
-11.23562
21
1.23096
0
LINE
8
layer0
10
-11.23562
20
1.23096
11
-11.4184575
21
1.3669241
0
ARC
8
layer0
10
0.0000149
20
-0.0000024
40
11.5
50
169.6836387
51
173.1735023
0
LINE
8
layer0
10
-11.3140754
20
2.059454
11
-11.0992848
21
2.1354852
0
LINE
8
layer0
10
-11.0992848
20
2.1354852
11
-10.8864111
21
2.2010526
0
LINE
8
layer0
10
-10.8864111
20
2.2010526
11
-10.6889335
21
2.2529403
0
LINE
8
layer0
10
-10.6889335
20
2.2529403
11
-10.5057296
21
2.2929893
0
LINE
8
layer0
10
-10.5057296
20
2.2929893
11
-10.3375485
21
2.3224352
0
LINE
8
layer0
10
-10.3375485
20
2.3224352
11
-10.1868567
21
2.3423738
0
LINE
8
layer0
10
-10.1868567
20
2.3423738
11
-10.0509083
21
2.3546162
0
LINE
8
layer0
10
-10.0509083
20
2.3546162
11
-9.9315797
21
2.3603063
0
LINE
8
layer0
10
-9.9315797
20
2.3603063
11
-9.8309372
21
2.3608872
0
LINE
8
layer0
10
-9.8309372
20
2.3608872
11
-9.6804453
21
2.3526636
0
LINE
8
layer0
10
-9.6804453
20
2.3526636
11
-9.4923468
21
2.3259016
0
LINE
8
layer0
10
-9.4923468
20
2.3259016
11
-9.3876342
21
2.3211876
0
LINE
8
layer0
10
-9.3876342
20
2.3211876
11
-9.3414479
21
2.3234756
0
LINE
8
layer0
10
-9.3414479
20
2.3234756
11
-9.2995142
21
2.3286346
0
LINE
8
layer0
10
-9.2995142
20
2.3286346
11
-9.2619334
21
2.3364759
0
LINE
8
layer0
10
-9.2619334
20
2.3364759
11
-9.22879
21
2.3468265
0
LINE
8
layer0
10
-9.22879
20
2.3468265
11
-9.2001938
21
2.3595007
0
LINE
8
layer0
10
-9.2001938
20
2.3595007
11
-9.1761911
21
2.3743139
0
LINE
8
layer0
10
-9.1761911
20
2.3743139
11
-9.1568947
21
2.3910707
0
LINE
8
layer0
10
-9.1568947
20
2.3910707
11
-9.1423414
21
2.4095835
0
LINE
8
layer0
10
-9.1423414
20
2.4095835
11
-9.1326092
21
2.4296671
0
LINE
8
layer0
10
-9.1326092
20
2.4296671
11
-9.119901
21
2.4759893
0
LINE
8
layer0
10
-9.119901
20
2.4759893
11
-9.030163
21
2.7854364
0
LINE
8
layer0
10
-9.030163
20
2.7854364
11
-8.9299902
21
3.0916648
0
LINE
8
layer0
10
-8.9299902
20
3.0916648
11
-8.9143961
21
3.1370968
0
LINE
8
layer0
10
-8.9143961
20
3.1370968
11
-8.9111236
21
3.159173
0
LINE
8
layer0
10
-8.9111236
20
3.159173
11
-8.9127195
21
3.1826672
0
LINE
8
layer0
10
-8.9127195
20
3.1826672
11
-8.9192236
21
3.2073823
0
LINE
8
layer0
10
-8.9192236
20
3.2073823
11
-8.9307109
21
3.2331427
0
LINE
8
layer0
10
-8.9307109
20
3.2331427
11
-8.9471986
21
3.2597234
0
LINE
8
layer0
10
-8.9471986
20
3.2597234
11
-8.9687522
21
3.2869459
0
LINE
8
layer0
10
-8.9687522
20
3.2869459
11
-8.9953858
21
3.3145947
0
LINE
8
layer0
10
-8.9953858
20
3.3145947
11
-9.0271268
21
3.3424793
0
LINE
8
layer0
10
-9.0271268
20
3.3424793
11
-9.0639989
21
3.3703874
0
LINE
8
layer0
10
-9.0639989
20
3.3703874
11
-9.153172
21
3.4254792
0
LINE
8
layer0
10
-9.153172
20
3.4254792
11
-9.3236618
21
3.5093271
0
LINE
8
layer0
10
-9.3236618
20
3.5093271
11
-9.4526367
21
3.5873076
0
LINE
8
layer0
10
-9.4526367
20
3.5873076
11
-9.5354641
21
3.6444815
0
LINE
8
layer0
10
-9.5354641
20
3.6444815
11
-9.6308527
21
3.716403
0
LINE
8
layer0
10
-9.6308527
20
3.716403
11
-9.7362821
21
3.8031006
0
LINE
8
layer0
10
-9.7362821
20
3.8031006
11
-9.8495577
21
3.9044624
0
LINE
8
layer0
10
-9.8495577
20
3.9044624
11
-9.971928
21
4.0235316
0
LINE
8
layer0
10
-9.971928
20
4.0235316
11
-10.1007378
21
4.159824
0
LINE
8
layer0
10
-10.1007378
20
4.159824
11
-10.234672
21
4.3139387
0
LINE
8
layer0
10
-10.234672
20
4.3139387
11
-10.3736211
21
4.488029
0
LINE
8
layer0
10
-10.3736211
20
4.488029
11
-10.5082595
21
4.6718449
0
ARC
8
layer0
10
0.000014
20
-0.0000056
40
11.5
50
152.5407875
51
156.0306512
0
LINE
8
layer0
10
-10.2043881
20
5.3028405
11
-9.9767294
21
5.3121832
0
LINE
8
layer0
10
-9.9767294
20
5.3121832
11
-9.7539867
21
5.312092
0
LINE
8
layer0
10
-9.7539867
20
5.312092
11
-9.5499884
21
5.3034669
0
LINE
8
layer0
10
-9.5499884
20
5.3034669
11
-9.3631191
21
5.2877363
0
LINE
8
layer0
10
-9.3631191
20
5.2877363
11
-9.1937304
21
5.2663018
0
LINE
8
layer0
10
-9.1937304
20
5.2663018
11
-9.0438564
21
5.2409374
0
LINE
8
layer0
10
-9.0438564
20
5.2409374
11
-8.9103394
21
5.2125645
0
LINE
8
layer0
10
-8.9103394
20
5.2125645
11
-8.794635
21
5.182829
0
LINE
8
layer0
10
-8.794635
20
5.182829
11
-8.6982926
21
5.1537192
0
LINE
8
layer0
10
-8.6982926
20
5.1537192
11
-8.5569105
21
5.1015027
0
LINE
8
layer0
10
-8.5569105
20
5.1015027
11
-8.3850569
21
5.0204867
0
LINE
8
layer0
10
-8.3850569
20
5.0204867
11
-8.2863859
21
4.9851175
0
LINE
8
layer0
10
-8.2863859
20
4.9851175
11
-8.2415771
21
4.9736902
0
LINE
8
layer0
10
-8.2415771
20
4.9736902
11
-8.1999858
21
4.9662599
0
LINE
8
layer0
10
-8.1999858
20
4.9662599
11
-8.1617633
21
4.9626756
0
LINE
8
layer0
10
-8.1617633
20
4.9626756
11
-8.1270415
21
4.9627972
0
LINE
8
layer0
10
-8.1270415
20
4.9627972
11
-8.0959799
21
4.9664794
0
LINE
8
layer0
10
-8.0959799
20
4.9664794
11
-8.0686774
21
4.9735596
0
LINE
8
layer0
10
-8.0686774
20
4.9735596
11
-8.0452991
21
4.9838842
0
LINE
8
layer0
10
-8.0452991
20
4.9838842
11
-8.0259356
21
4.9972849
0
LINE
8
layer0
10
-8.0259356
20
4.9972849
11
-8.0107161
21
5.0136077
0
LINE
8
layer0
10
-8.0107161
20
5.0136077
11
-7.9849187
21
5.054126
0
LINE
8
layer0
10
-7.9849187
20
5.054126
11
-7.8079564
21
5.3233745
0
LINE
8
layer0
10
-7.8079564
20
5.3233745
11
-7.6219716
21
5.5864716
0
LINE
8
layer0
10
-7.6219716
20
5.5864716
11
-7.593679
21
5.6252888
0
LINE
8
layer0
10
-7.593679
20
5.6252888
11
-7.5840448
21
5.6454196
0
LINE
8
layer0
10
-7.5840448
20
5.6454196
11
-7.5786448
21
5.6683404
0
LINE
8
layer0
10
-7.5786448
20
5.6683404
11
-7.5775749
21
5.6938746
0
LINE
8
layer0
10
-7.5775749
20
5.6938746
11
-7.5809589
21
5.7218765
0
LINE
8
layer0
10
-7.5809589
20
5.7218765
11
-7.5888793
21
5.7521362
0
LINE
8
layer0
10
-7.5888793
20
5.7521362
11
-7.6014514
21
5.7845022
0
LINE
8
layer0
10
-7.6014514
20
5.7845022
11
-7.6187521
21
5.818773
0
LINE
8
layer0
10
-7.6187521
20
5.818773
11
-7.6408638
21
5.8547747
0
LINE
8
layer0
10
-7.6408638
20
5.8547747
11
-7.6678717
21
5.8923112
0
LINE
8
layer0
10
-7.6678717
20
5.8923112
11
-7.7368445
21
5.9712396
0
LINE
8
layer0
10
-7.7368445
20
5.9712396
11
-7.8750453
21
6.1016151
0
LINE
8
layer0
10
-7.8750453
20
6.1016151
11
-7.9753051
21
6.2141471
0
LINE
8
layer0
10
-7.9753051
20
6.2141471
11
-8.0376004
21
6.2931948
0
LINE
8
layer0
10
-8.0376004
20
6.2931948
11
-8.1075519
21
6.3900374
0
LINE
8
layer0
10
-8.1075519
20
6.3900374
11
-8.1827428
21
6.5039591
0
LINE
8
layer0
10
-8.1827428
20
6.5039591
11
-8.261109
21
6.6342062
0
LINE
8
layer0
10
-8.261109
20
6.6342062
11
-8.3429465
21
6.7840548
0
LINE
8
layer0
10
-8.3429465
20
6.7840548
11
-8.4258607
21
6.9522595
0
LINE
8
layer0
10
-8.4258607
20
6.9522595
11
-8.5084185
21
7.1390051
0
LINE
8
layer0
10
-8.5084185
20
7.1390051
11
-8.5898804
21
7.346317
0
LINE
8
layer0
10
-8.5898804
20
7.346317
11
-8.6643566
21
7.5616518
0
ARC
8
layer0
10
0.0000109
20
-0.0000105
40
11.5
50
135.3979241
51
138.8877876
0
LINE
8
layer0
10
-8.1879961
20
8.0750463
11
-7.9676978
21
8.0168704
0
LINE
8
layer0
10
-7.9676978
20
8.0168704
11
-7.7548779
21
7.9511287
0
LINE
8
layer0
10
-7.7548779
20
7.9511287
11
-7.5624849
21
7.8827573
0
LINE
8
layer0
10
-7.5624849
20
7.8827573
11
-7.3885543
21
7.8126449
0
LINE
8
layer0
10
-7.3885543
20
7.8126449
11
-7.2330091
21
7.7422344
0
LINE
8
layer0
10
-7.2330091
20
7.7422344
11
-7.0972698
21
7.6738207
0
LINE
8
layer0
10
-7.0972698
20
7.6738207
11
-6.9780476
21
7.6073535
0
LINE
8
layer0
10
-6.9780476
20
7.6073535
11
-6.8762484
21
7.5448347
0
LINE
8
layer0
10
-6.8762484
20
7.5448347
11
-6.7927664
21
7.4886207
0
LINE
8
layer0
10
-6.7927664
20
7.4886207
11
-6.6730566
21
7.3970509
0
LINE
8
layer0
10
-6.6730566
20
7.3970509
11
-6.5327179
21
7.2689795
0
LINE
8
layer0
10
-6.5327179
20
7.2689795
11
-6.4488558
21
7.2060978
0
LINE
8
layer0
10
-6.4488558
20
7.2060978
11
-6.409406
21
7.1819706
0
LINE
8
layer0
10
-6.409406
20
7.1819706
11
-6.3718526
21
7.1626111
0
LINE
8
layer0
10
-6.3718526
20
7.1626111
11
-6.3363848
21
7.1479198
0
LINE
8
layer0
10
-6.3363848
20
7.1479198
11
-6.3031697
21
7.1378016
0
LINE
8
layer0
10
-6.3031697
20
7.1378016
11
-6.2724027
21
7.1321647
0
LINE
8
layer0
10
-6.2724027
20
7.1321647
11
-6.2442262
21
7.1308827
0
LINE
8
layer0
10
-6.2442262
20
7.1308827
11
-6.2188434
21
7.1338577
0
LINE
8
layer0
10
-6.2188434
20
7.1338577
11
-6.1963902
21
7.1409556
0
LINE
8
layer0
10
-6.1963902
20
7.1409556
11
-6.1770356
21
7.1520672
0
LINE
8
layer0
10
-6.1770356
20
7.1520672
11
-6.1404414
21
7.1831815
0
LINE
8
layer0
10
-6.1404414
20
7.1831815
11
-5.8919786
21
7.3883075
0
LINE
8
layer0
10
-5.8919786
20
7.3883075
11
-5.6367074
21
7.5848959
0
LINE
8
layer0
10
-5.6367074
20
7.5848959
11
-5.5982302
21
7.6136491
0
LINE
8
layer0
10
-5.5982302
20
7.6136491
11
-5.5830904
21
7.6300459
0
LINE
8
layer0
10
-5.5830904
20
7.6300459
11
-5.5711742
21
7.6503567
0
LINE
8
layer0
10
-5.5711742
20
7.6503567
11
-5.5626256
21
7.6744411
0
LINE
8
layer0
10
-5.5626256
20
7.6744411
11
-5.5576055
21
7.7021964
0
LINE
8
layer0
10
-5.5576055
20
7.7021964
11
-5.5562548
21
7.7334463
0
LINE
8
layer0
10
-5.5562548
20
7.7334463
11
-5.5587283
21
7.7680802
0
LINE
8
layer0
10
-5.5587283
20
7.7680802
11
-5.5651589
21
7.8059279
0
LINE
8
layer0
10
-5.5651589
20
7.8059279
11
-5.5756766
21
7.8468476
0
LINE
8
layer0
10
-5.5756766
20
7.8468476
11
-5.5904205
21
7.8906772
0
LINE
8
layer0
10
-5.5904205
20
7.8906772
11
-5.6330645
21
7.9864292
0
LINE
8
layer0
10
-5.6330645
20
7.9864292
11
-5.7266965
21
8.1517478
0
LINE
8
layer0
10
-5.7266965
20
8.1517478
11
-5.7893326
21
8.2888324
0
LINE
8
layer0
10
-5.7893326
20
8.2888324
11
-5.8255607
21
8.3827301
0
LINE
8
layer0
10
-5.8255607
20
8.3827301
11
-5.8638596
21
8.4958888
0
LINE
8
layer0
10
-5.8638596
20
8.4958888
11
-5.9021309
21
8.6269122
0
LINE
8
layer0
10
-5.9021309
20
8.6269122
11
-5.9386245
21
8.7744717
0
LINE
8
layer0
10
-5.9386245
20
8.7744717
11
-5.9726575
21
8.9417849
0
LINE
8
layer0
10
-5.9726575
20
8.9417849
11
-6.0023089
21
9.1269561
0
LINE
8
layer0
10
-6.0023089
20
9.1269561
11
-6.0261546
21
9.3297395
0
LINE
8
layer0
10
-6.0261546
20
9.3297395
11
-6.0428912
21
9.5518524
0
LINE
8
layer0
10
-6.0428912
20
9.5518524
11
-6.0505875
21
9.7795728
0
ARC
8
layer0
10
0.0000075
20
-0.0000131
40
11.5
50
118.2550679
51
121.7449313
0
LINE
8
layer0
10
-5.4440647
20
10.1297489
11
-5.2507013
21
10.0092235
0
LINE
8
layer0
10
-5.2507013
20
10.0092235
11
-5.0667141
21
9.8836727
0
LINE
8
layer0
10
-5.0667141
20
9.8836727
11
-4.9030214
21
9.76163
0
LINE
8
layer0
10
-4.9030214
20
9.76163
11
-4.7574841
21
9.6433656
0
LINE
8
layer0
10
-4.7574841
20
9.6433656
11
-4.6296031
21
9.5302355
0
LINE
8
layer0
10
-4.6296031
20
9.5302355
11
-4.5200597
21
9.4248514
0
LINE
8
layer0
10
-4.5200597
20
9.4248514
11
-4.4257257
21
9.3261958
0
LINE
8
layer0
10
-4.4257257
20
9.3261958
11
-4.3468769
21
9.2364486
0
LINE
8
layer0
10
-4.3468769
20
9.2364486
11
-4.2836732
21
9.1581253
0
LINE
8
layer0
10
-4.2836732
20
9.1581253
11
-4.1962724
21
9.0353386
0
LINE
8
layer0
10
-4.1962724
20
9.0353386
11
-4.0999183
21
8.8715915
0
LINE
8
layer0
10
-4.0999183
20
8.8715915
11
-4.0383166
21
8.7867848
0
LINE
8
layer0
10
-4.0383166
20
8.7867848
11
-4.0077311
21
8.7521014
0
LINE
8
layer0
10
-4.0077311
20
8.7521014
11
-3.9775524
21
8.7225329
0
LINE
8
layer0
10
-3.9775524
20
8.7225329
11
-3.9479906
21
8.69804
0
LINE
8
layer0
10
-3.9479906
20
8.69804
11
-3.9192336
21
8.678581
0
LINE
8
layer0
10
-3.9192336
20
8.678581
11
-3.891495
21
8.6641257
0
LINE
8
layer0
10
-3.891495
20
8.6641257
11
-3.8649482
21
8.6545956
0
LINE
8
layer0
10
-3.8649482
20
8.6545956
11
-3.8398161
21
8.6499567
0
LINE
8
layer0
10
-3.8398161
20
8.6499567
11
-3.8162684
21
8.650121
0
LINE
8
layer0
10
-3.8162684
20
8.650121
11
-3.7944985
21
8.6550341
0
LINE
8
layer0
10
-3.7944985
20
8.6550341
11
-3.7503589
21
8.6739797
0
LINE
8
layer0
10
-3.7503589
20
8.6739797
11
-3.4524727
21
8.7967569
0
LINE
8
layer0
10
-3.4524727
20
8.7967569
11
-3.1505969
21
8.909369
0
LINE
8
layer0
10
-3.1505969
20
8.909369
11
-3.105354
21
8.9255034
0
LINE
8
layer0
10
-3.105354
20
8.9255034
11
-3.0860538
21
8.9367091
0
LINE
8
layer0
10
-3.0860538
20
8.9367091
11
-3.0686803
21
8.9526052
0
LINE
8
layer0
10
-3.0686803
20
8.9526052
11
-3.0534125
21
8.9730999
0
LINE
8
layer0
10
-3.0534125
20
8.9730999
11
-3.0404344
21
8.9981424
0
LINE
8
layer0
10
-3.0404344
20
8.9981424
11
-3.0299327
21
9.0276059
0
LINE
8
layer0
10
-3.0299327
20
9.0276059
11
-3.0220877
21
9.0614301
0
LINE
8
layer0
10
-3.0220877
20
9.0614301
11
-3.0170769
21
9.0994918
0
LINE
8
layer0
10
-3.0170769
20
9.0994918
11
-3.015066
21
9.1416937
0
LINE
8
layer0
10
-3.015066
20
9.1416937
11
-3.0162359
21
9.1879219
0
LINE
8
layer0
10
-3.0162359
20
9.1879219
11
-3.0287619
21
9.2919894
0
LINE
8
layer0
10
-3.0287619
20
9.2919894
11
-3.0695056
21
9.477562
0
LINE
8
layer0
10
-3.0695056
20
9.477562
11
-3.0889526
21
9.6270186
0
LINE
8
layer0
10
-3.0889526
20
9.6270186
11
-3.0958943
21
9.7274231
0
LINE
8
layer0
10
-3.0958943
20
9.7274231
11
-3.0991376
21
9.8468433
0
LINE
8
layer0
10
-3.0991376
20
9.8468433
11
-3.0970888
21
9.9833263
0
LINE
8
layer0
10
-3.0970888
20
9.9833263
11
-3.0884672
21
10.1350868
0
LINE
8
layer0
10
-3.0884672
20
10.1350868
11
-3.0716717
21
10.3049982
0
LINE
8
layer0
10
-3.0716717
20
10.3049982
11
-3.0454256
21
10.4906827
0
LINE
8
layer0
10
-3.0454256
20
10.4906827
11
-3.0084405
21
10.6914856
0
LINE
8
layer0
10
-3.0084405
20
10.6914856
11
-2.9589646
21
10.9086639
0
LINE
8
layer0
10
-2.9589646
20
10.9086639
11
-2.8991972
21
11.1285358
0
ARC
8
layer0
10
0.000003
20
-0.0000148
40
11.5
50
101.1122094
51
104.6020727
0
LINE
8
layer0
10
-2.2164043
20
11.2843788
11
-2.0671569
21
11.1122132
0
LINE
8
layer0
10
-2.0671569
20
11.1122132
11
-1.9283505
21
10.9380091
0
LINE
8
layer0
10
-1.9283505
20
10.9380091
11
-1.807903
21
10.7731391
0
LINE
8
layer0
10
-1.807903
20
10.7731391
11
-1.7036905
21
10.617231
0
LINE
8
layer0
10
-1.7036905
20
10.617231
11
-1.6148366
21
10.4714334
0
LINE
8
layer0
10
-1.6148366
20
10.4714334
11
-1.5412224
21
10.3384427
0
LINE
8
layer0
10
-1.5412224
20
10.3384427
11
-1.4801587
21
10.2163646
0
LINE
8
layer0
10
-1.4801587
20
10.2163646
11
-1.4312663
21
10.1073636
0
LINE
8
layer0
10
-1.4312663
20
10.1073636
11
-1.3939567
21
10.0138904
0
LINE
8
layer0
10
-1.3939567
20
10.0138904
11
-1.346631
21
9.8707969
0
LINE
8
layer0
10
-1.346631
20
9.8707969
11
-1.3028229
21
9.6859237
0
LINE
8
layer0
10
-1.3028229
20
9.6859237
11
-1.2689553
21
9.5867273
0
LINE
8
layer0
10
-1.2689553
20
9.5867273
11
-1.2499517
21
9.5445695
0
LINE
8
layer0
10
-1.2499517
20
9.5445695
11
-1.2298292
21
9.5074194
0
LINE
8
layer0
10
-1.2298292
20
9.5074194
11
-1.2088002
21
9.4753011
0
LINE
8
layer0
10
-1.2088002
20
9.4753011
11
-1.1870564
21
9.4482303
0
LINE
8
layer0
10
-1.1870564
20
9.4482303
11
-1.1648109
21
9.4262413
0
LINE
8
layer0
10
-1.1648109
20
9.4262413
11
-1.1422526
21
9.4093097
0
LINE
8
layer0
10
-1.1422526
20
9.4093097
11
-1.1196044
21
9.3974691
0
LINE
8
layer0
10
-1.1196044
20
9.3974691
11
-1.0970544
21
9.3906853
0
LINE
8
layer0
10
-1.0970544
20
9.3906853
11
-1.0748035
21
9.3889633
0
LINE
8
layer0
10
-1.0748035
20
9.3889633
11
-1.0270406
21
9.3940569
0
LINE
8
layer0
10
-1.0270406
20
9.3940569
11
-0.7061994
21
9.4235759
0
LINE
8
layer0
10
-0.7061994
20
9.4235759
11
-0.3845422
21
9.4422055
0
LINE
8
layer0
10
-0.3845422
20
9.4422055
11
-0.3365536
21
9.4442875
0
LINE
8
layer0
10
-0.3365536
20
9.4442875
11
-0.3148078
21
9.4493066
0
LINE
8
layer0
10
-0.3148078
20
9.4493066
11
-0.2935208
21
9.4593755
0
LINE
8
layer0
10
-0.2935208
20
9.4593755
11
-0.2728903
21
9.4744594
0
LINE
8
layer0
10
-0.2728903
20
9.4744594
11
-0.2531074
21
9.494564
0
LINE
8
layer0
10
-0.2531074
20
9.494564
11
-0.2343877
21
9.519623
0
LINE
8
layer0
10
-0.2343877
20
9.519623
11
-0.2169215
21
9.5496321
0
LINE
8
layer0
10
-0.2169215
20
9.5496321
11
-0.2009143
21
9.5845259
0
LINE
8
layer0
10
-0.2009143
20
9.5845259
11
-0.1865535
21
9.6242602
0
LINE
8
layer0
10
-0.1865535
20
9.6242602
11
-0.1740455
21
9.6687794
0
LINE
8
layer0
10
-0.1740455
20
9.6687794
11
-0.1553405
21
9.7719156
0
LINE
8
layer0
10
-0.1553405
20
9.7719156
11
-0.1395757
21
9.9612532
0
LINE
8
layer0
10
-0.1395757
20
9.9612532
11
-0.1141055
21
10.1098019
0
LINE
8
layer0
10
-0.1141055
20
10.1098019
11
-0.0911441
21
10.2077918
0
LINE
8
layer0
10
-0.0911441
20
10.2077918
11
-0.0590436
21
10.3228625
0
LINE
8
layer0
10
-0.0590436
20
10.3228625
11
-0.0168567
21
10.4526781
0
LINE
8
layer0
10
-0.0168567
20
10.4526781
11
0.0361141
21
10.595155
0
LINE
8
layer0
10
0.0361141
20
10.595155
11
0.1022455
21
10.7525672
0
LINE
8
layer0
10
0.1022455
20
10.7525672
11
0.1820571
21
10.922266
0
LINE
8
layer0
10
0.1820571
20
10.922266
11
0.2765868
21
11.1032463
0
LINE
8
layer0
10
0.2765868
20
11.1032463
11
0.3878791
21
11.2961927
0
LINE
8
layer0
10
0.3878791
20
11.2961927
11
0.5097995
21
11.4886795
0
ARC
8
layer0
10
-0.0000013
20
-0.0000151
40
11.5
50
83.969353
51
87.4592165
0
LINE
8
layer0
10
1.2081934
20
11.4363421
11
1.3000634
21
11.2278339
0
LINE
8
layer0
10
1.3000634
20
11.2278339
11
1.3813555
21
11.0204553
0
LINE
8
layer0
10
1.3813555
20
11.0204553
11
1.4478556
21
10.8274075
0
LINE
8
layer0
10
1.4478556
20
10.8274075
11
1.5014834
21
10.6477088
0
LINE
8
layer0
10
1.5014834
20
10.6477088
11
1.5434152
21
10.4821984
0
LINE
8
layer0
10
1.5434152
20
10.4821984
11
1.5745593
21
10.333418
0
LINE
8
layer0
10
1.5745593
20
10.333418
11
1.5969269
21
10.1987647
0
LINE
8
layer0
10
1.5969269
20
10.1987647
11
1.6115185
21
10.0801949
0
LINE
8
layer0
10
1.6115185
20
10.0801949
11
1.6196188
21
9.9798773
0
LINE
8
layer0
10
1.6196188
20
9.9798773
11
1.6226645
21
9.8291915
0
LINE
8
layer0
10
1.6226645
20
9.8291915
11
1.610034
21
9.6396191
0
LINE
8
layer0
10
1.610034
20
9.6396191
11
1.6131583
21
9.534847
0
LINE
8
layer0
10
1.6131583
20
9.534847
11
1.6188914
21
9.4889608
0
LINE
8
layer0
10
1.6188914
20
9.4889608
11
1.6271697
21
9.44753
0
LINE
8
layer0
10
1.6271697
20
9.44753
11
1.6377974
21
9.4106402
0
LINE
8
layer0
10
1.6377974
20
9.4106402
11
1.650596
21
9.378363
0
LINE
8
layer0
10
1.650596
20
9.378363
11
1.6653717
21
9.3507939
0
LINE
8
layer0
10
1.6653717
20
9.3507939
11
1.6819372
21
9.3279653
0
LINE
8
layer0
10
1.6819372
20
9.3279653
11
1.7000891
21
9.3099751
0
LINE
8
layer0
10
1.7000891
20
9.3099751
11
1.7196378
21
9.2968459
0
LINE
8
layer0
10
1.7196378
20
9.2968459
11
1.7403925
21
9.2886419
0
LINE
8
layer0
10
1.7403925
20
9.2886419
11
1.7875348
21
9.2794308
0
LINE
8
layer0
10
1.7875348
20
9.2794308
11
2.1028228
21
9.2130688
0
LINE
8
layer0
10
2.1028228
20
9.2130688
11
2.4156809
21
9.1360605
0
LINE
8
layer0
10
2.4156809
20
9.1360605
11
2.4621512
21
9.1239052
0
LINE
8
layer0
10
2.4621512
20
9.1239052
11
2.4844102
21
9.1222916
0
LINE
8
layer0
10
2.4844102
20
9.1222916
11
2.5077194
21
9.1256387
0
LINE
8
layer0
10
2.5077194
20
9.1256387
11
2.5318794
21
9.1339716
0
LINE
8
layer0
10
2.5318794
20
9.1339716
11
2.5567093
21
9.1473519
0
LINE
8
layer0
10
2.5567093
20
9.1473519
11
2.5819836
21
9.1657798
0
LINE
8
layer0
10
2.5819836
20
9.1657798
11
2.6075192
21
9.1893075
0
LINE
8
layer0
10
2.6075192
20
9.1893075
11
2.6331004
21
9.2179329
0
LINE
8
layer0
10
2.6331004
20
9.2179329
11
2.658535
21
9.251669
0
LINE
8
layer0
10
2.658535
20
9.251669
11
2.6836097
21
9.2905235
0
LINE
8
layer0
10
2.6836097
20
9.2905235
11
2.7318835
21
9.3835643
0
LINE
8
layer0
10
2.7318835
20
9.3835643
11
2.8027562
21
9.5598433
0
LINE
8
layer0
10
2.8027562
20
9.5598433
11
2.8708803
21
9.694285
0
LINE
8
layer0
10
2.8708803
20
9.694285
11
2.9217046
21
9.7811535
0
LINE
8
layer0
10
2.9217046
20
9.7811535
11
2.9862967
21
9.8816501
0
LINE
8
layer0
10
2.9862967
20
9.8816501
11
3.0648731
21
9.9932636
0
LINE
8
layer0
10
3.0648731
20
9.9932636
11
3.1574864
21
10.1137972
0
LINE
8
layer0
10
3.1574864
20
10.1137972
11
3.2670779
21
10.2447234
0
LINE
8
layer0
10
3.2670779
20
10.2447234
11
3.3933632
21
10.3833581
0
LINE
8
layer0
10
3.3933632
20
10.3833581
11
3.5370381
21
10.5284348
0
LINE
8
layer0
10
3.5370381
20
10.5284348
11
3.7002579
21
10.6800052
0
LINE
8
layer0
10
3.7002579
20
10.6800052
11
3.8734983
21
10.8280037
0
ARC
8
layer0
10
-0.0000055
20
-0.000014
40
11.5
50
66.8264966
51
70.3163601
0
LINE
8
layer0
10
4.5254378
20
10.5721363
11
4.5517674
21
10.3458123
0
LINE
8
layer0
10
4.5517674
20
10.3458123
11
4.568322
21
10.1236857
0
LINE
8
layer0
10
4.568322
20
10.1236857
11
4.5749658
21
9.9196133
0
LINE
8
layer0
10
4.5749658
20
9.9196133
11
4.573244
21
9.732091
0
LINE
8
layer0
10
4.573244
20
9.732091
11
4.5645278
21
9.5615741
0
LINE
8
layer0
10
4.5645278
20
9.5615741
11
4.5504345
21
9.4102237
0
LINE
8
layer0
10
4.5504345
20
9.4102237
11
4.5321186
21
9.2749597
0
LINE
8
layer0
10
4.5321186
20
9.2749597
11
4.5111129
21
9.1573567
0
LINE
8
layer0
10
4.5111129
20
9.1573567
11
4.4892842
21
9.0591083
0
LINE
8
layer0
10
4.4892842
20
9.0591083
11
4.4477791
21
8.9142194
0
LINE
8
layer0
10
4.4477791
20
8.9142194
11
4.3798323
21
8.736792
0
LINE
8
layer0
10
4.3798323
20
8.736792
11
4.3519357
21
8.6357538
0
LINE
8
layer0
10
4.3519357
20
8.6357538
11
4.3438889
21
8.5902163
0
LINE
8
layer0
10
4.3438889
20
8.5902163
11
4.3395875
21
8.548186
0
LINE
8
layer0
10
4.3395875
20
8.548186
11
4.3388696
21
8.5098026
0
LINE
8
layer0
10
4.3388696
20
8.5098026
11
4.3415856
21
8.4751869
0
LINE
8
layer0
10
4.3415856
20
8.4751869
11
4.3475788
21
8.4444874
0
LINE
8
layer0
10
4.3475788
20
8.4444874
11
4.3566795
21
8.4177903
0
LINE
8
layer0
10
4.3566795
20
8.4177903
11
4.3687223
21
8.3952489
0
LINE
8
layer0
10
4.3687223
20
8.3952489
11
4.3835325
21
8.376941
0
LINE
8
layer0
10
4.3835325
20
8.376941
11
4.400947
21
8.3629839
0
LINE
8
layer0
10
4.400947
20
8.3629839
11
4.4432799
21
8.3402866
0
LINE
8
layer0
10
4.4432799
20
8.3402866
11
4.725
21
8.1839401
0
LINE
8
layer0
10
4.725
20
8.1839401
11
5.0012601
21
8.0181366
0
LINE
8
layer0
10
5.0012601
20
8.0181366
11
5.042083
21
7.9928239
0
LINE
8
layer0
10
5.042083
20
7.9928239
11
5.0628775
21
7.984721
0
LINE
8
layer0
10
5.0628775
20
7.984721
11
5.0861377
21
7.9810489
0
LINE
8
layer0
10
5.0861377
20
7.9810489
11
5.1116805
21
7.9818903
0
LINE
8
layer0
10
5.1116805
20
7.9818903
11
5.1393512
21
7.9873574
0
LINE
8
layer0
10
5.1393512
20
7.9873574
11
5.1689344
21
7.9975169
0
LINE
8
layer0
10
5.1689344
20
7.9975169
11
5.2002704
21
8.0124726
0
LINE
8
layer0
10
5.2002704
20
8.0124726
11
5.2331525
21
8.032286
0
LINE
8
layer0
10
5.2331525
20
8.032286
11
5.2674011
21
8.0570263
0
LINE
8
layer0
10
5.2674011
20
8.0570263
11
5.3028143
21
8.0867638
0
LINE
8
layer0
10
5.3028143
20
8.0867638
11
5.3763677
21
8.161442
0
LINE
8
layer0
10
5.3763677
20
8.161442
11
5.4960509
21
8.3089994
0
LINE
8
layer0
10
5.4960509
20
8.3089994
11
5.6007758
21
8.4173883
0
LINE
8
layer0
10
5.6007758
20
8.4173883
11
5.6749471
21
8.4854167
0
LINE
8
layer0
10
5.6749471
20
8.4854167
11
5.7662914
21
8.5624097
0
LINE
8
layer0
10
5.7662914
20
8.5624097
11
5.8742755
21
8.6459037
0
LINE
8
layer0
10
5.8742755
20
8.6459037
11
5.9983022
21
8.7337841
0
LINE
8
layer0
10
5.9983022
20
8.7337841
11
6.141616
21
8.826591
0
LINE
8
layer0
10
6.141616
20
8.826591
11
6.3031542
21
8.9218433
0
LINE
8
layer0
10
6.3031542
20
8.9218433
11
6.483208
21
9.0181257
0
LINE
8
layer0
10
6.483208
20
9.0181257
11
6.6838526
21
9.1148523
0
LINE
8
layer0
10
6.6838526
20
9.1148523
11
6.8930197
21
9.2052122
0
ARC
8
layer0
10
-0.0000099
20
-0.0000115
40
11.5
50
49.6836369
51
53.1735004
0
LINE
8
layer0
10
7.4405771
20
8.7685497
11
7.3990268
21
8.5445199
0
LINE
8
layer0
10
7.3990268
20
8.5445199
11
7.349373
21
8.3273822
0
LINE
8
layer0
10
7.349373
20
8.3273822
11
7.2955703
21
8.1304178
0
LINE
8
layer0
10
7.2955703
20
8.1304178
11
7.2386518
21
7.9517341
0
LINE
8
layer0
10
7.2386518
20
7.9517341
11
7.1800621
21
7.791362
0
LINE
8
layer0
10
7.1800621
20
7.791362
11
7.1219836
21
7.6508897
0
LINE
8
layer0
10
7.1219836
20
7.6508897
11
7.0646116
21
7.5270338
0
LINE
8
layer0
10
7.0646116
20
7.5270338
11
7.0098751
21
7.4208472
0
LINE
8
layer0
10
7.0098751
20
7.4208472
11
6.9600569
21
7.3333978
0
LINE
8
layer0
10
6.9600569
20
7.3333978
11
6.8776891
21
7.2071797
0
LINE
8
layer0
10
6.8776891
20
7.2071797
11
6.7604633
21
7.0576627
0
LINE
8
layer0
10
6.7604633
20
7.0576627
11
6.7040245
21
6.9693359
0
LINE
8
layer0
10
6.7040245
20
6.9693359
11
6.6829128
21
6.9281934
0
LINE
8
layer0
10
6.6829128
20
6.9281934
11
6.6664139
21
6.8892982
0
LINE
8
layer0
10
6.6664139
20
6.8892982
11
6.6544141
21
6.8528317
0
LINE
8
layer0
10
6.6544141
20
6.8528317
11
6.6468064
21
6.8189533
0
LINE
8
layer0
10
6.6468064
20
6.8189533
11
6.6434844
21
6.7878512
0
LINE
8
layer0
10
6.6434844
20
6.7878512
11
6.6443117
21
6.7596577
0
LINE
8
layer0
10
6.6443117
20
6.7596577
11
6.6491753
21
6.7345681
0
LINE
8
layer0
10
6.6491753
20
6.7345681
11
6.6579312
21
6.7127082
0
LINE
8
layer0
10
6.6579312
20
6.7127082
11
6.6704581
21
6.694238
0
LINE
8
layer0
10
6.6704581
20
6.694238
11
6.7042201
21
6.6600713
0
LINE
8
layer0
10
6.7042201
20
6.6600713
11
6.9273402
21
6.4276324
0
LINE
8
layer0
10
6.9273402
20
6.4276324
11
7.1424554
21
6.187766
0
LINE
8
layer0
10
7.1424554
20
6.187766
11
7.1740036
21
6.1515451
0
LINE
8
layer0
10
7.1740036
20
6.1515451
11
7.1914859
21
6.1376729
0
LINE
8
layer0
10
7.1914859
20
6.1376729
11
7.2126304
21
6.1273079
0
LINE
8
layer0
10
7.2126304
20
6.1273079
11
7.2372863
21
6.120583
0
LINE
8
layer0
10
7.2372863
20
6.120583
11
7.2653392
21
6.1176511
0
LINE
8
layer0
10
7.2653392
20
6.1176511
11
7.2966026
21
6.1186395
0
LINE
8
layer0
10
7.2966026
20
6.1186395
11
7.3309547
21
6.1236943
0
LINE
8
layer0
10
7.3309547
20
6.1236943
11
7.3682161
21
6.1329353
0
LINE
8
layer0
10
7.3682161
20
6.1329353
11
7.4082354
21
6.1464815
0
LINE
8
layer0
10
7.4082354
20
6.1464815
11
7.4508406
21
6.1644596
0
LINE
8
layer0
10
7.4508406
20
6.1644596
11
7.5431381
21
6.2141399
0
LINE
8
layer0
10
7.5431381
20
6.2141399
11
7.7009973
21
6.3198644
0
LINE
8
layer0
10
7.7009973
20
6.3198644
11
7.8330178
21
6.3925697
0
LINE
8
layer0
10
7.8330178
20
6.3925697
11
7.9239456
21
6.4357134
0
LINE
8
layer0
10
7.9239456
20
6.4357134
11
8.0339258
21
6.4823616
0
LINE
8
layer0
10
8.0339258
20
6.4823616
11
8.1617228
21
6.5303173
0
LINE
8
layer0
10
8.1617228
20
6.5303173
11
8.3061425
21
6.577736
0
LINE
8
layer0
10
8.3061425
20
6.577736
11
8.4704446
21
6.6241772
0
LINE
8
layer0
10
8.4704446
20
6.6241772
11
8.6528822
21
6.6675835
0
LINE
8
layer0
10
8.6528822
20
6.6675835
11
8.8533165
21
6.7065166
0
LINE
8
layer0
10
8.8533165
20
6.7065166
11
9.0735577
21
6.7398049
0
LINE
8
layer0
10
9.0735577
20
6.7398049
11
9.3000661
21
6.7644972
0
ARC
8
layer0
10
-0.0000123
20
-0.0000088
40
11.5
50
32.5407839
51
36.0306477
0
LINE
8
layer0
10
9.6945886
20
6.1858391
11
9.5888503
21
5.9840095
0
LINE
8
layer0
10
9.5888503
20
5.9840095
11
9.4774
21
5.7911543
0
LINE
8
layer0
10
9.4774
20
5.7911543
11
9.3679313
21
5.6187991
0
LINE
8
layer0
10
9.3679313
20
5.6187991
11
9.2608736
21
5.4648308
0
LINE
8
layer0
10
9.2608736
20
5.4648308
11
9.1576164
21
5.3288532
0
LINE
8
layer0
10
9.1576164
20
5.3288532
11
9.0607131
21
5.2117407
0
LINE
8
layer0
10
9.0607131
20
5.2117407
11
8.9693829
21
5.110298
0
LINE
8
layer0
10
8.9693829
20
5.110298
11
8.8857791
21
5.0249628
0
LINE
8
layer0
10
8.8857791
20
5.0249628
11
8.8123981
21
4.9560827
0
LINE
8
layer0
10
8.8123981
20
4.9560827
11
8.6964861
21
4.8597505
0
LINE
8
layer0
10
8.6964861
20
4.8597505
11
8.5403975
21
4.751429
0
LINE
8
layer0
10
8.5403975
20
4.751429
11
8.4604313
21
4.6836619
0
LINE
8
layer0
10
8.4604313
20
4.6836619
11
8.4281306
21
4.65057
0
LINE
8
layer0
10
8.4281306
20
4.65057
11
8.4009001
21
4.6182661
0
LINE
8
layer0
10
8.4009001
20
4.6182661
11
8.3786848
21
4.5869566
0
LINE
8
layer0
10
8.3786848
20
4.5869566
11
8.3614292
21
4.5568258
0
LINE
8
layer0
10
8.3614292
20
4.5568258
11
8.3490873
21
4.5280846
0
LINE
8
layer0
10
8.3490873
20
4.5280846
11
8.3415677
21
4.5008998
0
LINE
8
layer0
10
8.3415677
20
4.5008998
11
8.3388199
21
4.4754913
0
LINE
8
layer0
10
8.3388199
20
4.4754913
11
8.3407434
21
4.4520217
0
LINE
8
layer0
10
8.3407434
20
4.4520217
11
8.3472696
21
4.4306798
0
LINE
8
layer0
10
8.3472696
20
4.4306798
11
8.3694609
21
4.3880795
0
LINE
8
layer0
10
8.3694609
20
4.3880795
11
8.5141558
21
4.1002013
0
LINE
8
layer0
10
8.5141558
20
4.1002013
11
8.6490122
21
3.8075852
0
LINE
8
layer0
10
8.6490122
20
3.8075852
11
8.6684825
21
3.7636745
0
LINE
8
layer0
10
8.6684825
20
3.7636745
11
8.6810992
21
3.7452657
0
LINE
8
layer0
10
8.6810992
20
3.7452657
11
8.6982492
21
3.7291287
0
LINE
8
layer0
10
8.6982492
20
3.7291287
11
8.7198275
21
3.7154351
0
LINE
8
layer0
10
8.7198275
20
3.7154351
11
8.7457699
21
3.7043648
0
LINE
8
layer0
10
8.7457699
20
3.7043648
11
8.7759357
21
3.6960942
0
LINE
8
layer0
10
8.7759357
20
3.6960942
11
8.8102516
21
3.6907989
0
LINE
8
layer0
10
8.8102516
20
3.6907989
11
8.8485813
21
3.6886464
0
LINE
8
layer0
10
8.8485813
20
3.6886464
11
8.8908155
21
3.6897949
0
LINE
8
layer0
10
8.8908155
20
3.6897949
11
8.936827
21
3.6944161
0
LINE
8
layer0
10
8.936827
20
3.6944161
11
9.0396675
21
3.7146841
0
LINE
8
layer0
10
9.0396675
20
3.7146841
11
9.2216764
21
3.7691818
0
LINE
8
layer0
10
9.2216764
20
3.7691818
11
9.3692618
21
3.7997432
0
LINE
8
layer0
10
9.3692618
20
3.7997432
11
9.4688668
21
3.8141688
0
LINE
8
layer0
10
9.4688668
20
3.8141688
11
9.5877107
21
3.8263273
0
LINE
8
layer0
10
9.5877107
20
3.8263273
11
9.7239652
21
3.8344836
0
LINE
8
layer0
10
9.7239652
20
3.8344836
11
9.8759456
21
3.8372272
0
LINE
8
layer0
10
9.8759456
20
3.8372272
11
10.046637
21
3.8331762
0
LINE
8
layer0
10
10.046637
20
3.8331762
11
10.2337636
21
3.8208797
0
LINE
8
layer0
10
10.2337636
20
3.8208797
11
10.436769
21
3.799004
0
LINE
8
layer0
10
10.436769
20
3.799004
11
10.6570374
21
3.7658962
0
LINE
8
layer0
10
10.6570374
20
3.7658962
11
10.8807609
21
3.722727
0
ARC
8
layer0
10
-0.0000145
20
-0.000004
40
11.5
50
15.3979234
51
18.8877866
0
LINE
8
layer0
10
11.0871933
20
3.0534894
11
10.9266623
21
2.8917935
0
LINE
8
layer1
10
10.9266623
20
2.8917935
11
10.7633184
21
2.7403569
0
LINE
8
layer1
10
10.7633184
20
2.7403569
11
10.6079105
21
2.6079254
0
LINE
8
layer1
10
10.6079105
20
2.6079254
11
10.4602261
21
2.4923533
0
LINE
8
layer1
10
10.4602261
20
2.4923533
11
10.3214762
21
2.3928524
0
LINE
8
layer1
10
10.3214762
20
2.3928524
11
10.1943586
21
2.3095056
0
LINE
8
layer1
10
10.1943586
20
2.3095056
11
10.0771852
21
2.2394898
0
LINE
8
layer1
10
10.0771852
20
2.2394898
11
9.9721427
21
2.1825885
0
LINE
8
layer1
10
9.9721427
20
2.1825885
11
9.881719
21
2.1383979
0
LINE
8
layer1
10
9.881719
20
2.1383979
11
9.7425623
21
2.0805112
0
LINE
8
layer1
10
9.7425623
20
2.0805112
11
9.5614798
21
2.02301
0
LINE
8
layer1
10
9.5614798
20
2.02301
11
9.4650917
21
1.9818241
0
LINE
8
layer1
10
9.4650917
20
1.9818241
11
9.424472
21
1.9597232
0
LINE
8
layer1
10
9.424472
20
1.9597232
11
9.3889295
21
1.9368807
0
LINE
8
layer1
10
9.3889295
20
1.9368807
11
9.3584725
21
1.9135103
0
LINE
8
layer1
10
9.3584725
20
1.9135103
11
9.3331023
21
1.8898043
0
LINE
8
layer1
10
9.3331023
20
1.8898043
11
9.3128371
21
1.8659778
0
LINE
8
layer1
10
9.3128371
20
1.8659778
11
9.2976387
21
1.8422172
0
LINE
8
layer1
10
9.2976387
20
1.8422172
11
9.2875237
21
1.8187475
0
LINE
8
layer1
10
9.2875237
20
1.8187475
11
9.282444
21
1.7957536
0
LINE
8
layer1
10
9.282444
20
1.7957536
11
9.2823897
21
1.7734362
0
LINE
8
layer1
10
9.2823897
20
1.7734362
11
9.2910383
21
1.7261875
0
LINE
8
layer1
10
9.2910383
20
1.7261875
11
9.3444513
21
1.4084494
0
LINE
8
layer1
10
9.3444513
20
1.4084494
11
9.3870663
21
1.0890838
0
LINE
8
layer1
10
9.3870663
20
1.0890838
11
9.3927286
21
1.041385
0
LINE
8
layer1
10
9.3927286
20
1.041385
11
9.3993588
21
1.0200751
0
LINE
8
layer1
10
9.3993588
20
1.0200751
11
9.4109903
21
0.9996
0
LINE
8
layer1
10
9.4109903
20
0.9996
11
9.4275738
21
0.9801545
0
LINE
8
layer1
10
9.4275738
20
0.9801545
11
9.4491005
21
0.9619293
0
LINE
8
layer1
10
9.4491005
20
0.9619293
11
9.4754884
21
0.9451346
0
LINE
8
layer1
10
9.4754884
20
0.9451346
11
9.5067189
21
0.9299598
0
LINE
8
layer1
10
9.5067189
20
0.9299598
11
9.5427113
21
0.916605
0
LINE
8
layer1
10
9.5427113
20
0.916605
11
9.5834077
21
0.9052537
0
LINE
8
layer1
10
9.5834077
20
0.9052537
11
9.6287371
21
0.8961076
0
LINE
8
layer1
10
9.6287371
20
0.8961076
11
9.7329828
21
0.8851623
0
LINE
8
layer1
10
9.7329828
20
0.8851623
11
9.922969
21
0.8835908
0
LINE
8
layer1
10
9.922969
20
0.8835908
11
10.0730058
21
0.8692929
0
LINE
8
layer1
10
10.0730058
20
0.8692929
11
10.1724376
21
0.8537185
0
LINE
8
layer1
10
10.1724376
20
0.8537185
11
10.2895853
21
0.830307
0
LINE
8
layer1
10
10.2895853
20
0.830307
11
10.4221906
21
0.7979392
0
LINE
8
layer1
10
10.4221906
20
0.7979392
11
10.5682276
21
0.7557639
0
LINE
8
layer1
10
10.5682276
20
0.7557639
11
10.7301416
21
0.7015807
0
LINE
8
layer1
10
10.7301416
20
0.7015807
11
10.9053303
21
0.6346739
0
LINE
8
layer1
10
10.9053303
20
0.6346739
11
11.0928687
21
0.5539333
0
LINE
8
layer1
10
11.0928687
20
0.5539333
11
11.2935925
21
0.4573711
0
LINE
8
layer1
10
11.2935925
20
0.4573711
11
11.4946522
21
0.3501761
0
ARC
8
layer1
10
-0.0000151
20
0
40
11.5
50
358.2550683
51
361.7449317
0
LINE
8
layer1
10
11.4946522
20
-0.3501761
11
11.2935925
21
-0.4573711
0
LINE
8
layer1
10
11.2935925
20
-0.4573711
11
11.0928687
21
-0.5539333
0
LINE
8
layer1
10
11.0928687
20
-0.5539333
11
10.9053303
21
-0.6346739
0
LINE
8
layer1
10
10.9053303
20
-0.6346739
11
10.7301416
21
-0.7015807
0
LINE
8
layer1
10
10.7301416
20
-0.7015807
11
10.5682276
21
-0.7557639
0
LINE
8
layer1
10
10.5682276
20
-0.7557639
11
10.4221906
21
-0.7979392
0
LINE
8
layer1
10
10.4221906
20
-0.7979392
11
10.2895853
21
-0.830307
0
LINE
8
layer1
10
10.2895853
20
-0.830307
11
10.1724376
21
-0.8537185
0
LINE
8
layer1
10
10.1724376
20
-0.8537185
11
10.0730058
21
-0.8692929
0
LINE
8
layer1
10
10.0730058
20
-0.8692929
11
9.922969
21
-0.8835908
0
LINE
8
layer1
10
9.922969
20
-0.8835908
11
9.7329828
21
-0.8851623
0
LINE
8
layer1
10
9.7329828
20
-0.8851623
11
9.6287371
21
-0.8961076
0
LINE
8
layer1
10
9.6287371
20
-0.8961076
11
9.5834077
21
-0.9052537
0
LINE
8
layer1
10
9.5834077
20
-0.9052537
11
9.5427113
21
-0.916605
0
LINE
8
layer1
10
9.5427113
20
-0.916605
11
9.5067189
21
-0.9299598
0
LINE
8
layer1
10
9.5067189
20
-0.9299598
11
9.4754884
21
-0.9451346
0
LINE
8
layer1
10
9.4754884
20
-0.9451346
11
9.4491005
21
-0.9619293
0
LINE
8
layer1
10
9.4491005
20
-0.9619293
11
9.4275738
21
-0.9801545
0
LINE
8
layer1
10
9.4275738
20
-0.9801545
11
9.4109903
21
-0.9996
0
LINE
8
layer1
10
9.4109903
20
-0.9996
11
9.3993588
21
-1.0200751
0
LINE
8
layer1
10
9.3993588
20
-1.0200751
11
9.3927286
21
-1.041385
0
LINE
8
layer1
10
9.3927286
20
-1.041385
11
9.3870663
21
-1.0890838
0
LINE
8
layer1
10
9.3870663
20
-1.0890838
11
9.3444513
21
-1.4084494
0
LINE
8
layer1
10
9.3444513
20
-1.4084494
11
9.2910383
21
-1.7261875
0
LINE
8
layer1
10
9.2910383
20
-1.7261875
11
9.2823897
21
-1.7734362
0
LINE
8
layer1
10
9.2823897
20
-1.7734362
11
9.282444
21
-1.7957536
0
LINE
8
layer1
10
9.282444
20
-1.7957536
11
9.2875237
21
-1.8187475
0
LINE
8
layer1
10
9.2875237
20
-1.8187475
11
9.2976387
21
-1.8422172
0
LINE
8
layer1
10
9.2976387
20
-1.8422172
11
9.3128371
21
-1.8659778
0
LINE
8
layer1
10
9.3128371
20
-1.8659778
11
9.3331023
21
-1.8898043
0
LINE
8
layer1
10
9.3331023
20
-1.8898043
11
9.3584725
21
-1.9135103
0
LINE
8
layer1
10
9.3584725
20
-1.9135103
11
9.3889295
21
-1.9368807
0
LINE
8
layer1
10
9.3889295
20
-1.9368807
11
9.424472
21
-1.9597232
0
LINE
8
layer1
10
9.424472
20
-1.9597232
11
9.4650917
21
-1.9818241
0
LINE
8
layer1
10
9.4650917
20
-1.9818241
11
9.5614798
21
-2.02301
0
LINE
8
layer1
10
9.5614798
20
-2.02301
11
9.7425623
21
-2.0805112
0
LINE
8
layer1
10
9.7425623
20
-2.0805112
11
9.881719
21
-2.1383979
0
LINE
8
layer1
10
9.881719
20
-2.1383979
11
9.9721427
21
-2.1825885
0
LINE
8
layer1
10
9.9721427
20
-2.1825885
11
10.0771852
21
-2.2394898
0
LINE
8
layer1
10
10.0771852
20
-2.2394898
11
10.1943586
21
-2.3095056
0
LINE
8
layer1
10
10.1943586
20
-2.3095056
11
10.3214762
21
-2.3928524
0
LINE
8
layer1
10
10.3214762
20
-2.3928524
11
10.4602261
21
-2.4923533
0
LINE
8
layer1
10
10.4602261
20
-2.4923533
11
10.6079105
21
-2.6079254
0
LINE
8
layer1
10
10.6079105
20
-2.6079254
11
10.7633184
21
-2.7403569
0
LINE
8
layer1
10
10.7633184
20
-2.7403569
11
10.9266623
21
-2.8917935
0
LINE
8
layer1
10
10.9266623
20
-2.8917935
11
11.0871933
21
-3.0534894
0
ARC
8
layer1
10
-0.0000145
20
0.0000041
40
11.5
50
341.1122134
51
344.6020766
0
LINE
8
layer1
10
10.8807609
20
-3.722727
11
10.6570374
21
-3.7658962
0
LINE
8
layer1
10
10.6570374
20
-3.7658962
11
10.436769
21
-3.799004
0
LINE
8
layer1
10
10.436769
20
-3.799004
11
10.2337636
21
-3.8208797
0
LINE
8
layer1
10
10.2337636
20
-3.8208797
11
10.046637
21
-3.8331762
0
LINE
8
layer1
10
10.046637
20
-3.8331762
11
9.8759456
21
-3.8372272
0
LINE
8
layer1
10
9.8759456
20
-3.8372272
11
9.7239652
21
-3.8344836
0
LINE
8
layer1
10
9.7239652
20
-3.8344836
11
9.5877107
21
-3.8263273
0
LINE
8
layer1
10
9.5877107
20
-3.8263273
11
9.4688668
21
-3.8141688
0
LINE
8
layer1
10
9.4688668
20
-3.8141688
11
9.3692618
21
-3.7997432
0
LINE
8
layer1
10
9.3692618
20
-3.7997432
11
9.2216764
21
-3.7691818
0
LINE
8
layer1
10
9.2216764
20
-3.7691818
11
9.0396675
21
-3.7146841
0
LINE
8
layer1
10
9.0396675
20
-3.7146841
11
8.936827
21
-3.6944161
0
LINE
8
layer1
10
8.936827
20
-3.6944161
11
8.8908155
21
-3.6897949
0
LINE
8
layer1
10
8.8908155
20
-3.6897949
11
8.8485813
21
-3.6886464
0
LINE
8
layer1
10
8.8485813
20
-3.6886464
11
8.8102516
21
-3.6907989
0
LINE
8
layer1
10
8.8102516
20
-3.6907989
11
8.7759357
21
-3.6960942
0
LINE
8
layer1
10
8.7759357
20
-3.6960942
11
8.7457699
21
-3.7043648
0
LINE
8
layer1
10
8.7457699
20
-3.7043648
11
8.7198275
21
-3.7154351
0
LINE
8
layer1
10
8.7198275
20
-3.7154351
11
8.6982492
21
-3.7291287
0
LINE
8
layer1
10
8.6982492
20
-3.7291287
11
8.6810992
21
-3.7452657
0
LINE
8
layer1
10
8.6810992
20
-3.7452657
11
8.6684825
21
-3.7636745
0
LINE
8
layer1
10
8.6684825
20
-3.7636745
11
8.6490122
21
-3.8075852
0
LINE
8
layer1
10
8.6490122
20
-3.8075852
11
8.5141558
21
-4.1002013
0
LINE
8
layer1
10
8.5141558
20
-4.1002013
11
8.3694609
21
-4.3880795
0
LINE
8
layer1
10
8.3694609
20
-4.3880795
11
8.3472696
21
-4.4306798
0
LINE
8
layer1
10
8.3472696
20
-4.4306798
11
8.3407434
21
-4.4520217
0
LINE
8
layer1
10
8.3407434
20
-4.4520217
11
8.3388199
21
-4.4754913
0
LINE
8
layer1
10
8.3388199
20
-4.4754913
11
8.3415677
21
-4.5008998
0
LINE
8
layer1
10
8.3415677
20
-4.5008998
11
8.3490873
21
-4.5280846
0
LINE
8
layer1
10
8.3490873
20
-4.5280846
11
8.3614292
21
-4.5568258
0
LINE
8
layer1
10
8.3614292
20
-4.5568258
11
8.3786848
21
-4.5869566
0
LINE
8
layer1
10
8.3786848
20
-4.5869566
11
8.4009001
21
-4.6182661
0
LINE
8
layer1
10
8.4009001
20
-4.6182661
11
8.4281306
21
-4.65057
0
LINE
8
layer1
10
8.4281306
20
-4.65057
11
8.4604313
21
-4.6836619
0
LINE
8
layer1
10
8.4604313
20
-4.6836619
11
8.5403975
21
-4.751429
0
LINE
8
layer1
10
8.5403975
20
-4.751429
11
8.6964861
21
-4.8597505
0
LINE
8
layer1
10
8.6964861
20
-4.8597505
11
8.8123981
21
-4.9560827
0
LINE
8
layer1
10
8.8123981
20
-4.9560827
11
8.8857791
21
-5.0249628
0
LINE
8
layer1
10
8.8857791
20
-5.0249628
11
8.9693829
21
-5.110298
0
LINE
8
layer1
10
8.9693829
20
-5.110298
11
9.0607131
21
-5.2117407
0
LINE
8
layer1
10
9.0607131
20
-5.2117407
11
9.1576164
21
-5.3288532
0
LINE
8
layer1
10
9.1576164
20
-5.3288532
11
9.2608736
21
-5.4648308
0
LINE
8
layer1
10
9.2608736
20
-5.4648308
11
9.3679313
21
-5.6187991
0
LINE
8
layer1
10
9.3679313
20
-5.6187991
11
9.4774
21
-5.7911543
0
LINE
8
layer1
10
9.4774
20
-5.7911543
11
9.5888503
21
-5.9840095
0
LINE
8
layer1
10
9.5888503
20
-5.9840095
11
9.6945886
21
-6.1858391
0
ARC
8
layer1
10
-0.0000123
20
0.0000087
40
11.5
50
323.9693523
51
327.4592161
0
LINE
8
layer1
10
9.3000661
20
-6.7644972
11
9.0735577
21
-6.7398049
0
LINE
8
layer1
10
9.0735577
20
-6.7398049
11
8.8533165
21
-6.7065166
0
LINE
8
layer1
10
8.8533165
20
-6.7065166
11
8.6528822
21
-6.6675835
0
LINE
8
layer1
10
8.6528822
20
-6.6675835
11
8.4704446
21
-6.6241772
0
LINE
8
layer1
10
8.4704446
20
-6.6241772
11
8.3061425
21
-6.577736
0
LINE
8
layer1
10
8.3061425
20
-6.577736
11
8.1617228
21
-6.5303173
0
LINE
8
layer1
10
8.1617228
20
-6.5303173
11
8.0339258
21
-6.4823616
0
LINE
8
layer1
10
8.0339258
20
-6.4823616
11
7.9239456
21
-6.4357134
0
LINE
8
layer1
10
7.9239456
20
-6.4357134
11
7.8330178
21
-6.3925697
0
LINE
8
layer1
10
7.8330178
20
-6.3925697
11
7.7009973
21
-6.3198644
0
LINE
8
layer1
10
7.7009973
20
-6.3198644
11
7.5431381
21
-6.2141399
0
LINE
8
layer1
10
7.5431381
20
-6.2141399
11
7.4508406
21
-6.1644596
0
LINE
8
layer1
10
7.4508406
20
-6.1644596
11
7.4082354
21
-6.1464815
0
LINE
8
layer1
10
7.4082354
20
-6.1464815
11
7.3682161
21
-6.1329353
0
LINE
8
layer1
10
7.3682161
20
-6.1329353
11
7.3309547
21
-6.1236943
0
LINE
8
layer1
10
7.3309547
20
-6.1236943
11
7.2966026
21
-6.1186395
0
LINE
8
layer1
10
7.2966026
20
-6.1186395
11
7.2653392
21
-6.1176511
0
LINE
8
layer1
10
7.2653392
20
-6.1176511
11
7.2372863
21
-6.120583
0
LINE
8
layer1
10
7.2372863
20
-6.120583
11
7.2126304
21
-6.1273079
0
LINE
8
layer1
10
7.2126304
20
-6.1273079
11
7.1914859
21
-6.1376729
0
LINE
8
layer1
10
7.1914859
20
-6.1376729
11
7.1740036
21
-6.1515451
0
LINE
8
layer1
10
7.1740036
20
-6.1515451
11
7.1424554
21
-6.187766
0
LINE
8
layer1
10
7.1424554
20
-6.187766
11
6.9273402
21
-6.4276324
0
LINE
8
layer1
10
6.9273402
20
-6.4276324
11
6.7042201
21
-6.6600713
0
LINE
8
layer1
10
6.7042201
20
-6.6600713
11
6.6704581
21
-6.694238
0
LINE
8
layer1
10
6.6704581
20
-6.694238
11
6.6579312
21
-6.7127082
0
LINE
8
layer1
10
6.6579312
20
-6.7127082
11
6.6491753
21
-6.7345681
0
LINE
8
layer1
10
6.6491753
20
-6.7345681
11
6.6443117
21
-6.7596577
0
LINE
8
layer1
10
6.6443117
20
-6.7596577
11
6.6434844
21
-6.7878512
0
LINE
8
layer1
10
6.6434844
20
-6.7878512
11
6.6468064
21
-6.8189533
0
LINE
8
layer1
10
6.6468064
20
-6.8189533
11
6.6544141
21
-6.8528317
0
LINE
8
layer1
10
6.6544141
20
-6.8528317
11
6.6664139
21
-6.8892982
0
LINE
8
layer1
10
6.6664139
20
-6.8892982
11
6.6829128
21
-6.9281934
0
LINE
8
layer1
10
6.6829128
20
-6.9281934
11
6.7040245
21
-6.9693359
0
LINE
8
layer1
10
6.7040245
20
-6.9693359
11
6.7604633
21
-7.0576627
0
LINE
8
layer1
10
6.7604633
20
-7.0576627
11
6.8776891
21
-7.2071797
0
LINE
8
layer1
10
6.8776891
20
-7.2071797
11
6.9600569
21
-7.3333978
0
LINE
8
layer1
10
6.9600569
20
-7.3333978
11
7.0098751
21
-7.4208472
0
LINE
8
layer1
10
7.0098751
20
-7.4208472
11
7.0646116
21
-7.5270338
0
LINE
8
layer1
10
7.0646116
20
-7.5270338
11
7.1219836
21
-7.6508897
0
LINE
8
layer1
10
7.1219836
20
-7.6508897
11
7.1800621
21
-7.791362
0
LINE
8
layer1
10
7.1800621
20
-7.791362
11
7.2386518
21
-7.9517341
0
LINE
8
layer1
10
7.2386518
20
-7.9517341
11
7.2955703
21
-8.1304178
0
LINE
8
layer1
10
7.2955703
20
-8.1304178
11
7.349373
21
-8.3273822
0
LINE
8
layer1
10
7.349373
20
-8.3273822
11
7.3990268
21
-8.5445199
0
LINE
8
layer1
10
7.3990268
20
-8.5445199
11
7.4405771
21
-8.7685497
0
ARC
8
layer1
10
-0.0000099
20
0.0000115
40
11.5
50
306.8264996
51
310.3163631
0
LINE
8
layer1
10
6.8930197
20
-9.2052122
11
6.6838526
21
-9.1148523
0
LINE
8
layer1
10
6.6838526
20
-9.1148523
11
6.483208
21
-9.0181257
0
LINE
8
layer1
10
6.483208
20
-9.0181257
11
6.3031542
21
-8.9218433
0
LINE
8
layer1
10
6.3031542
20
-8.9218433
11
6.141616
21
-8.826591
0
LINE
8
layer1
10
6.141616
20
-8.826591
11
5.9983022
21
-8.7337841
0
LINE
8
layer1
10
5.9983022
20
-8.7337841
11
5.8742755
21
-8.6459037
0
LINE
8
layer1
10
5.8742755
20
-8.6459037
11
5.7662914
21
-8.5624097
0
LINE
8
layer1
10
5.7662914
20
-8.5624097
11
5.6749471
21
-8.4854167
0
LINE
8
layer1
10
5.6749471
20
-8.4854167
11
5.6007758
21
-8.4173883
0
LINE
8
layer1
10
5.6007758
20
-8.4173883
11
5.4960509
21
-8.3089994
0
LINE
8
layer1
10
5.4960509
20
-8.3089994
11
5.3763677
21
-8.161442
0
LINE
8
layer1
10
5.3763677
20
-8.161442
11
5.3028143
21
-8.0867638
0
LINE
8
layer1
10
5.3028143
20
-8.0867638
11
5.2674011
21
-8.0570263
0
LINE
8
layer1
10
5.2674011
20
-8.0570263
11
5.2331525
21
-8.032286
0
LINE
8
layer1
10
5.2331525
20
-8.032286
11
5.2002704
21
-8.0124726
0
LINE
8
layer1
10
5.2002704
20
-8.0124726
11
5.1689344
21
-7.9975169
0
LINE
8
layer1
10
5.1689344
20
-7.9975169
11
5.1393512
21
-7.9873574
0
LINE
8
layer1
10
5.1393512
20
-7.9873574
11
5.1116805
21
-7.9818903
0
LINE
8
layer1
10
5.1116805
20
-7.9818903
11
5.0861377
21
-7.9810489
0
LINE
8
layer1
10
5.0861377
20
-7.9810489
11
5.0628775
21
-7.984721
0
LINE
8
layer1
10
5.0628775
20
-7.984721
11
5.042083
21
-7.9928239
0
LINE
8
layer1
10
5.042083
20
-7.9928239
11
5.0012601
21
-8.0181366
0
LINE
8
layer1
10
5.0012601
20
-8.0181366
11
4.725
21
-8.1839401
0
LINE
8
layer1
10
4.725
20
-8.1839401
11
4.4432799
21
-8.3402866
0
LINE
8
layer1
10
4.4432799
20
-8.3402866
11
4.400947
21
-8.3629839
0
LINE
8
layer1
10
4.400947
20
-8.3629839
11
4.3835325
21
-8.376941
0
LINE
8
layer1
10
4.3835325
20
-8.376941
11
4.3687223
21
-8.3952489
0
LINE
8
layer1
10
4.3687223
20
-8.3952489
11
4.3566795
21
-8.4177903
0
LINE
8
layer1
10
4.3566795
20
-8.4177903
11
4.3475788
21
-8.4444874
0
LINE
8
layer1
10
4.3475788
20
-8.4444874
11
4.3415856
21
-8.4751869
0
LINE
8
layer1
10
4.3415856
20
-8.4751869
11
4.3388696
21
-8.5098026
0
LINE
8
layer1
10
4.3388696
20
-8.5098026
11
4.3395875
21
-8.548186
0
LINE
8
layer1
10
4.3395875
20
-8.548186
11
4.3438889
21
-8.5902163
0
LINE
8
layer1
10
4.3438889
20
-8.5902163
11
4.3519357
21
-8.6357538
0
LINE
8
layer1
10
4.3519357
20
-8.6357538
11
4.3798323
21
-8.736792
0
LINE
8
layer1
10
4.3798323
20
-8.736792
11
4.4477791
21
-8.9142194
0
LINE
8
layer1
10
4.4477791
20
-8.9142194
11
4.4892842
21
-9.0591083
0
LINE
8
layer1
10
4.4892842
20
-9.0591083
11
4.5111129
21
-9.1573567
0
LINE
8
layer1
10
4.5111129
20
-9.1573567
11
4.5321186
21
-9.2749597
0
LINE
8
layer1
10
4.5321186
20
-9.2749597
11
4.5504345
21
-9.4102237
0
LINE
8
layer1
10
4.5504345
20
-9.4102237
11
4.5645278
21
-9.5615741
0
LINE
8
layer1
10
4.5645278
20
-9.5615741
11
4.573244
21
-9.732091
0
LINE
8
layer1
10
4.573244
20
-9.732091
11
4.5749658
21
-9.9196133
0
LINE
8
layer1
10
4.5749658
20
-9.9196133
11
4.568322
21
-10.1236857
0
LINE
8
layer1
10
4.568322
20
-10.1236857
11
4.5517674
21
-10.3458123
0
LINE
8
layer1
10
4.5517674
20
-10.3458123
11
4.5254378
21
-10.5721363
0
ARC
8
layer1
10
-0.0000055
20
0.0000141
40
11.5
50
289.6836397
51
293.1735032
0
LINE
8
layer1
10
3.8734983
20
-10.8280037
11
3.7002579
21
-10.6800052
0
LINE
8
layer1
10
3.7002579
20
-10.6800052
11
3.5370381
21
-10.5284348
0
LINE
8
layer1
10
3.5370381
20
-10.5284348
11
3.3933632
21
-10.3833581
0
LINE
8
layer1
10
3.3933632
20
-10.3833581
11
3.2670779
21
-10.2447234
0
LINE
8
layer1
10
3.2670779
20
-10.2447234
11
3.1574864
21
-10.1137972
0
LINE
8
layer1
10
3.1574864
20
-10.1137972
11
3.0648731
21
-9.9932636
0
LINE
8
layer1
10
3.0648731
20
-9.9932636
11
2.9862967
21
-9.8816501
0
LINE
8
layer1
10
2.9862967
20
-9.8816501
11
2.9217046
21
-9.7811535
0
LINE
8
layer1
10
2.9217046
20
-9.7811535
11
2.8708803
21
-9.694285
0
LINE
8
layer1
10
2.8708803
20
-9.694285
11
2.8027562
21
-9.5598433
0
LINE
8
layer1
10
2.8027562
20
-9.5598433
11
2.7318835
21
-9.3835643
0
LINE
8
layer1
10
2.7318835
20
-9.3835643
11
2.6836097
21
-9.2905235
0
LINE
8
layer1
10
2.6836097
20
-9.2905235
11
2.658535
21
-9.251669
0
LINE
8
layer1
10
2.658535
20
-9.251669
11
2.6331004
21
-9.2179329
0
LINE
8
layer1
10
2.6331004
20
-9.2179329
11
2.6075192
21
-9.1893075
0
LINE
8
layer1
10
2.6075192
20
-9.1893075
11
2.5819836
21
-9.1657798
0
LINE
8
layer1
10
2.5819836
20
-9.1657798
11
2.5567093
21
-9.1473519
0
LINE
8
layer1
10
2.5567093
20
-9.1473519
11
2.5318794
21
-9.1339716
0
LINE
8
layer1
10
2.5318794
20
-9.1339716
11
2.5077194
21
-9.1256387
0
LINE
8
layer1
10
2.5077194
20
-9.1256387
11
2.4844102
21
-9.1222916
0
LINE
8
layer1
10
2.4844102
20
-9.1222916
11
2.4621512
21
-9.1239052
0
LINE
8
layer1
10
2.4621512
20
-9.1239052
11
2.4156809
21
-9.1360605
0
LINE
8
layer1
10
2.4156809
20
-9.1360605
11
2.1028228
21
-9.2130688
0
LINE
8
layer1
10
2.1028228
20
-9.2130688
11
1.7875348
21
-9.2794308
0
LINE
8
layer1
10
1.7875348
20
-9.2794308
11
1.7403925
21
-9.2886419
0
LINE
8
layer1
10
1.7403925
20
-9.2886419
11
1.7196378
21
-9.2968459
0
LINE
8
layer1
10
1.7196378
20
-9.2968459
11
1.7000891
21
-9.3099751
0
LINE
8
layer1
10
1.7000891
20
-9.3099751
11
1.6819372
21
-9.3279653
0
LINE
8
layer1
10
1.6819372
20
-9.3279653
11
1.6653717
21
-9.3507939
0
LINE
8
layer1
10
1.6653717
20
-9.3507939
11
1.650596
21
-9.378363
0
LINE
8
layer1
10
1.650596
20
-9.378363
11
1.6377974
21
-9.4106402
0
LINE
8
layer1
10
1.6377974
20
-9.4106402
11
1.6271697
21
-9.44753
0
LINE
8
layer1
10
1.6271697
20
-9.44753
11
1.6188914
21
-9.4889608
0
LINE
8
layer1
10
1.6188914
20
-9.4889608
11
1.6131583
21
-9.534847
0
LINE
8
layer1
10
1.6131583
20
-9.534847
11
1.610034
21
-9.6396191
0
LINE
8
layer1
10
1.610034
20
-9.6396191
11
1.6226645
21
-9.8291915
0
LINE
8
layer1
10
1.6226645
20
-9.8291915
11
1.6196188
21
-9.9798773
0
LINE
8
layer1
10
1.6196188
20
-9.9798773
11
1.6115185
21
-10.0801949
0
LINE
8
layer1
10
1.6115185
20
-10.0801949
11
1.5969269
21
-10.1987647
0
LINE
8
layer1
10
1.5969269
20
-10.1987647
11
1.5745593
21
-10.333418
0
LINE
8
layer1
10
1.5745593
20
-10.333418
11
1.5434152
21
-10.4821984
0
LINE
8
layer1
10
1.5434152
20
-10.4821984
11
1.5014834
21
-10.6477088
0
LINE
8
layer1
10
1.5014834
20
-10.6477088
11
1.4478556
21
-10.8274075
0
LINE
8
layer1
10
1.4478556
20
-10.8274075
11
1.3813555
21
-11.0204553
0
LINE
8
layer1
10
1.3813555
20
-11.0204553
11
1.3000634
21
-11.2278339
0
LINE
8
layer1
10
1.3000634
20
-11.2278339
11
1.2081934
21
-11.4363421
0
ARC
8
layer1
10
-0.0000013
20
0.0000151
40
11.5
50
272.5407835
51
276.030647
0
LINE
8
layer1
10
0.5097995
20
-11.4886795
11
0.3878791
21
-11.2961927
0
LINE
8
layer1
10
0.3878791
20
-11.2961927
11
0.2765868
21
-11.1032463
0
LINE
8
layer1
10
0.2765868
20
-11.1032463
11
0.1820571
21
-10.922266
0
LINE
8
layer1
10
0.1820571
20
-10.922266
11
0.1022455
21
-10.7525672
0
LINE
8
layer1
10
0.1022455
20
-10.7525672
11
0.0361141
21
-10.595155
0
LINE
8
layer1
10
0.0361141
20
-10.595155
11
-0.0168567
21
-10.4526781
0
LINE
8
layer1
10
-0.0168567
20
-10.4526781
11
-0.0590436
21
-10.3228625
0
LINE
8
layer1
10
-0.0590436
20
-10.3228625
11
-0.0911441
21
-10.2077918
0
LINE
8
layer1
10
-0.0911441
20
-10.2077918
11
-0.1141055
21
-10.1098019
0
LINE
8
layer1
10
-0.1141055
20
-10.1098019
11
-0.1395757
21
-9.9612532
0
LINE
8
layer1
10
-0.1395757
20
-9.9612532
11
-0.1553405
21
-9.7719156
0
LINE
8
layer1
10
-0.1553405
20
-9.7719156
11
-0.1740455
21
-9.6687794
0
LINE
8
layer1
10
-0.1740455
20
-9.6687794
11
-0.1865535
21
-9.6242602
0
LINE
8
layer1
10
-0.1865535
20
-9.6242602
11
-0.2009143
21
-9.5845259
0
LINE
8
layer1
10
-0.2009143
20
-9.5845259
11
-0.2169215
21
-9.5496321
0
LINE
8
layer1
10
-0.2169215
20
-9.5496321
11
-0.2343877
21
-9.519623
0
LINE
8
layer1
10
-0.2343877
20
-9.519623
11
-0.2531074
21
-9.494564
0
LINE
8
layer1
10
-0.2531074
20
-9.494564
11
-0.2728903
21
-9.4744594
0
LINE
8
layer1
10
-0.2728903
20
-9.4744594
11
-0.2935208
21
-9.4593755
0
LINE
8
layer1
10
-0.2935208
20
-9.4593755
11
-0.3148078
21
-9.4493066
0
LINE
8
layer1
10
-0.3148078
20
-9.4493066
11
-0.3365536
21
-9.4442875
0
LINE
8
layer1
10
-0.3365536
20
-9.4442875
11
-0.3845422
21
-9.4422055
0
LINE
8
layer1
10
-0.3845422
20
-9.4422055
11
-0.7061994
21
-9.4235759
0
LINE
8
layer1
10
-0.7061994
20
-9.4235759
11
-1.0270406
21
-9.3940569
0
LINE
8
layer1
10
-1.0270406
20
-9.3940569
11
-1.0748035
21
-9.3889633
0
LINE
8
layer1
10
-1.0748035
20
-9.3889633
11
-1.0970544
21
-9.3906853
0
LINE
8
layer1
10
-1.0970544
20
-9.3906853
11
-1.1196044
21
-9.3974691
0
LINE
8
layer1
10
-1.1196044
20
-9.3974691
11
-1.1422526
21
-9.4093097
0
LINE
8
layer1
10
-1.1422526
20
-9.4093097
11
-1.1648109
21
-9.4262413
0
LINE
8
layer1
10
-1.1648109
20
-9.4262413
11
-1.1870564
21
-9.4482303
0
LINE
8
layer1
10
-1.1870564
20
-9.4482303
11
-1.2088002
21
-9.4753011
0
LINE
8
layer1
10
-1.2088002
20
-9.4753011
11
-1.2298292
21
-9.5074194
0
LINE
8
layer1
10
-1.2298292
20
-9.5074194
11
-1.2499517
21
-9.5445695
0
LINE
8
layer1
10
-1.2499517
20
-9.5445695
11
-1.2689553
21
-9.5867273
0
LINE
8
layer1
10
-1.2689553
20
-9.5867273
11
-1.3028229
21
-9.6859237
0
LINE
8
layer1
10
-1.3028229
20
-9.6859237
11
-1.346631
21
-9.8707969
0
LINE
8
layer1
10
-1.346631
20
-9.8707969
11
-1.3939567
21
-10.0138904
0
LINE
8
layer1
10
-1.3939567
20
-10.0138904
11
-1.4312663
21
-10.1073636
0
LINE
8
layer1
10
-1.4312663
20
-10.1073636
11
-1.4801587
21
-10.2163646
0
LINE
8
layer1
10
-1.4801587
20
-10.2163646
11
-1.5412224
21
-10.3384427
0
LINE
8
layer1
10
-1.5412224
20
-10.3384427
11
-1.6148366
21
-10.4714334
0
LINE
8
layer1
10
-1.6148366
20
-10.4714334
11
-1.7036905
21
-10.617231
0
LINE
8
layer1
10
-1.7036905
20
-10.617231
11
-1.807903
21
-10.7731391
0
LINE
8
layer1
10
-1.807903
20
-10.7731391
11
-1.9283505
21
-10.9380091
0
LINE
8
layer1
10
-1.9283505
20
-10.9380091
11
-2.0671569
21
-11.1122132
0
LINE
8
layer1
10
-2.0671569
20
-11.1122132
11
-2.2164043
21
-11.2843788
0
ARC
8
layer1
10
0.000003
20
0.0000148
40
11.5
50
255.3979273
51
258.8877906
0
LINE
8
layer1
10
-2.8991972
20
-11.1285358
11
-2.9589646
21
-10.9086639
0
LINE
8
layer1
10
-2.9589646
20
-10.9086639
11
-3.0084405
21
-10.6914856
0
LINE
8
layer1
10
-3.0084405
20
-10.6914856
11
-3.0454256
21
-10.4906827
0
LINE
8
layer1
10
-3.0454256
20
-10.4906827
11
-3.0716717
21
-10.3049982
0
LINE
8
layer1
10
-3.0716717
20
-10.3049982
11
-3.0884672
21
-10.1350868
0
LINE
8
layer1
10
-3.0884672
20
-10.1350868
11
-3.0970888
21
-9.9833263
0
LINE
8
layer1
10
-3.0970888
20
-9.9833263
11
-3.0991376
21
-9.8468433
0
LINE
8
layer1
10
-3.0991376
20
-9.8468433
11
-3.0958943
21
-9.7274231
0
LINE
8
layer1
10
-3.0958943
20
-9.7274231
11
-3.0889526
21
-9.6270186
0
LINE
8
layer1
10
-3.0889526
20
-9.6270186
11
-3.0695056
21
-9.477562
0
LINE
8
layer1
10
-3.0695056
20
-9.477562
11
-3.0287619
21
-9.2919894
0
LINE
8
layer1
10
-3.0287619
20
-9.2919894
11
-3.0162359
21
-9.1879219
0
LINE
8
layer1
10
-3.0162359
20
-9.1879219
11
-3.015066
21
-9.1416937
0
LINE
8
layer1
10
-3.015066
20
-9.1416937
11
-3.0170769
21
-9.0994918
0
LINE
8
layer1
10
-3.0170769
20
-9.0994918
11
-3.0220877
21
-9.0614301
0
LINE
8
layer1
10
-3.0220877
20
-9.0614301
11
-3.0299327
21
-9.0276059
0
LINE
8
layer1
10
-3.0299327
20
-9.0276059
11
-3.0404344
21
-8.9981424
0
LINE
8
layer1
10
-3.0404344
20
-8.9981424
11
-3.0534125
21
-8.9730999
0
LINE
8
layer1
10
-3.0534125
20
-8.9730999
11
-3.0686803
21
-8.9526052
0
LINE
8
layer1
10
-3.0686803
20
-8.9526052
11
-3.0860538
21
-8.9367091
0
LINE
8
layer1
10
-3.0860538
20
-8.9367091
11
-3.105354
21
-8.9255034
0
LINE
8
layer1
10
-3.105354
20
-8.9255034
11
-3.1505969
21
-8.909369
0
LINE
8
layer1
10
-3.1505969
20
-8.909369
11
-3.4524727
21
-8.7967569
0
LINE
8
layer1
10
-3.4524727
20
-8.7967569
11
-3.7503589
21
-8.6739797
0
LINE
8
layer1
10
-3.7503589
20
-8.6739797
11
-3.7944985
21
-8.6550341
0
LINE
8
layer1
10
-3.7944985
20
-8.6550341
11
-3.8162684
21
-8.650121
0
LINE
8
layer1
10
-3.8162684
20
-8.650121
11
-3.8398161
21
-8.6499567
0
LINE
8
layer1
10
-3.8398161
20
-8.6499567
11
-3.8649482
21
-8.6545956
0
LINE
8
layer1
10
-3.8649482
20
-8.6545956
11
-3.891495
21
-8.6641257
0
LINE
8
layer1
10
-3.891495
20
-8.6641257
11
-3.9192336
21
-8.678581
0
LINE
8
layer1
10
-3.9192336
20
-8.678581
11
-3.9479906
21
-8.69804
0
LINE
8
layer1
10
-3.9479906
20
-8.69804
11
-3.9775524
21
-8.7225329
0
LINE
8
layer1
10
-3.9775524
20
-8.7225329
11
-4.0077311
21
-8.7521014
0
LINE
8
layer1
10
-4.0077311
20
-8.7521014
11
-4.0383166
21
-8.7867848
0
LINE
8
layer1
10
-4.0383166
20
-8.7867848
11
-4.0999183
21
-8.8715915
0
LINE
8
layer1
10
-4.0999183
20
-8.8715915
11
-4.1962724
21
-9.0353386
0
LINE
8
layer1
10
-4.1962724
20
-9.0353386
11
-4.2836732
21
-9.1581253
0
LINE
8
layer1
10
-4.2836732
20
-9.1581253
11
-4.3468769
21
-9.2364486
0
LINE
8
layer1
10
-4.3468769
20
-9.2364486
11
-4.4257257
21
-9.3261958
0
LINE
8
layer1
10
-4.4257257
20
-9.3261958
11
-4.5200597
21
-9.4248514
0
LINE
8
layer1
10
-4.5200597
20
-9.4248514
11
-4.6296031
21
-9.5302355
0
LINE
8
layer1
10
-4.6296031
20
-9.5302355
11
-4.7574841
21
-9.6433656
0
LINE
8
layer1
10
-4.7574841
20
-9.6433656
11
-4.9030214
21
-9.76163
0
LINE
8
layer1
10
-4.9030214
20
-9.76163
11
-5.0667141
21
-9.8836727
0
LINE
8
layer1
10
-5.0667141
20
-9.8836727
11
-5.2507013
21
-10.0092235
0
LINE
8
layer1
10
-5.2507013
20
-10.0092235
11
-5.4440647
21
-10.1297489
0
ARC
8
layer1
10
0.0000075
20
0.0000131
40
11.5
50
238.2550687
51
241.7449321
0
LINE
8
layer1
10
-6.0505875
20
-9.7795728
11
-6.0428912
21
-9.5518524
0
LINE
8
layer1
10
-6.0428912
20
-9.5518524
11
-6.0261546
21
-9.3297395
0
LINE
8
layer1
10
-6.0261546
20
-9.3297395
11
-6.0023089
21
-9.1269561
0
LINE
8
layer1
10
-6.0023089
20
-9.1269561
11
-5.9726575
21
-8.9417849
0
LINE
8
layer1
10
-5.9726575
20
-8.9417849
11
-5.9386245
21
-8.7744717
0
LINE
8
layer1
10
-5.9386245
20
-8.7744717
11
-5.9021309
21
-8.6269122
0
LINE
8
layer1
10
-5.9021309
20
-8.6269122
11
-5.8638596
21
-8.4958888
0
LINE
8
layer1
10
-5.8638596
20
-8.4958888
11
-5.8255607
21
-8.3827301
0
LINE
8
layer1
10
-5.8255607
20
-8.3827301
11
-5.7893326
21
-8.2888324
0
LINE
8
layer1
10
-5.7893326
20
-8.2888324
11
-5.7266965
21
-8.1517478
0
LINE
8
layer1
10
-5.7266965
20
-8.1517478
11
-5.6330645
21
-7.9864292
0
LINE
8
layer1
10
-5.6330645
20
-7.9864292
11
-5.5904205
21
-7.8906772
0
LINE
8
layer1
10
-5.5904205
20
-7.8906772
11
-5.5756766
21
-7.8468476
0
LINE
8
layer1
10
-5.5756766
20
-7.8468476
11
-5.5651589
21
-7.8059279
0
LINE
8
layer1
10
-5.5651589
20
-7.8059279
11
-5.5587283
21
-7.7680802
0
LINE
8
layer1
10
-5.5587283
20
-7.7680802
11
-5.5562548
21
-7.7334463
0
LINE
8
layer1
10
-5.5562548
20
-7.7334463
11
-5.5576055
21
-7.7021964
0
LINE
8
layer1
10
-5.5576055
20
-7.7021964
11
-5.5626256
21
-7.6744411
0
LINE
8
layer1
10
-5.5626256
20
-7.6744411
11
-5.5711742
21
-7.6503567
0
LINE
8
layer1
10
-5.5711742
20
-7.6503567
11
-5.5830904
21
-7.6300459
0
LINE
8
layer1
10
-5.5830904
20
-7.6300459
11
-5.5982302
21
-7.6136491
0
LINE
8
layer1
10
-5.5982302
20
-7.6136491
11
-5.6367074
21
-7.5848959
0
LINE
8
layer1
10
-5.6367074
20
-7.5848959
11
-5.8919786
21
-7.3883075
0
LINE
8
layer1
10
-5.8919786
20
-7.3883075
11
-6.1404414
21
-7.1831815
0
LINE
8
layer1
10
-6.1404414
20
-7.1831815
11
-6.1770356
21
-7.1520672
0
LINE
8
layer1
10
-6.1770356
20
-7.1520672
11
-6.1963902
21
-7.1409556
0
LINE
8
layer1
10
-6.1963902
20
-7.1409556
11
-6.2188434
21
-7.1338577
0
LINE
8
layer1
10
-6.2188434
20
-7.1338577
11
-6.2442262
21
-7.1308827
0
LINE
8
layer1
10
-6.2442262
20
-7.1308827
11
-6.2724027
21
-7.1321647
0
LINE
8
layer1
10
-6.2724027
20
-7.1321647
11
-6.3031697
21
-7.1378016
0
LINE
8
layer1
10
-6.3031697
20
-7.1378016
11
-6.3363848
21
-7.1479198
0
LINE
8
layer1
10
-6.3363848
20
-7.1479198
11
-6.3718526
21
-7.1626111
0
LINE
8
layer1
10
-6.3718526
20
-7.1626111
11
-6.409406
21
-7.1819706
0
LINE
8
layer1
10
-6.409406
20
-7.1819706
11
-6.4488558
21
-7.2060978
0
LINE
8
layer1
10
-6.4488558
20
-7.2060978
11
-6.5327179
21
-7.2689795
0
LINE
8
layer1
10
-6.5327179
20
-7.2689795
11
-6.6730566
21
-7.3970509
0
LINE
8
layer1
10
-6.6730566
20
-7.3970509
11
-6.7927664
21
-7.4886207
0
LINE
8
layer1
10
-6.7927664
20
-7.4886207
11
-6.8762484
21
-7.5448347
0
LINE
8
layer1
10
-6.8762484
20
-7.5448347
11
-6.9780476
21
-7.6073535
0
LINE
8
layer1
10
-6.9780476
20
-7.6073535
11
-7.0972698
21
-7.6738207
0
LINE
8
layer1
10
-7.0972698
20
-7.6738207
11
-7.2330091
21
-7.7422344
0
LINE
8
layer1
10
-7.2330091
20
-7.7422344
11
-7.3885543
21
-7.8126449
0
LINE
8
layer1
10
-7.3885543
20
-7.8126449
11
-7.5624849
21
-7.8827573
0
LINE
8
layer1
10
-7.5624849
20
-7.8827573
11
-7.7548779
21
-7.9511287
0
LINE
8
layer1
10
-7.7548779
20
-7.9511287
11
-7.9676978
21
-8.0168704
0
LINE
8
layer1
10
-7.9676978
20
-8.0168704
11
-8.1879961
21
-8.0750463
0
ARC
8
layer1
10
0.0000109
20
0.0000104
40
11.5
50
221.112212
51
224.6020755
0
LINE
8
layer1
10
-8.6643566
20
-7.5616518
11
-8.5898804
21
-7.346317
0
LINE
8
layer1
10
-8.5898804
20
-7.346317
11
-8.5084185
21
-7.1390051
0
LINE
8
layer1
10
-8.5084185
20
-7.1390051
11
-8.4258607
21
-6.9522595
0
LINE
8
layer1
10
-8.4258607
20
-6.9522595
11
-8.3429465
21
-6.7840548
0
LINE
8
layer1
10
-8.3429465
20
-6.7840548
11
-8.261109
21
-6.6342062
0
LINE
8
layer1
10
-8.261109
20
-6.6342062
11
-8.1827428
21
-6.5039591
0
LINE
8
layer1
10
-8.1827428
20
-6.5039591
11
-8.1075519
21
-6.3900374
0
LINE
8
layer1
10
-8.1075519
20
-6.3900374
11
-8.0376004
21
-6.2931948
0
LINE
8
layer1
10
-8.0376004
20
-6.2931948
11
-7.9753051
21
-6.2141471
0
LINE
8
layer1
10
-7.9753051
20
-6.2141471
11
-7.8750453
21
-6.1016151
0
LINE
8
layer1
10
-7.8750453
20
-6.1016151
11
-7.7368445
21
-5.9712396
0
LINE
8
layer1
10
-7.7368445
20
-5.9712396
11
-7.6678717
21
-5.8923112
0
LINE
8
layer1
10
-7.6678717
20
-5.8923112
11
-7.6408638
21
-5.8547747
0
LINE
8
layer1
10
-7.6408638
20
-5.8547747
11
-7.6187521
21
-5.818773
0
LINE
8
layer1
10
-7.6187521
20
-5.818773
11
-7.6014514
21
-5.7845022
0
LINE
8
layer1
10
-7.6014514
20
-5.7845022
11
-7.5888793
21
-5.7521362
0
LINE
8
layer1
10
-7.5888793
20
-5.7521362
11
-7.5809589
21
-5.7218765
0
LINE
8
layer1
10
-7.5809589
20
-5.7218765
11
-7.5775749
21
-5.6938746
0
LINE
8
layer1
10
-7.5775749
20
-5.6938746
11
-7.5786448
21
-5.6683404
0
LINE
8
layer1
10
-7.5786448
20
-5.6683404
11
-7.5840448
21
-5.6454196
0
LINE
8
layer1
10
-7.5840448
20
-5.6454196
11
-7.593679
21
-5.6252888
0
LINE
8
layer1
10
-7.593679
20
-5.6252888
11
-7.6219716
21
-5.5864716
0
LINE
8
layer1
10
-7.6219716
20
-5.5864716
11
-7.8079564
21
-5.3233745
0
LINE
8
layer1
10
-7.8079564
20
-5.3233745
11
-7.9849187
21
-5.054126
0
LINE
8
layer1
10
-7.9849187
20
-5.054126
11
-8.0107161
21
-5.0136077
0
LINE
8
layer1
10
-8.0107161
20
-5.0136077
11
-8.0259356
21
-4.9972849
0
LINE
8
layer1
10
-8.0259356
20
-4.9972849
11
-8.0452991
21
-4.9838842
0
LINE
8
layer1
10
-8.0452991
20
-4.9838842
11
-8.0686774
21
-4.9735596
0
LINE
8
layer1
10
-8.0686774
20
-4.9735596
11
-8.0959799
21
-4.9664794
0
LINE
8
layer1
10
-8.0959799
20
-4.9664794
11
-8.1270415
21
-4.9627972
0
LINE
8
layer1
10
-8.1270415
20
-4.9627972
11
-8.1617633
21
-4.9626756
0
LINE
8
layer1
10
-8.1617633
20
-4.9626756
11
-8.1999858
21
-4.9662599
0
LINE
8
layer1
10
-8.1999858
20
-4.9662599
11
-8.2415771
21
-4.9736902
0
LINE
8
layer1
10
-8.2415771
20
-4.9736902
11
-8.2863859
21
-4.9851175
0
LINE
8
layer1
10
-8.2863859
20
-4.9851175
11
-8.3850569
21
-5.0204867
0
LINE
8
layer1
10
-8.3850569
20
-5.0204867
11
-8.5569105
21
-5.1015027
0
LINE
8
layer1
10
-8.5569105
20
-5.1015027
11
-8.6982926
21
-5.1537192
0
LINE
8
layer1
10
-8.6982926
20
-5.1537192
11
-8.794635
21
-5.182829
0
LINE
8
layer1
10
-8.794635
20
-5.182829
11
-8.9103394
21
-5.2125645
0
LINE
8
layer1
10
-8.9103394
20
-5.2125645
11
-9.0438564
21
-5.2409374
0
LINE
8
layer1
10
-9.0438564
20
-5.2409374
11
-9.1937304
21
-5.2663018
0
LINE
8
layer1
10
-9.1937304
20
-5.2663018
11
-9.3631191
21
-5.2877363
0
LINE
8
layer1
10
-9.3631191
20
-5.2877363
11
-9.5499884
21
-5.3034669
0
LINE
8
layer1
10
-9.5499884
20
-5.3034669
11
-9.7539867
21
-5.312092
0
LINE
8
layer1
10
-9.7539867
20
-5.312092
11
-9.9767294
21
-5.3121832
0
LINE
8
layer1
10
-9.9767294
20
-5.3121832
11
-10.2043881
21
-5.3028405
0
ARC
8
layer1
10
0.000014
20
0.0000057
40
11.5
50
203.9693493
51
207.4592129
0
LINE
8
layer1
10
-10.5082595
20
-4.6718449
11
-10.3736211
21
-4.488029
0
LINE
8
layer1
10
-10.3736211
20
-4.488029
11
-10.234672
21
-4.3139387
0
LINE
8
layer1
10
-10.234672
20
-4.3139387
11
-10.1007378
21
-4.159824
0
LINE
8
layer1
10
-10.1007378
20
-4.159824
11
-9.971928
21
-4.0235316
0
LINE
8
layer1
10
-9.971928
20
-4.0235316
11
-9.8495577
21
-3.9044624
0
LINE
8
layer1
10
-9.8495577
20
-3.9044624
11
-9.7362821
21
-3.8031006
0
LINE
8
layer1
10
-9.7362821
20
-3.8031006
11
-9.6308527
21
-3.716403
0
LINE
8
layer1
10
-9.6308527
20
-3.716403
11
-9.5354641
21
-3.6444815
0
LINE
8
layer1
10
-9.5354641
20
-3.6444815
11
-9.4526367
21
-3.5873076
0
LINE
8
layer1
10
-9.4526367
20
-3.5873076
11
-9.3236618
21
-3.5093271
0
LINE
8
layer1
10
-9.3236618
20
-3.5093271
11
-9.153172
21
-3.4254792
0
LINE
8
layer1
10
-9.153172
20
-3.4254792
11
-9.0639989
21
-3.3703874
0
LINE
8
layer1
10
-9.0639989
20
-3.3703874
11
-9.0271268
21
-3.3424793
0
LINE
8
layer1
10
-9.0271268
20
-3.3424793
11
-8.9953858
21
-3.3145947
0
LINE
8
layer1
10
-8.9953858
20
-3.3145947
11
-8.9687522
21
-3.2869459
0
LINE
8
layer1
10
-8.9687522
20
-3.2869459
11
-8.9471986
21
-3.2597234
0
LINE
8
layer1
10
-8.9471986
20
-3.2597234
11
-8.9307109
21
-3.2331427
0
LINE
8
layer1
10
-8.9307109
20
-3.2331427
11
-8.9192236
21
-3.2073823
0
LINE
8
layer1
10
-8.9192236
20
-3.2073823
11
-8.9127195
21
-3.1826672
0
LINE
8
layer1
10
-8.9127195
20
-3.1826672
11
-8.9111236
21
-3.159173
0
LINE
8
layer1
10
-8.9111236
20
-3.159173
11
-8.9143961
21
-3.1370968
0
LINE
8
layer1
10
-8.9143961
20
-3.1370968
11
-8.9299902
21
-3.0916648
0
LINE
8
layer1
10
-8.9299902
20
-3.0916648
11
-9.030163
21
-2.7854364
0
LINE
8
layer1
10
-9.030163
20
-2.7854364
11
-9.119901
21
-2.4759893
0
LINE
8
layer1
10
-9.119901
20
-2.4759893
11
-9.1326092
21
-2.4296671
0
LINE
8
layer1
10
-9.1326092
20
-2.4296671
11
-9.1423414
21
-2.4095835
0
LINE
8
layer1
10
-9.1423414
20
-2.4095835
11
-9.1568947
21
-2.3910707
0
LINE
8
layer1
10
-9.1568947
20
-2.3910707
11
-9.1761911
21
-2.3743139
0
LINE
8
layer1
10
-9.1761911
20
-2.3743139
11
-9.2001938
21
-2.3595007
0
LINE
8
layer1
10
-9.2001938
20
-2.3595007
11
-9.22879
21
-2.3468265
0
LINE
8
layer1
10
-9.22879
20
-2.3468265
11
-9.2619334
21
-2.3364759
0
LINE
8
layer1
10
-9.2619334
20
-2.3364759
11
-9.2995142
21
-2.3286346
0
LINE
8
layer1
10
-9.2995142
20
-2.3286346
11
-9.3414479
21
-2.3234756
0
LINE
8
layer1
10
-9.3414479
20
-2.3234756
11
-9.3876342
21
-2.3211876
0
LINE
8
layer1
10
-9.3876342
20
-2.3211876
11
-9.4923468
21
-2.3259016
0
LINE
8
layer1
10
-9.4923468
20
-2.3259016
11
-9.6804453
21
-2.3526636
0
LINE
8
layer1
10
-9.6804453
20
-2.3526636
11
-9.8309372
21
-2.3608872
0
LINE
8
layer1
10
-9.8309372
20
-2.3608872
11
-9.9315797
21
-2.3603063
0
LINE
8
layer1
10
-9.9315797
20
-2.3603063
11
-10.0509083
21
-2.3546162
0
LINE
8
layer1
10
-10.0509083
20
-2.3546162
11
-10.1868567
21
-2.3423738
0
LINE
8
layer1
10
-10.1868567
20
-2.3423738
11
-10.3375485
21
-2.3224352
0
LINE
8
layer1
10
-10.3375485
20
-2.3224352
11
-10.5057296
21
-2.2929893
0
LINE
8
layer1
10
-10.5057296
20
-2.2929893
11
-10.6889335
21
-2.2529403
0
LINE
8
layer1
10
-10.6889335
20
-2.2529403
11
-10.8864111
21
-2.2010526
0
LINE
8
layer1
10
-10.8864111
20
-2.2010526
11
-11.0992848
21
-2.1354852
0
LINE
8
layer1
10
-11.0992848
20
-2.1354852
11
-11.3140754
21
-2.059454
0
ARC
8
layer1
10
0.0000149
20
0.0000024
40
11.5
50
186.8264977
51
190.3163613
0
LINE
8
layer1
10
-11.4184575
20
-1.3669241
11
-11.23562
21
-1.23096
0
LINE
8
layer1
10
-11.23562
20
-1.23096
11
-11.05153
21
-1.10556
0
LINE
8
layer1
10
-11.05153
20
-1.10556
11
-10.87812
21
-0.99777
0
LINE
8
layer1
10
-10.87812
20
-0.99777
11
-10.71486
21
-0.9055
0
LINE
8
layer1
10
-10.71486
20
-0.9055
11
-10.56283
21
-0.82779
0
LINE
8
layer1
10
-10.56283
20
-0.82779
11
-10.42471
21
-0.76432
0
LINE
8
layer1
10
-10.42471
20
-0.76432
11
-10.29841
21
-0.71255
0
LINE
8
layer1
10
-10.29841
20
-0.71255
11
-10.18606
21
-0.67194
0
LINE
8
layer1
10
-10.18606
20
-0.67194
11
-10.09006
21
-0.64172
0
LINE
8
layer1
10
-10.09006
20
-0.64172
11
-9.94383
21
-0.60522
0
LINE
8
layer1
10
-9.94383
20
-0.60522
11
-9.7562
21
-0.57535
0
LINE
8
layer1
10
-9.7562
20
-0.57535
11
-9.65475
21
-0.54899
0
LINE
8
layer1
10
-9.65475
20
-0.54899
11
-9.61129
21
-0.53319
0
LINE
8
layer1
10
-9.61129
20
-0.53319
11
-9.57274
21
-0.5159
0
LINE
8
layer1
10
-9.57274
20
-0.5159
11
-9.53914
21
-0.49733
0
LINE
8
layer1
10
-9.53914
20
-0.49733
11
-9.51052
21
-0.47767
0
LINE
8
layer1
10
-9.51052
20
-0.47767
11
-9.48693
21
-0.45713
0
LINE
8
layer1
10
-9.48693
20
-0.45713
11
-9.46836
21
-0.4359
0
LINE
8
layer1
10
-9.46836
20
-0.4359
11
-9.45486
21
-0.4142
0
LINE
8
layer1
10
-9.45486
20
-0.4142
11
-9.44641
21
-0.39222
0
LINE
8
layer1
10
-9.44641
20
-0.39222
11
-9.44303
21
-0.37016
0
LINE
8
layer1
10
-9.44303
20
-0.37016
11
-9.44454
21
-0.32215
0
LINE
8
layer1
10
-9.44454
20
-0.32215
11
-9.45
21
0
0
LINE
8
layer1
10
-9.45
20
0
11
-9.44454
21
0.32215
0
LINE
8
layer1
10
-9.44454
20
0.32215
11
-9.44303
21
0.37016
0
LINE
8
layer1
10
-9.44303
20
0.37016
11
-9.44641
21
0.39222
0
LINE
8
layer1
10
-9.44641
20
0.39222
11
-9.45486
21
0.4142
0
LINE
8
layer1
10
-9.45486
20
0.4142
11
-9.46836
21
0.4359
0
LINE
8
layer1
10
-9.46836
20
0.4359
11
-9.48693
21
0.45713
0
LINE
8
layer1
10
-9.48693
20
0.45713
11
-9.51052
21
0.47767
0
LINE
8
layer1
10
-9.51052
20
0.47767
11
-9.53914
21
0.49733
0
LINE
8
layer1
10
-9.53914
20
0.49733
11
-9.57274
21
0.5159
0
LINE
8
layer1
10
-9.57274
20
0.5159
11
-9.61129
21
0.53319
0
LINE
8
layer1
10
-9.61129
20
0.53319
11
-9.65475
21
0.54899
0
LINE
8
layer1
10
-9.65475
20
0.54899
11
-9.7562
21
0.57535
0
LINE
8
layer1
10
-9.7562
20
0.57535
11
-9.94383
21
0.60522
0
LINE
8
layer1
10
-9.94383
20
0.60522
11
-10.09006
21
0.64172
0
LINE
8
layer1
10
-10.09006
20
0.64172
11
-10.18606
21
0.67194
0
LINE
8
layer1
10
-10.18606
20
0.67194
11
-10.29841
21
0.71255
0
LINE
8
layer1
10
-10.29841
20
0.71255
11
-10.42471
21
0.76432
0
LINE
8
layer1
10
-10.42471
20
0.76432
11
-10.56283
21
0.82779
0
LINE
8
layer1
10
-10.56283
20
0.82779
11
-10.71486
21
0.9055
0
LINE
8
layer1
10
-10.71486
20
0.9055
11
-10.87812
21
0.99777
0
LINE
8
layer1
10
-10.87812
20
0.99777
11
-11.05153
21
1.10556
0
LINE
8
layer1
10
-11.05153
20
1.10556
11
-11.23562
21
1.23096
0
LINE
8
layer1
10
-11.23562
20
1.23096
11
-11.4184575
21
1.3669241
0
ARC
8
layer1
10
0.0000149
20
-0.0000024
40
11.5
50
169.6836387
51
173.1735023
0
LINE
8
layer1
10
-11.3140754
20
2.059454
11
-11.0992848
21
2.1354852
0
LINE
8
layer1
10
-11.0992848
20
2.1354852
11
-10.8864111
21
2.2010526
0
LINE
8
layer1
10
-10.8864111
20
2.2010526
11
-10.6889335
21
2.2529403
0
LINE
8
layer1
10
-10.6889335
20
2.2529403
11
-10.5057296
21
2.2929893
0
LINE
8
layer1
10
-10.5057296
20
2.2929893
11
-10.3375485
21
2.3224352
0
LINE
8
layer1
10
-10.3375485
20
2.3224352
11
-10.1868567
21
2.3423738
0
LINE
8
layer1
10
-10.1868567
20
2.3423738
11
-10.0509083
21
2.3546162
0
LINE
8
layer1
10
-10.0509083
20
2.3546162
11
-9.9315797
21
2.3603063
0
LINE
8
layer1
10
-9.9315797
20
2.3603063
11
-9.8309372
21
2.3608872
0
LINE
8
layer1
10
-9.8309372
20
2.3608872
11
-9.6804453
21
2.3526636
0
LINE
8
layer1
10
-9.6804453
20
2.3526636
11
-9.4923468
21
2.3259016
0
LINE
8
layer1
10
-9.4923468
20
2.3259016
11
-9.3876342
21
2.3211876
0
LINE
8
layer1
10
-9.3876342
20
2.3211876
11
-9.3414479
21
2.3234756
0
LINE
8
layer1
10
-9.3414479
20
2.3234756
11
-9.2995142
21
2.3286346
0
LINE
8
layer1
10
-9.2995142
20
2.3286346
11
-9.2619334
21
2.3364759
0
LINE
8
layer1
10
-9.2619334
20
2.3364759
11
-9.22879
21
2.3468265
0
LINE
8
layer1
10
-9.22879
20
2.3468265
11
-9.2001938
21
2.3595007
0
LINE
8
layer1
10
-9.2001938
20
2.3595007
11
-9.1761911
21
2.3743139
0
LINE
8
layer1
10
-9.1761911
20
2.3743139
11
-9.1568947
21
2.3910707
0
LINE
8
layer1
10
-9.1568947
20
2.3910707
11
-9.1423414
21
2.4095835
0
LINE
8
layer1
10
-9.1423414
20
2.4095835
11
-9.1326092
21
2.4296671
0
LINE
8
layer1
10
-9.1326092
20
2.4296671
11
-9.119901
21
2.4759893
0
LINE
8
layer1
10
-9.119901
20
2.4759893
11
-9.030163
21
2.7854364
0
LINE
8
layer1
10
-9.030163
20
2.7854364
11
-8.9299902
21
3.0916648
0
LINE
8
layer1
10
-8.9299902
20
3.0916648
11
-8.9143961
21
3.1370968
0
LINE
8
layer1
10
-8.9143961
20
3.1370968
11
-8.9111236
21
3.159173
0
LINE
8
layer1
10
-8.9111236
20
3.159173
11
-8.9127195
21
3.1826672
0
LINE
8
layer1
10
-8.9127195
20
3.1826672
11
-8.9192236
21
3.2073823
0
LINE
8
layer1
10
-8.9192236
20
3.2073823
11
-8.9307109
21
3.2331427
0
LINE
8
layer1
10
-8.9307109
20
3.2331427
11
-8.9471986
21
3.2597234
0
LINE
8
layer1
10
-8.9471986
20
3.2597234
11
-8.9687522
21
3.2869459
0
LINE
8
layer1
10
-8.9687522
20
3.2869459
11
-8.9953858
21
3.3145947
0
LINE
8
layer1
10
-8.9953858
20
3.3145947
11
-9.0271268
21
3.3424793
0
LINE
8
layer1
10
-9.0271268
20
3.3424793
11
-9.0639989
21
3.3703874
0
LINE
8
layer1
10
-9.0639989
20
3.3703874
11
-9.153172
21
3.4254792
0
LINE
8
layer1
10
-9.153172
20
3.4254792
11
-9.3236618
21
3.5093271
0
LINE
8
layer1
10
-9.3236618
20
3.5093271
11
-9.4526367
21
3.5873076
0
LINE
8
layer1
10
-9.4526367
20
3.5873076
11
-9.5354641
21
3.6444815
0
LINE
8
layer1
10
-9.5354641
20
3.6444815
11
-9.6308527
21
3.716403
0
LINE
8
layer1
10
-9.6308527
20
3.716403
11
-9.7362821
21
3.8031006
0
LINE
8
layer1
10
-9.7362821
20
3.8031006
11
-9.8495577
21
3.9044624
0
LINE
8
layer1
10
-9.8495577
20
3.9044624
11
-9.971928
21
4.0235316
0
LINE
8
layer1
10
-9.971928
20
4.0235316
11
-10.1007378
21
4.159824
0
LINE
8
layer1
10
-10.1007378
20
4.159824
11
-10.234672
21
4.3139387
0
LINE
8
layer1
10
-10.234672
20
4.3139387
11
-10.3736211
21
4.488029
0
LINE
8
layer1
10
-10.3736211
20
4.488029
11
-10.5082595
21
4.6718449
0
ARC
8
layer1
10
0.000014
20
-0.0000056
40
11.5
50
152.5407875
51
156.0306512
0
LINE
8
layer1
10
-10.2043881
20
5.3028405
11
-9.9767294
21
5.3121832
0
LINE
8
layer1
10
-9.9767294
20
5.3121832
11
-9.7539867
21
5.312092
0
LINE
8
layer1
10
-9.7539867
20
5.312092
11
-9.5499884
21
5.3034669
0
LINE
8
layer1
10
-9.5499884
20
5.3034669
11
-9.3631191
21
5.2877363
0
LINE
8
layer1
10
-9.3631191
20
5.2877363
11
-9.1937304
21
5.2663018
0
LINE
8
layer1
10
-9.1937304
20
5.2663018
11
-9.0438564
21
5.2409374
0
LINE
8
layer1
10
-9.0438564
20
5.2409374
11
-8.9103394
21
5.2125645
0
LINE
8
layer1
10
-8.9103394
20
5.2125645
11
-8.794635
21
5.182829
0
LINE
8
layer1
10
-8.794635
20
5.182829
11
-8.6982926
21
5.1537192
0
LINE
8
layer1
10
-8.6982926
20
5.1537192
11
-8.5569105
21
5.1015027
0
LINE
8
layer1
10
-8.5569105
20
5.1015027
11
-8.3850569
21
5.0204867
0
LINE
8
layer1
10
-8.3850569
20
5.0204867
11
-8.2863859
21
4.9851175
0
LINE
8
layer1
10
-8.2863859
20
4.9851175
11
-8.2415771
21
4.9736902
0
LINE
8
layer1
10
-8.2415771
20
4.9736902
11
-8.1999858
21
4.9662599
0
LINE
8
layer1
10
-8.1999858
20
4.9662599
11
-8.1617633
21
4.9626756
0
LINE
8
layer1
10
-8.1617633
20
4.9626756
11
-8.1270415
21
4.9627972
0
LINE
8
layer1
10
-8.1270415
20
4.9627972
11
-8.0959799
21
4.9664794
0
LINE
8
layer1
10
-8.0959799
20
4.9664794
11
-8.0686774
21
4.9735596
0
LINE
8
layer1
10
-8.0686774
20
4.9735596
11
-8.0452991
21
4.9838842
0
LINE
8
layer1
10
-8.0452991
20
4.9838842
11
-8.0259356
21
4.9972849
0
LINE
8
layer1
10
-8.0259356
20
4.9972849
11
-8.0107161
21
5.0136077
0
LINE
8
layer1
10
-8.0107161
20
5.0136077
11
-7.9849187
21
5.054126
0
LINE
8
layer1
10
-7.9849187
20
5.054126
11
-7.8079564
21
5.3233745
0
LINE
8
layer1
10
-7.8079564
20
5.3233745
11
-7.6219716
21
5.5864716
0
LINE
8
layer1
10
-7.6219716
20
5.5864716
11
-7.593679
21
5.6252888
0
LINE
8
layer1
10
-7.593679
20
5.6252888
11
-7.5840448
21
5.6454196
0
LINE
8
layer1
10
-7.5840448
20
5.6454196
11
-7.5786448
21
5.6683404
0
LINE
8
layer1
10
-7.5786448
20
5.6683404
11
-7.5775749
21
5.6938746
0
LINE
8
layer1
10
-7.5775749
20
5.6938746
11
-7.5809589
21
5.7218765
0
LINE
8
layer1
10
-7.5809589
20
5.7218765
11
-7.5888793
21
5.7521362
0
LINE
8
layer1
10
-7.5888793
20
5.7521362
11
-7.6014514
21
5.7845022
0
LINE
8
layer1
10
-7.6014514
20
5.7845022
11
-7.6187521
21
5.818773
0
LINE
8
layer1
10
-7.6187521
20
5.818773
11
-7.6408638
21
5.8547747
0
LINE
8
layer1
10
-7.6408638
20
5.8547747
11
-7.6678717
21
5.8923112
0
LINE
8
layer1
10
-7.6678717
20
5.8923112
11
-7.7368445
21
5.9712396
0
LINE
8
layer1
10
-7.7368445
20
5.9712396
11
-7.8750453
21
6.1016151
0
LINE
8
layer1
10
-7.8750453
20
6.1016151
11
-7.9753051
21
6.2141471
0
LINE
8
layer1
10
-7.9753051
20
6.2141471
11
-8.0376004
21
6.2931948
0
LINE
8
layer1
10
-8.0376004
20
6.2931948
11
-8.1075519
21
6.3900374
0
LINE
8
layer1
10
-8.1075519
20
6.3900374
11
-8.1827428
21
6.5039591
0
LINE
8
layer1
10
-8.1827428
20
6.5039591
11
-8.261109
21
6.6342062
0
LINE
8
layer1
10
-8.261109
20
6.6342062
11
-8.3429465
21
6.7840548
0
LINE
8
layer1
10
-8.3429465
20
6.7840548
11
-8.4258607
21
6.9522595
0
LINE
8
layer1
10
-8.4258607
20
6.9522595
11
-8.5084185
21
7.1390051
0
LINE
8
layer1
10
-8.5084185
20
7.1390051
11
-8.5898804
21
7.346317
0
LINE
8
layer1
10
-8.5898804
20
7.346317
11
-8.6643566
21
7.5616518
0
ARC
8
layer1
10
0.0000109
20
-0.0000105
40
11.5
50
135.3979241
51
138.8877876
0
LINE
8
layer1
10
-8.1879961
20
8.0750463
11
-7.9676978
21
8.0168704
0
LINE
8
layer1
10
-7.9676978
20
8.0168704
11
-7.7548779
21
7.9511287
0
LINE
8
layer1
10
-7.7548779
20
7.9511287
11
-7.5624849
21
7.8827573
0
LINE
8
layer1
10
-7.5624849
20
7.8827573
11
-7.3885543
21
7.8126449
0
LINE
8
layer1
10
-7.3885543
20
7.8126449
11
-7.2330091
21
7.7422344
0
LINE
8
layer1
10
-7.2330091
20
7.7422344
11
-7.0972698
21
7.6738207
0
LINE
8
layer1
10
-7.0972698
20
7.6738207
11
-6.9780476
21
7.6073535
0
LINE
8
layer1
10
-6.9780476
20
7.6073535
11
-6.8762484
21
7.5448347
0
LINE
8
layer1
10
-6.8762484
20
7.5448347
11
-6.7927664
21
7.4886207
0
LINE
8
layer1
10
-6.7927664
20
7.4886207
11
-6.6730566
21
7.3970509
0
LINE
8
layer1
10
-6.6730566
20
7.3970509
11
-6.5327179
21
7.2689795
0
LINE
8
layer1
10
-6.5327179
20
7.2689795
11
-6.4488558
21
7.2060978
0
LINE
8
layer1
10
-6.4488558
20
7.2060978
11
-6.409406
21
7.1819706
0
LINE
8
layer1
10
-6.409406
20
7.1819706
11
-6.3718526
21
7.1626111
0
LINE
8
layer1
10
-6.3718526
20
7.1626111
11
-6.3363848
21
7.1479198
0
LINE
8
layer1
10
-6.3363848
20
7.1479198
11
-6.3031697
21
7.1378016
0
LINE
8
layer1
10
-6.3031697
20
7.1378016
11
-6.2724027
21
7.1321647
0
LINE
8
layer1
10
-6.2724027
20
7.1321647
11
-6.2442262
21
7.1308827
0
LINE
8
layer1
10
-6.2442262
20
7.1308827
11
-6.2188434
21
7.1338577
0
LINE
8
layer1
10
-6.2188434
20
7.1338577
11
-6.1963902
21
7.1409556
0
LINE
8
layer1
10
-6.1963902
20
7.1409556
11
-6.1770356
21
7.1520672
0
LINE
8
layer1
10
-6.1770356
20
7.1520672
11
-6.1404414
21
7.1831815
0
LINE
8
layer1
10
-6.1404414
20
7.1831815
11
-5.8919786
21
7.3883075
0
LINE
8
layer1
10
-5.8919786
20
7.3883075
11
-5.6367074
21
7.5848959
0
LINE
8
layer1
10
-5.6367074
20
7.5848959
11
-5.5982302
21
7.6136491
0
LINE
8
layer1
10
-5.5982302
20
7.6136491
11
-5.5830904
21
7.6300459
0
LINE
8
layer1
10
-5.5830904
20
7.6300459
11
-5.5711742
21
7.6503567
0
LINE
8
layer1
10
-5.5711742
20
7.6503567
11
-5.5626256
21
7.6744411
0
LINE
8
layer1
10
-5.5626256
20
7.6744411
11
-5.5576055
21
7.7021964
0
LINE
8
layer1
10
-5.5576055
20
7.7021964
11
-5.5562548
21
7.7334463
0
LINE
8
layer1
10
-5.5562548
20
7.7334463
11
-5.5587283
21
7.7680802
0
LINE
8
layer1
10
-5.5587283
20
7.7680802
11
-5.5651589
21
7.8059279
0
LINE
8
layer1
10
-5.5651589
20
7.8059279
11
-5.5756766
21
7.8468476
0
LINE
8
layer1
10
-5.5756766
20
7.8468476
11
-5.5904205
21
7.8906772
0
LINE
8
layer1
10
-5.5904205
20
7.8906772
11
-5.6330645
21
7.9864292
0
LINE
8
layer1
10
-5.6330645
20
7.9864292
11
-5.7266965
21
8.1517478
0
LINE
8
layer1
10
-5.7266965
20
8.1517478
11
-5.7893326
21
8.2888324
0
LINE
8
layer1
10
-5.7893326
20
8.2888324
11
-5.8255607
21
8.3827301
0
LINE
8
layer1
10
-5.8255607
20
8.3827301
11
-5.8638596
21
8.4958888
0
LINE
8
layer1
10
-5.8638596
20
8.4958888
11
-5.9021309
21
8.6269122
0
LINE
8
layer1
10
-5.9021309
20
8.6269122
11
-5.9386245
21
8.7744717
0
LINE
8
layer1
10
-5.9386245
20
8.7744717
11
-5.9726575
21
8.9417849
0
LINE
8
layer1
10
-5.9726575
20
8.9417849
11
-6.0023089
21
9.1269561
0
LINE
8
layer1
10
-6.0023089
20
9.1269561
11
-6.0261546
21
9.3297395
0
LINE
8
layer1
10
-6.0261546
20
9.3297395
11
-6.0428912
21
9.5518524
0
LINE
8
layer1
10
-6.0428912
20
9.5518524
11
-6.0505875
21
9.7795728
0
ARC
8
layer1
10
0.0000075
20
-0.0000131
40
11.5
50
118.2550679
51
121.7449313
0
LINE
8
layer1
10
-5.4440647
20
10.1297489
11
-5.2507013
21
10.0092235
0
LINE
8
layer1
10
-5.2507013
20
10.0092235
11
-5.0667141
21
9.8836727
0
LINE
8
layer1
10
-5.0667141
20
9.8836727
11
-4.9030214
21
9.76163
0
LINE
8
layer1
10
-4.9030214
20
9.76163
11
-4.7574841
21
9.6433656
0
LINE
8
layer1
10
-4.7574841
20
9.6433656
11
-4.6296031
21
9.5302355
0
LINE
8
layer1
10
-4.6296031
20
9.5302355
11
-4.5200597
21
9.4248514
0
LINE
8
layer1
10
-4.5200597
20
9.4248514
11
-4.4257257
21
9.3261958
0
LINE
8
layer1
10
-4.4257257
20
9.3261958
11
-4.3468769
21
9.2364486
0
LINE
8
layer1
10
-4.3468769
20
9.2364486
11
-4.2836732
21
9.1581253
0
LINE
8
layer1
10
-4.2836732
20
9.1581253
11
-4.1962724
21
9.0353386
0
LINE
8
layer1
10
-4.1962724
20
9.0353386
11
-4.0999183
21
8.8715915
0
LINE
8
layer1
10
-4.0999183
20
8.8715915
11
-4.0383166
21
8.7867848
0
LINE
8
layer1
10
-4.0383166
20
8.7867848
11
-4.0077311
21
8.7521014
0
LINE
8
layer1
10
-4.0077311
20
8.7521014
11
-3.9775524
21
8.7225329
0
LINE
8
layer1
10
-3.9775524
20
8.7225329
11
-3.9479906
21
8.69804
0
LINE
8
layer1
10
-3.9479906
20
8.69804
11
-3.9192336
21
8.678581
0
LINE
8
layer1
10
-3.9192336
20
8.678581
11
-3.891495
21
8.6641257
0
LINE
8
layer1
10
-3.891495
20
8.6641257
11
-3.8649482
21
8.6545956
0
LINE
8
layer1
10
-3.8649482
20
8.6545956
11
-3.8398161
21
8.6499567
0
LINE
8
layer1
10
-3.8398161
20
8.6499567
11
-3.8162684
21
8.650121
0
LINE
8
layer1
10
-3.8162684
20
8.650121
11
-3.7944985
21
8.6550341
0
LINE
8
layer1
10
-3.7944985
20
8.6550341
11
-3.7503589
21
8.6739797
0
LINE
8
layer1
10
-3.7503589
20
8.6739797
11
-3.4524727
21
8.7967569
0
LINE
8
layer1
10
-3.4524727
20
8.7967569
11
-3.1505969
21
8.909369
0
LINE
8
layer1
10
-3.1505969
20
8.909369
11
-3.105354
21
8.9255034
0
LINE
8
layer1
10
-3.105354
20
8.9255034
11
-3.0860538
21
8.9367091
0
LINE
8
layer1
10
-3.0860538
20
8.9367091
11
-3.0686803
21
8.9526052
0
LINE
8
layer1
10
-3.0686803
20
8.9526052
11
-3.0534125
21
8.9730999
0
LINE
8
layer1
10
-3.0534125
20
8.9730999
11
-3.0404344
21
8.9981424
0
LINE
8
layer1
10
-3.0404344
20
8.9981424
11
-3.0299327
21
9.0276059
0
LINE
8
layer1
10
-3.0299327
20
9.0276059
11
-3.0220877
21
9.0614301
0
LINE
8
layer1
10
-3.0220877
20
9.0614301
11
-3.0170769
21
9.0994918
0
LINE
8
layer1
10
-3.0170769
20
9.0994918
11
-3.015066
21
9.1416937
0
LINE
8
layer1
10
-3.015066
20
9.1416937
11
-3.0162359
21
9.1879219
0
LINE
8
layer1
10
-3.0162359
20
9.1879219
11
-3.0287619
21
9.2919894
0
LINE
8
layer1
10
-3.0287619
20
9.2919894
11
-3.0695056
21
9.477562
0
LINE
8
layer1
10
-3.0695056
20
9.477562
11
-3.0889526
21
9.6270186
0
LINE
8
layer1
10
-3.0889526
20
9.6270186
11
-3.0958943
21
9.7274231
0
LINE
8
layer1
10
-3.0958943
20
9.7274231
11
-3.0991376
21
9.8468433
0
LINE
8
layer1
10
-3.0991376
20
9.8468433
11
-3.0970888
21
9.9833263
0
LINE
8
layer1
10
-3.0970888
20
9.9833263
11
-3.0884672
21
10.1350868
0
LINE
8
layer1
10
-3.0884672
20
10.1350868
11
-3.0716717
21
10.3049982
0
LINE
8
layer1
10
-3.0716717
20
10.3049982
11
-3.0454256
21
10.4906827
0
LINE
8
layer1
10
-3.0454256
20
10.4906827
11
-3.0084405
21
10.6914856
0
LINE
8
layer1
10
-3.0084405
20
10.6914856
11
-2.9589646
21
10.9086639
0
LINE
8
layer1
10
-2.9589646
20
10.9086639
11
-2.8991972
21
11.1285358
0
ARC
8
layer1
10
0.000003
20
-0.0000148
40
11.5
50
101.1122094
51
104.6020727
0
LINE
8
layer1
10
-2.2164043
20
11.2843788
11
-2.0671569
21
11.1122132
0
LINE
8
layer1
10
-2.0671569
20
11.1122132
11
-1.9283505
21
10.9380091
0
LINE
8
layer1
10
-1.9283505
20
10.9380091
11
-1.807903
21
10.7731391
0
LINE
8
layer1
10
-1.807903
20
10.7731391
11
-1.7036905
21
10.617231
0
LINE
8
layer1
10
-1.7036905
20
10.617231
11
-1.6148366
21
10.4714334
0
LINE
8
layer1
10
-1.6148366
20
10.4714334
11
-1.5412224
21
10.3384427
0
LINE
8
layer1
10
-1.5412224
20
10.3384427
11
-1.4801587
21
10.2163646
0
LINE
8
layer1
10
-1.4801587
20
10.2163646
11
-1.4312663
21
10.1073636
0
LINE
8
layer1
10
-1.4312663
20
10.1073636
11
-1.3939567
21
10.0138904
0
LINE
8
layer1
10
-1.3939567
20
10.0138904
11
-1.346631
21
9.8707969
0
LINE
8
layer1
10
-1.346631
20
9.8707969
11
-1.3028229
21
9.6859237
0
LINE
8
layer1
10
-1.3028229
20
9.6859237
11
-1.2689553
21
9.5867273
0
LINE
8
layer1
10
-1.2689553
20
9.5867273
11
-1.2499517
21
9.5445695
0
LINE
8
layer1
10
-1.2499517
20
9.5445695
11
-1.2298292
21
9.5074194
0
LINE
8
layer1
10
-1.2298292
20
9.5074194
11
-1.2088002
21
9.4753011
0
LINE
8
layer1
10
-1.2088002
20
9.4753011
11
-1.1870564
21
9.4482303
0
LINE
8
layer1
10
-1.1870564
20
9.4482303
11
-1.1648109
21
9.4262413
0
LINE
8
layer1
10
-1.1648109
20
9.4262413
11
-1.1422526
21
9.4093097
0
LINE
8
layer1
10
-1.1422526
20
9.4093097
11
-1.1196044
21
9.3974691
0
LINE
8
layer1
10
-1.1196044
20
9.3974691
11
-1.0970544
21
9.3906853
0
LINE
8
layer1
10
-1.0970544
20
9.3906853
11
-1.0748035
21
9.3889633
0
LINE
8
layer1
10
-1.0748035
20
9.3889633
11
-1.0270406
21
9.3940569
0
LINE
8
layer1
10
-1.0270406
20
9.3940569
11
-0.7061994
21
9.4235759
0
LINE
8
layer1
10
-0.7061994
20
9.4235759
11
-0.3845422
21
9.4422055
0
LINE
8
layer1
10
-0.3845422
20
9.4422055
11
-0.3365536
21
9.4442875
0
LINE
8
layer1
10
-0.3365536
20
9.4442875
11
-0.3148078
21
9.4493066
0
LINE
8
layer1
10
-0.3148078
20
9.4493066
11
-0.2935208
21
9.4593755
0
LINE
8
layer1
10
-0.2935208
20
9.4593755
11
-0.2728903
21
9.4744594
0
LINE
8
layer1
10
-0.2728903
20
9.4744594
11
-0.2531074
21
9.494564
0
LINE
8
layer1
10
-0.2531074
20
9.494564
11
-0.2343877
21
9.519623
0
LINE
8
layer1
10
-0.2343877
20
9.519623
11
-0.2169215
21
9.5496321
0
LINE
8
layer1
10
-0.2169215
20
9.5496321
11
-0.2009143
21
9.5845259
0
LINE
8
layer1
10
-0.2009143
20
9.5845259
11
-0.1865535
21
9.6242602
0
LINE
8
layer1
10
-0.1865535
20
9.6242602
11
-0.1740455
21
9.6687794
0
LINE
8
layer1
10
-0.1740455
20
9.6687794
11
-0.1553405
21
9.7719156
0
LINE
8
layer1
10
-0.1553405
20
9.7719156
11
-0.1395757
21
9.9612532
0
LINE
8
layer1
10
-0.1395757
20
9.9612532
11
-0.1141055
21
10.1098019
0
LINE
8
layer1
10
-0.1141055
20
10.1098019
11
-0.0911441
21
10.2077918
0
LINE
8
layer1
10
-0.0911441
20
10.2077918
11
-0.0590436
21
10.3228625
0
LINE
8
layer1
10
-0.0590436
20
10.3228625
11
-0.0168567
21
10.4526781
0
LINE
8
layer1
10
-0.0168567
20
10.4526781
11
0.0361141
21
10.595155
0
LINE
8
layer1
10
0.0361141
20
10.595155
11
0.1022455
21
10.7525672
0
LINE
8
layer1
10
0.1022455
20
10.7525672
11
0.1820571
21
10.922266
0
LINE
8
layer1
10
0.1820571
20
10.922266
11
0.2765868
21
11.1032463
0
LINE
8
layer1
10
0.2765868
20
11.1032463
11
0.3878791
21
11.2961927
0
LINE
8
layer1
10
0.3878791
20
11.2961927
11
0.5097995
21
11.4886795
0
ARC
8
layer1
10
-0.0000013
20
-0.0000151
40
11.5
50
83.969353
51
87.4592165
0
LINE
8
layer1
10
1.2081934
20
11.4363421
11
1.3000634
21
11.2278339
0
LINE
8
layer1
10
1.3000634
20
11.2278339
11
1.3813555
21
11.0204553
0
LINE
8
layer1
10
1.3813555
20
11.0204553
11
1.4478556
21
10.8274075
0
LINE
8
layer1
10
1.4478556
20
10.8274075
11
1.5014834
21
10.6477088
0
LINE
8
layer1
10
1.5014834
20
10.6477088
11
1.5434152
21
10.4821984
0
LINE
8
layer1
10
1.5434152
20
10.4821984
11
1.5745593
21
10.333418
0
LINE
8
layer1
10
1.5745593
20
10.333418
11
1.5969269
21
10.1987647
0
LINE
8
layer1
10
1.5969269
20
10.1987647
11
1.6115185
21
10.0801949
0
LINE
8
layer1
10
1.6115185
20
10.0801949
11
1.6196188
21
9.9798773
0
LINE
8
layer1
10
1.6196188
20
9.9798773
11
1.6226645
21
9.8291915
0
LINE
8
layer1
10
1.6226645
20
9.8291915
11
1.610034
21
9.6396191
0
LINE
8
layer1
10
1.610034
20
9.6396191
11
1.6131583
21
9.534847
0
LINE
8
layer1
10
1.6131583
20
9.534847
11
1.6188914
21
9.4889608
0
LINE
8
layer1
10
1.6188914
20
9.4889608
11
1.6271697
21
9.44753
0
LINE
8
layer1
10
1.6271697
20
9.44753
11
1.6377974
21
9.4106402
0
LINE
8
layer1
10
1.6377974
20
9.4106402
11
1.650596
21
9.378363
0
LINE
8
layer1
10
1.650596
20
9.378363
11
1.6653717
21
9.3507939
0
LINE
8
layer1
10
1.6653717
20
9.3507939
11
1.6819372
21
9.3279653
0
LINE
8
layer1
10
1.6819372
20
9.3279653
11
1.7000891
21
9.3099751
0
LINE
8
layer1
10
1.7000891
20
9.3099751
11
1.7196378
21
9.2968459
0
LINE
8
layer1
10
1.7196378
20
9.2968459
11
1.7403925
21
9.2886419
0
LINE
8
layer1
10
1.7403925
20
9.2886419
11
1.7875348
21
9.2794308
0
LINE
8
layer1
10
1.7875348
20
9.2794308
11
2.1028228
21
9.2130688
0
LINE
8
layer1
10
2.1028228
20
9.2130688
11
2.4156809
21
9.1360605
0
LINE
8
layer1
10
2.4156809
20
9.1360605
11
2.4621512
21
9.1239052
0
LINE
8
layer1
10
2.4621512
20
9.1239052
11
2.4844102
21
9.1222916
0
LINE
8
layer1
10
2.4844102
20
9.1222916
11
2.5077194
21
9.1256387
0
LINE
8
layer1
10
2.5077194
20
9.1256387
11
2.5318794
21
9.1339716
0
LINE
8
layer1
10
2.5318794
20
9.1339716
11
2.5567093
21
9.1473519
0
LINE
8
layer1
10
2.5567093
20
9.1473519
11
2.5819836
21
9.1657798
0
LINE
8
layer1
10
2.5819836
20
9.1657798
11
2.6075192
21
9.1893075
0
LINE
8
layer1
10
2.6075192
20
9.1893075
11
2.6331004
21
9.2179329
0
LINE
8
layer1
10
2.6331004
20
9.2179329
11
2.658535
21
9.251669
0
LINE
8
layer1
10
2.658535
20
9.251669
11
2.6836097
21
9.2905235
0
LINE
8
layer1
10
2.6836097
20
9.2905235
11
2.7318835
21
9.3835643
0
LINE
8
layer1
10
2.7318835
20
9.3835643
11
2.8027562
21
9.5598433
0
LINE
8
layer1
10
2.8027562
20
9.5598433
11
2.8708803
21
9.694285
0
LINE
8
layer1
10
2.8708803
20
9.694285
11
2.9217046
21
9.7811535
0
LINE
8
layer1
10
2.9217046
20
9.7811535
11
2.9862967
21
9.8816501
0
LINE
8
layer1
10
2.9862967
20
9.8816501
11
3.0648731
21
9.9932636
0
LINE
8
layer1
10
3.0648731
20
9.9932636
11
3.1574864
21
10.1137972
0
LINE
8
layer1
10
3.1574864
20
10.1137972
11
3.2670779
21
10.2447234
0
LINE
8
layer1
10
3.2670779
20
10.2447234
11
3.3933632
21
10.3833581
0
LINE
8
layer1
10
3.3933632
20
10.3833581
11
3.5370381
21
10.5284348
0
LINE
8
layer1
10
3.5370381
20
10.5284348
11
3.7002579
21
10.6800052
0
LINE
8
layer1
10
3.7002579
20
10.6800052
11
3.8734983
21
10.8280037
0
ARC
8
layer1
10
-0.0000055
20
-0.000014
40
11.5
50
66.8264966
51
70.3163601
0
LINE
8
layer1
10
4.5254378
20
10.5721363
11
4.5517674
21
10.3458123
0
LINE
8
layer1
10
4.5517674
20
10.3458123
11
4.568322
21
10.1236857
0
LINE
8
layer1
10
4.568322
20
10.1236857
11
4.5749658
21
9.9196133
0
LINE
8
layer1
10
4.5749658
20
9.9196133
11
4.573244
21
9.732091
0
LINE
8
layer1
10
4.573244
20
9.732091
11
4.5645278
21
9.5615741
0
LINE
8
layer1
10
4.5645278
20
9.5615741
11
4.5504345
21
9.4102237
0
LINE
8
layer1
10
4.5504345
20
9.4102237
11
4.5321186
21
9.2749597
0
LINE
8
layer1
10
4.5321186
20
9.2749597
11
4.5111129
21
9.1573567
0
LINE
8
layer1
10
4.5111129
20
9.1573567
11
4.4892842
21
9.0591083
0
LINE
8
layer1
10
4.4892842
20
9.0591083
11
4.4477791
21
8.9142194
0
LINE
8
layer1
10
4.4477791
20
8.9142194
11
4.3798323
21
8.736792
0
LINE
8
layer1
10
4.3798323
20
8.736792
11
4.3519357
21
8.6357538
0
LINE
8
layer1
10
4.3519357
20
8.6357538
11
4.3438889
21
8.5902163
0
LINE
8
layer1
10
4.3438889
20
8.5902163
11
4.3395875
21
8.548186
0
LINE
8
layer1
10
4.3395875
20
8.548186
11
4.3388696
21
8.5098026
0
LINE
8
layer1
10
4.3388696
20
8.5098026
11
4.3415856
21
8.4751869
0
LINE
8
layer1
10
4.3415856
20
8.4751869
11
4.3475788
21
8.4444874
0
LINE
8
layer1
10
4.3475788
20
8.4444874
11
4.3566795
21
8.4177903
0
LINE
8
layer1
10
4.3566795
20
8.4177903
11
4.3687223
21
8.3952489
0
LINE
8
layer1
10
4.3687223
20
8.3952489
11
4.3835325
21
8.376941
0
LINE
8
layer1
10
4.3835325
20
8.376941
11
4.400947
21
8.3629839
0
LINE
8
layer1
10
4.400947
20
8.3629839
11
4.4432799
21
8.3402866
0
LINE
8
layer1
10
4.4432799
20
8.3402866
11
4.725
21
8.1839401
0
LINE
8
layer1
10
4.725
20
8.1839401
11
5.0012601
21
8.0181366
0
LINE
8
layer1
10
5.0012601
20
8.0181366
11
5.042083
21
7.9928239
0
LINE
8
layer1
10
5.042083
20
7.9928239
11
5.0628775
21
7.984721
0
LINE
8
layer1
10
5.0628775
20
7.984721
11
5.0861377
21
7.9810489
0
LINE
8
layer1
10
5.0861377
20
7.9810489
11
5.1116805
21
7.9818903
0
LINE
8
layer1
10
5.1116805
20
7.9818903
11
5.1393512
21
7.9873574
0
LINE
8
layer1
10
5.1393512
20
7.9873574
11
5.1689344
21
7.9975169
0
LINE
8
layer1
10
5.1689344
20
7.9975169
11
5.2002704
21
8.0124726
0
LINE
8
layer1
10
5.2002704
20
8.0124726
11
5.2331525
21
8.032286
0
LINE
8
layer1
10
5.2331525
20
8.032286
11
5.2674011
21
8.0570263
0
LINE
8
layer1
10
5.2674011
20
8.0570263
11
5.3028143
21
8.0867638
0
LINE
8
layer1
10
5.3028143
20
8.0867638
11
5.3763677
21
8.161442
0
LINE
8
layer1
10
5.3763677
20
8.161442
11
5.4960509
21
8.3089994
0
LINE
8
layer1
10
5.4960509
20
8.3089994
11
5.6007758
21
8.4173883
0
LINE
8
layer1
10
5.6007758
20
8.4173883
11
5.6749471
21
8.4854167
0
LINE
8
layer1
10
5.6749471
20
8.4854167
11
5.7662914
21
8.5624097
0
LINE
8
layer1
10
5.7662914
20
8.5624097
11
5.8742755
21
8.6459037
0
LINE
8
layer1
10
5.8742755
20
8.6459037
11
5.9983022
21
8.7337841
0
LINE
8
layer1
10
5.9983022
20
8.7337841
11
6.141616
21
8.826591
0
LINE
8
layer1
10
6.141616
20
8.826591
11
6.3031542
21
8.9218433
0
LINE
8
layer1
10
6.3031542
20
8.9218433
11
6.483208
21
9.0181257
0
LINE
8
layer1
10
6.483208
20
9.0181257
11
6.6838526
21
9.1148523
0
LINE
8
layer1
10
6.6838526
20
9.1148523
11
6.8930197
21
9.2052122
0
ARC
8
layer1
10
-0.0000099
20
-0.0000115
40
11.5
50
49.6836369
51
53.1735004
0
LINE
8
layer1
10
7.4405771
20
8.7685497
11
7.3990268
21
8.5445199
0
LINE
8
layer1
10
7.3990268
20
8.5445199
11
7.349373
21
8.3273822
0
LINE
8
layer1
10
7.349373
20
8.3273822
11
7.2955703
21
8.1304178
0
LINE
8
layer1
10
7.2955703
20
8.1304178
11
7.2386518
21
7.9517341
0
LINE
8
layer1
10
7.2386518
20
7.9517341
11
7.1800621
21
7.791362
0
LINE
8
layer1
10
7.1800621
20
7.791362
11
7.1219836
21
7.6508897
0
LINE
8
layer1
10
7.1219836
20
7.6508897
11
7.0646116
21
7.5270338
0
LINE
8
layer1
10
7.0646116
20
7.5270338
11
7.0098751
21
7.4208472
0
LINE
8
layer1
10
7.0098751
20
7.4208472
11
6.9600569
21
7.3333978
0
LINE
8
layer1
10
6.9600569
20
7.3333978
11
6.8776891
21
7.2071797
0
LINE
8
layer1
10
6.8776891
20
7.2071797
11
6.7604633
21
7.0576627
0
LINE
8
layer1
10
6.7604633
20
7.0576627
11
6.7040245
21
6.9693359
0
LINE
8
layer1
10
6.7040245
20
6.9693359
11
6.6829128
21
6.9281934
0
LINE
8
layer1
10
6.6829128
20
6.9281934
11
6.6664139
21
6.8892982
0
LINE
8
layer1
10
6.6664139
20
6.8892982
11
6.6544141
21
6.8528317
0
LINE
8
layer1
10
6.6544141
20
6.8528317
11
6.6468064
21
6.8189533
0
LINE
8
layer1
10
6.6468064
20
6.8189533
11
6.6434844
21
6.7878512
0
LINE
8
layer1
10
6.6434844
20
6.7878512
11
6.6443117
21
6.7596577
0
LINE
8
layer1
10
6.6443117
20
6.7596577
11
6.6491753
21
6.7345681
0
LINE
8
layer1
10
6.6491753
20
6.7345681
11
6.6579312
21
6.7127082
0
LINE
8
layer1
10
6.6579312
20
6.7127082
11
6.6704581
21
6.694238
0
LINE
8
layer1
10
6.6704581
20
6.694238
11
6.7042201
21
6.6600713
0
LINE
8
layer1
10
6.7042201
20
6.6600713
11
6.9273402
21
6.4276324
0
LINE
8
layer1
10
6.9273402
20
6.4276324
11
7.1424554
21
6.187766
0
LINE
8
layer1
10
7.1424554
20
6.187766
11
7.1740036
21
6.1515451
0
LINE
8
layer1
10
7.1740036
20
6.1515451
11
7.1914859
21
6.1376729
0
LINE
8
layer1
10
7.1914859
20
6.1376729
11
7.2126304
21
6.1273079
0
LINE
8
layer1
10
7.2126304
20
6.1273079
11
7.2372863
21
6.120583
0
LINE
8
layer1
10
7.2372863
20
6.120583
11
7.2653392
21
6.1176511
0
LINE
8
layer1
10
7.2653392
20
6.1176511
11
7.2966026
21
6.1186395
0
LINE
8
layer1
10
7.2966026
20
6.1186395
11
7.3309547
21
6.1236943
0
LINE
8
layer1
10
7.3309547
20
6.1236943
11
7.3682161
21
6.1329353
0
LINE
8
layer1
10
7.3682161
20
6.1329353
11
7.4082354
21
6.1464815
0
LINE
8
layer1
10
7.4082354
20
6.1464815
11
7.4508406
21
6.1644596
0
LINE
8
layer1
10
7.4508406
20
6.1644596
11
7.5431381
21
6.2141399
0
LINE
8
layer1
10
7.5431381
20
6.2141399
11
7.7009973
21
6.3198644
0
LINE
8
layer1
10
7.7009973
20
6.3198644
11
7.8330178
21
6.3925697
0
LINE
8
layer1
10
7.8330178
20
6.3925697
11
7.9239456
21
6.4357134
0
LINE
8
layer1
10
7.9239456
20
6.4357134
11
8.0339258
21
6.4823616
0
LINE
8
layer1
10
8.0339258
20
6.4823616
11
8.1617228
21
6.5303173
0
LINE
8
layer1
10
8.1617228
20
6.5303173
11
8.3061425
21
6.577736
0
LINE
8
layer1
10
8.3061425
20
6.577736
11
8.4704446
21
6.6241772
0
LINE
8
layer1
10
8.4704446
20
6.6241772
11
8.6528822
21
6.6675835
0
LINE
8
layer1
10
8.6528822
20
6.6675835
11
8.8533165
21
6.7065166
0
LINE
8
layer1
10
8.8533165
20
6.7065166
11
9.0735577
21
6.7398049
0
LINE
8
layer1
10
9.0735577
20
6.7398049
11
9.3000661
21
6.7644972
0
ARC
8
layer1
10
-0.0000123
20
-0.0000088
40
11.5
50
32.5407839
51
36.0306477
0
LINE
8
layer1
10
9.6945886
20
6.1858391
11
9.5888503
21
5.9840095
0
LINE
8
layer1
10
9.5888503
20
5.9840095
11
9.4774
21
5.7911543
0
LINE
8
layer1
10
9.4774
20
5.7911543
11
9.3679313
21
5.6187991
0
LINE
8
layer1
10
9.3679313
20
5.6187991
11
9.2608736
21
5.4648308
0
LINE
8
layer1
10
9.2608736
20
5.4648308
11
9.1576164
21
5.3288532
0
LINE
8
layer1
10
9.1576164
20
5.3288532
11
9.0607131
21
5.2117407
0
LINE
8
layer1
10
9.0607131
20
5.2117407
11
8.9693829
21
5.110298
0
LINE
8
layer1
10
8.9693829
20
5.110298
11
8.8857791
21
5.0249628
0
LINE
8
layer1
10
8.8857791
20
5.0249628
11
8.8123981
21
4.9560827
0
LINE
8
layer1
10
8.8123981
20
4.9560827
11
8.6964861
21
4.8597505
0
LINE
8
layer1
10
8.6964861
20
4.8597505
11
8.5403975
21
4.751429
0
LINE
8
layer1
10
8.5403975
20
4.751429
11
8.4604313
21
4.6836619
0
LINE
8
layer1
10
8.4604313
20
4.6836619
11
8.4281306
21
4.65057
0
LINE
8
layer1
10
8.4281306
20
4.65057
11
8.4009001
21
4.6182661
0
LINE
8
layer1
10
8.4009001
20
4.6182661
11
8.3786848
21
4.5869566
0
LINE
8
layer1
10
8.3786848
20
4.5869566
11
8.3614292
21
4.5568258
0
LINE
8
layer1
10
8.3614292
20
4.5568258
11
8.3490873
21
4.5280846
0
LINE
8
layer1
10
8.3490873
20
4.5280846
11
8.3415677
21
4.5008998
0
LINE
8
layer1
10
8.3415677
20
4.5008998
11
8.3388199
21
4.4754913
0
LINE
8
layer1
10
8.3388199
20
4.4754913
11
8.3407434
21
4.4520217
0
LINE
8
layer1
10
8.3407434
20
4.4520217
11
8.3472696
21
4.4306798
0
LINE
8
layer1
10
8.3472696
20
4.4306798
11
8.3694609
21
4.3880795
0
LINE
8
layer1
10
8.3694609
20
4.3880795
11
8.5141558
21
4.1002013
0
LINE
8
layer1
10
8.5141558
20
4.1002013
11
8.6490122
21
3.8075852
0
LINE
8
layer1
10
8.6490122
20
3.8075852
11
8.6684825
21
3.7636745
0
LINE
8
layer1
10
8.6684825
20
3.7636745
11
8.6810992
21
3.7452657
0
LINE
8
layer1
10
8.6810992
20
3.7452657
11
8.6982492
21
3.7291287
0
LINE
8
layer1
10
8.6982492
20
3.7291287
11
8.7198275
21
3.7154351
0
LINE
8
layer1
10
8.7198275
20
3.7154351
11
8.7457699
21
3.7043648
0
LINE
8
layer1
10
8.7457699
20
3.7043648
11
8.7759357
21
3.6960942
0
LINE
8
layer1
10
8.7759357
20
3.6960942
11
8.8102516
21
3.6907989
0
LINE
8
layer1
10
8.8102516
20
3.6907989
11
8.8485813
21
3.6886464
0
LINE
8
layer1
10
8.8485813
20
3.6886464
11
8.8908155
21
3.6897949
0
LINE
8
layer1
10
8.8908155
20
3.6897949
11
8.936827
21
3.6944161
0
LINE
8
layer1
10
8.936827
20
3.6944161
11
9.0396675
21
3.7146841
0
LINE
8
layer1
10
9.0396675
20
3.7146841
11
9.2216764
21
3.7691818
0
LINE
8
layer1
10
9.2216764
20
3.7691818
11
9.3692618
21
3.7997432
0
LINE
8
layer1
10
9.3692618
20
3.7997432
11
9.4688668
21
3.8141688
0
LINE
8
layer1
10
9.4688668
20
3.8141688
11
9.5877107
21
3.8263273
0
LINE
8
layer1
10
9.5877107
20
3.8263273
11
9.7239652
21
3.8344836
0
LINE
8
layer1
10
9.7239652
20
3.8344836
11
9.8759456
21
3.8372272
0
LINE
8
layer1
10
9.8759456
20
3.8372272
11
10.046637
21
3.8331762
0
LINE
8
layer1
10
10.046637
20
3.8331762
11
10.2337636
21
3.8208797
0
LINE
8
layer1
10
10.2337636
20
3.8208797
11
10.436769
21
3.799004
0
LINE
8
layer1
10
10.436769
20
3.799004
11
10.6570374
21
3.7658962
0
LINE
8
layer1
10
10.6570374
20
3.7658962
11
10.8807609
21
3.722727
0
ARC
8
layer1
10
-0.0000145
20
-0.000004
40
11.5
50
15.3979234
51
18.8877866
0
LINE
8
layer1
10
11.0871933
20
3.0534894
11
10.9266623
21
2.8917935
0
ENDSEC
0
EOF